<svg xmlns="http://www.w3.org/2000/svg" xmlns:xlink="http://www.w3.org/1999/xlink" width="782.546" height="679.704" viewBox="0 0 782.546 679.704">
  <defs>
    <linearGradient id="linear-gradient" x1="1.096" y1="1" x2="1.096" gradientUnits="objectBoundingBox">
      <stop offset="0" stop-color="gray" stop-opacity="0.251"/>
      <stop offset="0.54" stop-color="gray" stop-opacity="0.122"/>
      <stop offset="1" stop-color="gray" stop-opacity="0.102"/>
    </linearGradient>
    <linearGradient id="linear-gradient-2" x1="0.5" y1="1" x2="0.5" y2="0" xlink:href="#linear-gradient"/>
    <linearGradient id="linear-gradient-3" x1="0.5" y1="1" x2="0.5" y2="0" xlink:href="#linear-gradient"/>
  </defs>
  <g id="Group_13" data-name="Group 13" transform="translate(-109.147 -121.84)">
    <g id="Group_9" data-name="Group 9">
      <g id="undraw_air_support_wy1q" transform="translate(-6.96 13)">
        <circle id="Ellipse_49" data-name="Ellipse 49" cx="72.31" cy="72.31" r="72.31" transform="translate(148.95 108.84)" fill="#fccc63"/>
      </g>
      <path id="Path_409" data-name="Path 409" d="M43.44,426.65c12.381,48.252,38.594,89.962,80.023,110.178,86.131,42.02,280.259,20.346,425.165-4.526,74.974-12.869,140.828-48.355,188.694-98.361Z" transform="translate(74.162 57.329)" fill="#6c63ff" opacity="0.1"/>
      <path id="Path_410" data-name="Path 410" d="M812.424,72.637H732.918c-3.783,0-6.878-2.82-6.878-6.266s3.088-6.266,6.878-6.266h13.757c-3.783,0-6.878-2.82-6.878-6.266s3.088-6.259,6.878-6.259h-9.815c-3.783,0-6.878-2.82-6.878-6.266s3.088-6.266,6.878-6.266h41.5a117.568,117.568,0,0,0-32.37-8.13C632.83,13.662,592.427,22.425,578.154,31.442A166.531,166.531,0,0,1,520,54.684c-69.815,13.131-200.38,28.93-318.722-5.062C142.459,32.735,98.747,61.315,72.54,108.989H826.229c-.984-13.867-3.927-26.674-9.334-37.879A7.209,7.209,0,0,1,812.424,72.637Z" transform="translate(65.078 184.225)" fill="#6c63ff" opacity="0.1"/>
      <path id="Path_411" data-name="Path 411" d="M32.855,280.23a291.6,291.6,0,0,0,3.088,84.184l698.071,23.276a297.94,297.94,0,0,0,48.5-67.408Zm276.077,60.055H295.175c3.776,0,6.878,2.82,6.878,6.266s-3.1,6.259-6.878,6.259H215.7c-3.776,0-6.878-2.813-6.878-6.259s3.1-6.266,6.878-6.266h13.757c-3.776,0-6.878-2.82-6.878-6.266s3.1-6.266,6.878-6.266H219.63c-3.776,0-6.878-2.813-6.878-6.259s3.1-6.266,6.878-6.266h79.507c3.783,0,6.878,2.82,6.878,6.266s-3.088,6.259-6.878,6.259h9.795c3.783,0,6.878,2.82,6.878,6.266S312.735,340.285,308.932,340.285Z" transform="translate(78 103.036)" fill="#6c63ff" opacity="0.1"/>
      <path id="Path_412" data-name="Path 412" d="M814.164,149.94,52.042,166.84C42.756,188.569,36.614,213.131,33.78,238.6H800.807a274.445,274.445,0,0,0,11.074-45.734A198.113,198.113,0,0,0,814.164,149.94ZM188.522,205.318H174.766c3.776,0,6.878,2.82,6.878,6.266s-3.1,6.266-6.878,6.266h-79.5c-3.776,0-6.878-2.82-6.878-6.266s3.1-6.266,6.878-6.266h13.757c-3.776,0-6.878-2.813-6.878-6.259s3.1-6.266,6.878-6.266H99.193c-3.776,0-6.878-2.82-6.878-6.266s3.1-6.266,6.878-6.266H178.7c3.783,0,6.878,2.82,6.878,6.266s-3.088,6.266-6.878,6.266h9.822c3.776,0,6.878,2.82,6.878,6.266S192.3,205.318,188.522,205.318Z" transform="translate(77.178 143.708)" fill="#6c63ff" opacity="0.1"/>
    </g>
    <g id="undraw_music_r1se" transform="translate(330.003 83.999)">
      <path id="Path_368" data-name="Path 368" d="M219.47,606.6v7.615c3.039,1.128,6.23-1.5,9.47-1.329,1.89.09,3.607,1.142,5.476,1.461a1.786,1.786,0,0,0,1.385-.2,2.015,2.015,0,0,0,.568-1.308c.692-4.05,1.454-13.845-4.846-14.537C226.87,597.766,225.091,606.059,219.47,606.6Z" transform="translate(-95.253 -166.045)" fill="#ffb9b9"/>
      <path id="Path_369" data-name="Path 369" d="M219.47,606.6v7.615c3.039,1.128,6.23-1.5,9.47-1.329,1.89.09,3.607,1.142,5.476,1.461a1.786,1.786,0,0,0,1.385-.2,2.015,2.015,0,0,0,.568-1.308c.692-4.05,1.454-13.845-4.846-14.537C226.87,597.766,225.091,606.059,219.47,606.6Z" transform="translate(-95.253 -166.045)" opacity="0.1"/>
      <path id="Path_370" data-name="Path 370" d="M227.162,605.26c-1.765,4.154-4.4,7.289-6.694,8.217a.582.582,0,0,1-.1.042,2.9,2.9,0,0,1-2.188.062,2.077,2.077,0,0,1-.6-.374c-1.973-1.648-1.89-6.673.3-11.865,2.4-5.677,6.417-9.4,9-8.307S229.564,599.584,227.162,605.26Z" transform="translate(-94.236 -164.374)" fill="#4c4c78"/>
      <path id="Path_371" data-name="Path 371" d="M226.283,813.038l-.132,1.814s-.851,8.515,8.612,8.4,11.131-6.632,11.131-6.632l-.976-4.327Z" transform="translate(-97.303 -231.908)" fill="#4c4c78"/>
      <path id="Path_372" data-name="Path 372" d="M258.293,547.1S253.71,592,254.576,599.966c.568,5.247-1.384,12.668-2.831,17.126a18.5,18.5,0,0,0-.852,7.345c1.385,15.16-3.357,37.776-4.846,40.254-1.585,2.686-1.44,21.114-1.44,21.114l.505,4.327.36,3.053.339,2.921s.782,10.73-.512,13.236c-.941,1.821-.748,9.733-.575,13.949.069,1.6.138,2.665.138,2.665a3.1,3.1,0,0,1-.789,2.021c-1.17,1.44-4.07,3.074-11.235,2.824-5.725-.2-7.615-2.589-8.058-5.109a10.619,10.619,0,0,1,.741-5.226c.222-.568.395-.907.395-.907l6.23-19.473a39.223,39.223,0,0,1,.132-4.043,15.1,15.1,0,0,1,.962-4.555v-.055c1.3-2.769-1.648-18.947-1.648-18.947-4.32-16.7-3.2-51.49-2.16-53.137s2.4-8.355,2.4-8.355.166-3.98.429-13.07-2.686-25.779-2.686-25.779C219.8,540.3,229.149,530,229.149,530l29.158,6.839Z" transform="translate(-96.867 -145.033)" fill="#ffb9b9"/>
      <path id="Path_373" data-name="Path 373" d="M248.864,764.36c-3.171,1.052-9.691,3.053-13.194,2.859a15.1,15.1,0,0,1,.962-4.555c2.859.575,7.7,1,11.872-1.384Z" transform="translate(-100.238 -216.21)" fill="#4c4c78"/>
      <path id="Path_374" data-name="Path 374" d="M244.1,812.5c-4.306-2.257-12.419-5.469-19.293-2.284a10.619,10.619,0,0,1,.741-5.226c3.994-.533,12.461-1.031,19.2,2.824.069,1.6.138,2.665.138,2.665a3.1,3.1,0,0,1-.789,2.021Z" transform="translate(-96.877 -229.55)" fill="#4c4c78"/>
      <path id="Path_375" data-name="Path 375" d="M216.149,488.12v17.763s-13.264,30.867-17.161,36.516a18,18,0,0,0-2.374,4.88,35.243,35.243,0,0,1-5.732,11.076,42.4,42.4,0,0,0-6.23,12.731c-20.359-6.867,2.25-25.842,2.25-25.842s8.307-18.061,9-24c.54-4.631,6.306-22.034,8.819-29.476.692-2.077,1.163-3.406,1.163-3.406Z" transform="translate(-81.921 -132.145)" fill="#ffb9b9"/>
      <path id="Path_376" data-name="Path 376" d="M270.617,587.612s-7.123-4.846-9.892,8.307,7.85,16.614,7.85,16.614Z" transform="translate(-107.807 -162.495)" fill="none"/>
      <path id="Path_377" data-name="Path 377" d="M270.617,587.612s-7.123-4.846-9.892,8.307,7.85,16.614,7.85,16.614Z" transform="translate(-107.807 -162.495)" opacity="0.05"/>
      <path id="Path_378" data-name="Path 378" d="M274.955,539.783s-6.6,14.468-5.621,28.611a8.19,8.19,0,0,1-.623,3.821,49.773,49.773,0,0,0-3.745,21.91v.415a12.641,12.641,0,0,0,20.2,9.242c4.846-3.662,10.114-9.761,13.035-19.826a75.077,75.077,0,0,1,2.88-8.252c3.461-8.092,10.128-25.343,8.127-32.806C306.57,533.006,274.955,539.783,274.955,539.783Z" transform="translate(-109.23 -147.347)" fill="#ffb9b9"/>
      <path id="Path_379" data-name="Path 379" d="M314.02,542.891c-1.156-4.327-7.816-5.469-14.953-5.393,6.6.083,12.461,1.385,13.568,5.393,1.994,7.462-4.687,24.713-8.127,32.806a72.779,72.779,0,0,0-2.88,8.252c-2.928,10.065-8.189,16.171-13.035,19.826a12.46,12.46,0,0,1-6.874,2.534,12.413,12.413,0,0,0,8.259-2.534c4.846-3.655,10.107-9.761,13.035-19.826a72.774,72.774,0,0,1,2.88-8.252C309.334,567.611,316.014,550.354,314.02,542.891Z" transform="translate(-114.41 -147.34)" opacity="0.1"/>
      <path id="Path_380" data-name="Path 380" d="M224.58,508.08s-5.109,20.075-6.23,21.287c0,0,33.228,6.659,37.984,11.678l.692-5.711,2.34,1.558s19.21-13.672,36,3.461c0,0,8.217-24.921,5.884-29.594s-30.376-.6-30.376-.6Z" transform="translate(-94.908 -138.288)" opacity="0.1"/>
      <path id="Path_381" data-name="Path 381" d="M224.58,507.08s-5.109,20.075-6.23,21.287c0,0,33.228,6.659,37.984,11.678l.692-5.711,2.34,1.558s19.21-13.672,36,3.461c0,0,8.217-24.921,5.884-29.594s-30.376-.6-30.376-.6Z" transform="translate(-94.908 -137.98)" fill="#4c4c78"/>
      <path id="Path_382" data-name="Path 382" d="M175.958,312.826a15.093,15.093,0,0,0,.062,3.129c.228,2.077.547,4.154.9,6.23.1.609.215,1.211.325,1.814,1.094,5.94,2.506,11.831,3.461,17.8a86.527,86.527,0,0,1,1.011,9.221,50.8,50.8,0,0,1-1.475,16.282,32.666,32.666,0,0,1-3.6,8.4,10.64,10.64,0,0,1-2.492,2.99,6.852,6.852,0,0,1-.692.436,11.193,11.193,0,0,1-4.638,1.26c-1.1.1-2.2.138-3.309.138-.872,0-1.751,0-2.624-.069-3.108-.132-6.23-.443-9.325-.422-5.088.042-10.495,1.135-14.15,4.79-4.1,4.1-5.033,10.231-6.763,15.922a28.985,28.985,0,0,1-2.575,6.23,6.923,6.923,0,0,1-3.157,3.136,7.961,7.961,0,0,1-3.641.256l-14.44-1.211c-1.924-.159-3.987-.291-5.642.727-1.862,1.142-2.707,3.413-3.558,5.469a54.244,54.244,0,0,1-6.687,11.768,10.706,10.706,0,0,1-4.285,3.842c-1.98.782-4.2.408-6.286,0-6.563-1.218-13.928-2.991-17.306-8.923-3.911-6.923-.367-15.735,4.216-22.152s10.446-12.516,11.45-20.456c.27-2.132.076-4.534-1.385-6.064-1.149-1.2-2.887-1.661-3.98-2.914-1.924-2.222-1-5.718.194-8.432a68.734,68.734,0,0,1,12.814-19.383c8.355-8.875,19.521-16.2,22.72-28.133,1.959-7.331.464-15.112.658-22.72.069-2.866.436-5.87,2.028-8.224,1.821-2.686,4.977-4.1,8.1-4.638,8.044-1.385,17.2,1.862,23.959-2.873,4.216-2.963,6.479-8.542,11.152-10.661,4.022-1.828,8.695-.554,12.765,1.156,6.923,2.887,13.97,7.954,15.084,15.555a20.5,20.5,0,0,1,.18,2.16,34.41,34.41,0,0,0,.339,5.413c1.073,5.5,6,10.806,3.71,15.922C182.029,306.471,176.525,306.492,175.958,312.826Z" transform="translate(-47.22 -63.326)" fill="#ffe99f"/>
      <path id="Path_383" data-name="Path 383" d="M205.458,391.879c-2.5,3.766-4.617,7.8-6.756,11.831a11.194,11.194,0,0,1-4.638,1.26c-1.1.1-2.2.138-3.309.138-.872,0-1.751,0-2.624-.069-3.108-.132-6.23-.443-9.325-.422-5.088.042-10.495,1.135-14.15,4.79-4.1,4.1-5.033,10.231-6.763,15.922h-.748c-3.6,0-6.763-2.278-9.525-4.576a6.811,6.811,0,0,1-1.807-1.973,5.213,5.213,0,0,1-.429-2.963c.4-4.008,3.136-7.331,5.593-10.515a117.413,117.413,0,0,0,7.386-10.758c1.038-1.7,2.077-3.572,1.89-5.538-.138-1.592-1.031-3.011-1.385-4.562-.948-3.987,1.738-7.961,4.894-10.571s6.923-4.513,9.574-7.649,3.918-7.469,4.216-11.658c.215-2.942.125-6.23,2.125-8.4,2.949-3.205,7.511-1.218,11.173-.914,3.821.325,7.566.831,11.311,1.474.1.609.215,1.211.325,1.814,1.094,5.94,2.506,11.831,3.461,17.8a86.527,86.527,0,0,1,1.011,9.221A50.8,50.8,0,0,1,205.458,391.879Z" transform="translate(-72.436 -87.905)" opacity="0.1"/>
      <path id="Path_384" data-name="Path 384" d="M246.146,244.146,232.3,253.609l-1.059-3-2.284-6.466S201.5,224.07,194.8,217.266s-12.571-4.5-12.571-4.5c-6.694,4.963-16.5,7.386-19.037-1.384-1.89-6.507,12.253-9.906,19.667-11.221a11.54,11.54,0,0,1,7.829,1.385c5.067,2.949,14.336,8.259,18.649,10.3,6.119,2.88,30.231,21.806,30.231,22.844,0,.692,3.15,4.97,5.088,7.518C245.523,243.35,246.146,244.146,246.146,244.146Z" transform="translate(-77.881 -43.47)" fill="#ffb9b9"/>
      <path id="Path_385" data-name="Path 385" d="M322.1,385.12l6.23,49.378,9.692-7.379s-3.925-8.307-1.385-9.8,6.23,8.182,6.23,8.182,24.693,1.385,17.77-12.689l-7.85-10.155L337.33,391.683Z" transform="translate(-126.837 -100.447)" fill="#757a9b"/>
      <path id="Path_386" data-name="Path 386" d="M322.1,385.12l6.23,49.378,9.692-7.379s-3.925-8.307-1.385-9.8,6.23,8.182,6.23,8.182,24.693,1.385,17.77-12.689l-7.85-10.155L337.33,391.683Z" transform="translate(-126.837 -100.447)" fill="#d0d3e8" opacity="0.1"/>
      <path id="Path_387" data-name="Path 387" d="M267.861,364.588l-3,24.921-19.992,1.62s-21.328-6.085-13.464-21c3.572-6.784,1.329-10.848-1.911-13.229a19.992,19.992,0,0,0-7.892-3.15s-.581-38.074,6.106-25.156c3,5.808,9.131,8.12,14.966,8.909a47.833,47.833,0,0,0,13.88-.367Z" transform="translate(-95.906 -82.227)" fill="#ffb9b9"/>
      <path id="Path_388" data-name="Path 388" d="M242.68,337.826a20.385,20.385,0,0,1-13.19,19.07,19.993,19.993,0,0,0-7.9-3.148s-.581-38.074,6.106-25.156c3,5.808,9.131,8.12,14.966,8.909A2.785,2.785,0,0,1,242.68,337.826Z" transform="translate(-95.903 -82.227)" opacity="0.1"/>
      <circle id="Ellipse_40" data-name="Ellipse 40" cx="20.387" cy="20.387" r="20.387" transform="translate(105.312 234.52)" fill="#ffb9b9"/>
      <path id="Path_389" data-name="Path 389" d="M276.474,262.918l-13.845,9.463-1.059-3c4.119-1.35,10.467-6.092,13.416-8.4C275.851,262.122,276.474,262.918,276.474,262.918Z" transform="translate(-108.209 -62.243)" opacity="0.1"/>
      <path id="Path_390" data-name="Path 390" d="M279.181,271.917l-.581,2.651-16.15,5.192a59.5,59.5,0,0,1-4.437-5.69c-1.516-2.305-2.368-4.382-.291-4.112,4.5.575,17.306-10.038,17.306-10.038,2.139-2.4,3.392,5.393,3.9,9.553C279.1,270.913,279.181,271.917,279.181,271.917Z" transform="translate(-106.644 -61.778)" fill="#cbcdda"/>
      <path id="Path_391" data-name="Path 391" d="M228.849,488.12v6.334c-1.385,0-7.5-.311-11.429-2.7.692-2.077,1.163-3.406,1.163-3.406Z" transform="translate(-94.622 -132.145)" opacity="0.1"/>
      <path id="Path_392" data-name="Path 392" d="M230.519,478.246l-.879,3.918-1.821,7.961s-8.653,0-12.862-3.517c-2.582-2.153-2-5.538-1.163-7.843a14.5,14.5,0,0,1,1.163-2.485Z" transform="translate(-93.287 -128.501)" fill="#cbcdda"/>
      <path id="Path_393" data-name="Path 393" d="M230.835,478.246l-.879,3.918c-4.091,2.16-13.45-2.215-15.846-3.4a14.5,14.5,0,0,1,1.163-2.485Z" transform="translate(-93.603 -128.501)" opacity="0.1"/>
      <path id="Path_394" data-name="Path 394" d="M213.958,408.62l-2.188,8.425s4.382,26.188,2.651,31.38a26.88,26.88,0,0,0-1.613,8.535s12.689,6.694,16.96,3.35,4.264-17.507,4.264-17.507l9-9.228-11.422-16.5Z" transform="translate(-92.883 -107.679)" fill="#d0d3e8"/>
      <path id="Path_395" data-name="Path 395" d="M262.136,361s10.9,36.516-24.575,28.036l10.266,40.324L227.35,467.434s65.591,11.076,76.667-3.288c0,0-5.365-43.266-3.288-57.8s-6.576-37.215-11.249-38.683S262.136,361,262.136,361Z" transform="translate(-97.678 -93.024)" opacity="0.1"/>
      <path id="Path_396" data-name="Path 396" d="M262.136,363s10.9,36.516-24.575,28.036l10.266,40.324L227.35,469.433s65.591,11.076,76.667-3.288c0,0-5.365-43.266-3.288-57.8s-6.576-37.215-11.249-38.683S262.136,363,262.136,363Z" transform="translate(-97.678 -93.639)" opacity="0.1"/>
      <path id="Path_397" data-name="Path 397" d="M262.136,362s10.9,36.516-24.575,28.036l10.266,40.324L227.35,468.434s65.591,11.076,76.667-3.288c0,0-5.365-43.266-3.288-57.8s-6.576-37.215-11.249-38.683S262.136,362,262.136,362Z" transform="translate(-97.678 -93.331)" fill="#df3dc4"/>
      <path id="Path_398" data-name="Path 398" d="M270.39,280.82c-2.077.969-6.742,2.243-13.5-.727,0,0,10.619,20.768,11.311,24.693s.692,8.771-.235,9.463-3.69,7.843-3.69,7.843l-10.848.478s6.923,2.769,6.923,8.058,15.23,15.229,23.308,19.155,41.071,15.486,41.071,15.486L339.5,379.548s-5.773-15-25.385-28.382-19.383-21.342-19.383-21.342-3.69-28.036-8.535-35.886-7.615-19.148-7.615-19.148-3.877,5.344-6.182,5.49A5.69,5.69,0,0,0,270.39,280.82Z" transform="translate(-105.704 -66.493)" opacity="0.1"/>
      <path id="Path_399" data-name="Path 399" d="M279.859,276.364l-.581,2.651-16.15,5.192a59.492,59.492,0,0,1-4.437-5.69c6.666,2.873,11.242,1.613,13.319.651a5.538,5.538,0,0,1,2.014-.54c1.751-.111,4.4-3.212,5.58-4.707C279.776,275.36,279.859,276.364,279.859,276.364Z" transform="translate(-107.323 -66.225)" opacity="0.1"/>
      <path id="Path_400" data-name="Path 400" d="M270.39,279.82c-2.077.969-6.742,2.243-13.5-.727,0,0,10.619,20.768,11.311,24.693s.692,8.771-.235,9.463-3.69,7.843-3.69,7.843l-10.848.478s6.923,2.769,6.923,8.058,15.23,15.229,23.308,19.155,41.071,15.486,41.071,15.486L339.5,378.548s-5.773-15-25.385-28.382-19.383-21.342-19.383-21.342-3.69-28.036-8.535-35.886-7.615-19.148-7.615-19.148-3.877,5.344-6.182,5.49A5.69,5.69,0,0,0,270.39,279.82Z" transform="translate(-105.704 -66.185)" fill="#d0d3e8"/>
      <path id="Path_401" data-name="Path 401" d="M191.034,343.5c.692-2.181.277-4.555.568-6.826.775-6.154,6.569-11.111,6.3-17.306a2.769,2.769,0,0,1,.242-1.7,2.222,2.222,0,0,1,1.5-.741c3.018-.547,6.486-.256,8.729-2.347s2.188-5.877,1.848-9.062c-.187-1.71-.457-3.593-1.765-4.721a6.8,6.8,0,0,0-3.025-1.239q-5.663-1.288-11.388-2.25c-3.849-.651-7.9-1.17-11.561.18s-6.507,4.52-9.117,7.546c-2.457,2.845-5.081,6.265-4.389,9.968.381,2.008,1.689,3.69,2.561,5.538a13.416,13.416,0,0,1-.692,12.53c-1.814,2.935-4.846,5.254-5.58,8.619a8.232,8.232,0,0,0,3.593,8.342C174.364,353.653,188.867,350.372,191.034,343.5Z" transform="translate(-78.523 -73.216)" opacity="0.1"/>
      <path id="Path_402" data-name="Path 402" d="M190.034,343.5c.692-2.181.277-4.555.568-6.826.775-6.154,6.569-11.111,6.3-17.306a2.769,2.769,0,0,1,.242-1.7,2.222,2.222,0,0,1,1.5-.741c3.018-.547,6.486-.256,8.729-2.347s2.188-5.877,1.848-9.062c-.187-1.71-.457-3.593-1.765-4.721a6.805,6.805,0,0,0-3.025-1.239q-5.663-1.288-11.387-2.25c-3.849-.651-7.9-1.17-11.561.18s-6.507,4.52-9.117,7.546c-2.457,2.845-5.081,6.265-4.389,9.968.381,2.008,1.689,3.69,2.561,5.538a13.416,13.416,0,0,1-.692,12.53c-1.814,2.935-4.846,5.254-5.58,8.619a8.232,8.232,0,0,0,3.593,8.342C173.364,353.653,187.867,350.372,190.034,343.5Z" transform="translate(-78.215 -73.216)" fill="#ffe99f"/>
      <path id="Path_403" data-name="Path 403" d="M227.925,372.23s-17.119,13.54-17.694,18.04,1.841,15.112,1.841,15.112l17.078,10.73s19.729,7.732,4.963,20.65-19.965,40.614-19.965,40.614,7.158,8.535,20.539-16c0,0,12.924-14.073,13.5-21s2.589-28.154-6.147-41.307c-5.766-8.681-8.9-18.428-11.159-23.474a6.327,6.327,0,0,0-2.956-3.364Z" transform="translate(-92.382 -96.48)" opacity="0.1"/>
      <path id="Path_404" data-name="Path 404" d="M226.925,372.23s-17.119,13.54-17.694,18.04,1.841,15.112,1.841,15.112l17.078,10.73s19.729,7.732,4.963,20.65-19.964,40.614-19.964,40.614,7.158,8.535,20.539-16c0,0,12.924-14.073,13.5-21s2.589-28.154-6.147-41.307c-5.766-8.681-8.9-18.428-11.159-23.474a6.327,6.327,0,0,0-2.956-3.364Z" transform="translate(-92.074 -96.48)" fill="#d0d3e8"/>
      <path id="Path_405" data-name="Path 405" d="M237.836,465.45s-15.022,4.707-13.194,19.383" transform="translate(-96.797 -125.168)" opacity="0.1"/>
      <path id="Path_406" data-name="Path 406" d="M200.192,392.65l-3.482,15.119,6.576-6.743Z" transform="translate(-55.56 -72.672)" opacity="0.1"/>
      <path id="Path_407" data-name="Path 407" d="M225.006,502.99l-4.486,3.4,3.794,2.312Z" transform="translate(-62.888 -106.629)" opacity="0.1"/>
      <path id="Path_408" data-name="Path 408" d="M310.6,433.76s15.437.5,15.749-5.31" transform="translate(-123.298 -113.781)" opacity="0.1"/>
    </g>
    <g id="undraw_team_spirit_hrr4" transform="translate(109.16 204.365)">
      <ellipse id="Ellipse_7" data-name="Ellipse 7" cx="93.353" cy="7.662" rx="93.353" ry="7.662" transform="translate(483.84 545.07)" fill="#6c63ff" opacity="0.1"/>
      <ellipse id="Ellipse_8" data-name="Ellipse 8" cx="93.353" cy="11.618" rx="93.353" ry="11.618" transform="translate(109.018 529.497)" fill="#6c63ff" opacity="0.1"/>
      <ellipse id="Ellipse_9" data-name="Ellipse 9" cx="109.742" cy="18.118" rx="109.742" ry="18.118" transform="translate(320.463 452.341)" fill="#6c63ff" opacity="0.1"/>
      <path id="Path_61" data-name="Path 61" d="M452.507,436.874a3.527,3.527,0,0,1-.234.454c-2.366,4-8.364,6.534-10.187,7.229-.344-.612-.537-.97-.537-.97l1.266-5.936,6.693-2.751a18.694,18.694,0,0,1,3,1.974Z" transform="translate(-159.273 -149.612)" opacity="0.1"/>
      <path id="Path_77" data-name="Path 77" d="M440.344,396.16s-9.54,3.02-8.859,7.566S430.514,401.621,440.344,396.16Z" transform="translate(-156.12 -137.519)" opacity="0.1"/>
      <path id="Path_78" data-name="Path 78" d="M437.92,428.025s3.474-4.767,6.782-3.893S437.92,428.025,437.92,428.025Z" transform="translate(-158.14 -146.217)" opacity="0.1"/>
      <path id="Path_146" data-name="Path 146" d="M911.812,629.367c5.427,15.607-.908,40.94-3.852,52.276a158.034,158.034,0,0,0-3.845,24.886,52.41,52.41,0,0,1-19.906-.454l4.753-23.3c-3.4-13.8,0-50.673,0-50.673s-7.69-14.252-8.371-35.967c-.688-21.371-5.936-28.284-6.1-28.5h0c-10.854,5.654-24.652,66.28-24.652,66.28,1.128,14.7-.234,37.322-4.753,49.524a61.217,61.217,0,0,0-3.391,24.2c-1.582,1.376-3.783,1.568-6.191,1.183-6.459-1.046-14.2-6.61-14.2-6.61s2.483-66.032,4.3-68.536,0-16.742,0-16.742l2.937-23.07s-.454-39.138,3.845-45.92c3.714-5.86,4.567-16.164,4.732-18.867v-.688l6.548-7.841s63.336-4.753,68.1,0c1.162,1.162,1.885,3.818,2.311,7.154,1.307,10.262-.193,27-.193,27s-1.9,12.443-4.615,25.106a55.108,55.108,0,0,0,0,23.077A69.078,69.078,0,0,0,911.812,629.367Z" transform="translate(-277.817 -175.69)" fill="#65617d"/>
      <path id="Path_147" data-name="Path 147" d="M936.292,811.215c-2.827,3.735-19.452,2.153-22.286.99-1.726-.688-1.6-3.969-1.128-7.319.3-2.125.729-4.3.908-5.881.447-4.072-1.376-12.333-1.376-12.333s3.728,3.962,4.629,0a4.314,4.314,0,0,1,3.233-3.068,8.446,8.446,0,0,1,5.874.365c2.937,1.279,7.834,4,6.961,7.669-1.245,5.193,3.164,12.567,3.164,12.567a5.721,5.721,0,0,1,.825,1.417,5.427,5.427,0,0,1-.8,5.592Z" transform="translate(-306.259 -258.352)" fill="#a27772"/>
      <path id="Path_148" data-name="Path 148" d="M936.366,821.038c-2.827,3.735-19.452,2.153-22.286.99-1.726-.688-1.6-3.969-1.128-7.319,1.788.839,4.815,1.534,9.884,1.066a27.866,27.866,0,0,1,3.556-.11,82.712,82.712,0,0,0,10.8-.22A5.427,5.427,0,0,1,936.366,821.038Z" transform="translate(-306.333 -268.175)" opacity="0.1"/>
      <path id="Path_149" data-name="Path 149" d="M856.275,654.228c1.128,14.7-.234,37.322-4.753,49.524a61.217,61.217,0,0,0-3.391,24.2c-1.582,1.376-3.783,1.568-6.19,1.183,1.376-9.54,7.181-50.645,10.9-83.125,4.244-36.985,24.074-62.428,24.074-62.428l3.955,4.354C870.073,593.6,856.275,654.228,856.275,654.228Z" transform="translate(-284.26 -196.024)" opacity="0.1"/>
      <path id="Path_150" data-name="Path 150" d="M916.338,328.332,913.587,341.9l-13.53,22.733-16.68-7.126s-22.7-23.751-8.426-27.142a12.629,12.629,0,0,0,4.732-2.1,9.786,9.786,0,0,0,3.694-8.185,25.093,25.093,0,0,0-2.3-9.726l29.178-9.162a46.835,46.835,0,0,0-2.064,11.817c-.227,7.951,2.751,11.865,5.152,13.757A8.764,8.764,0,0,0,916.338,328.332Z" transform="translate(-293.094 -107.872)" fill="#fbbebe"/>
      <path id="Path_151" data-name="Path 151" d="M915.15,301.19a46.833,46.833,0,0,0-2.063,11.817,22.2,22.2,0,0,1-1.7,1.809,23.084,23.084,0,0,1-23.07,5.262A25.093,25.093,0,0,0,886,310.352Z" transform="translate(-298.014 -107.872)" opacity="0.1"/>
      <path id="Path_152" data-name="Path 152" d="M912.3,285.29a22.967,22.967,0,1,1-6.728-16.345A23.077,23.077,0,0,1,912.3,285.29Z" transform="translate(-291.818 -95.707)" fill="#fbbebe"/>
      <path id="Path_153" data-name="Path 153" d="M916.338,339.929,913.587,353.5l-13.53,22.733-16.68-7.126s-22.7-23.751-8.426-27.142a12.629,12.629,0,0,0,4.732-2.1c-2.573,7.071,8.048,21.784,8.048,21.784,1.238,1.823,4.072.688,4.072.688,6.844-1.039,19.438-20.718,21.495-23.992a8.763,8.763,0,0,0,3.04,1.589Z" transform="translate(-293.094 -119.469)" opacity="0.1"/>
      <path id="Path_154" data-name="Path 154" d="M921.313,527.712c-4.017.915-26.241,5.833-34.667,4.6-9.272-1.376-27.3-2.256-27.3-2.256s-11.48.619-15.015-1v-.688l6.548-7.841s63.336-4.753,68.1,0C920.164,521.721,920.886,524.376,921.313,527.712Z" transform="translate(-285.006 -175.684)" opacity="0.1"/>
      <path id="Path_155" data-name="Path 155" d="M872.5,362.422s-11.934-16.508-7.436-22.974L844.9,347.7s-12.133-1.472-16.508,16.639a31.509,31.509,0,0,0-.75,9.189c.165,2.751-.206,7.566-3.322,13.757-4.973,9.953-3.845,32.8,6.335,35.08s13.791,1.128,13.791,1.128-1.376,41.394-7.236,46.147,14.995,3.618,14.995,3.618,18.028.908,27.307,2.263S914.8,470.77,914.8,470.77s-3.845-17.416-5.207-28.5-4.533-34.688-4.533-34.688l23.07-31.255s4.072-18.888-10.18-27.259-19.61-10.421-19.61-10.421-14.321,23.318-21.784,24.446C876.568,363.1,873.734,364.237,872.5,362.422Z" transform="translate(-277.866 -119.566)" fill="#fff"/>
      <path id="Path_156" data-name="Path 156" d="M855.435,382.74s-.22,7.47,1.135,10.407,6.335,19.259,6.335,19.259H851.59s6.108-6.562,5.661-9.733S855.435,382.74,855.435,382.74Z" transform="translate(-287.273 -133.329)" opacity="0.1"/>
      <path id="Path_157" data-name="Path 157" d="M889.5,450.242s-24.982-6.108-27.307-11.308-8.742-16.845-8.742-16.845l2.634-3.549,12.147,9.533s14.445,11.535,21.268,12.67S889.5,450.242,889.5,450.242Z" transform="translate(-287.853 -144.505)" fill="#fbbebe"/>
      <path id="Path_158" data-name="Path 158" d="M889.5,450.242s-24.982-6.108-27.307-11.308-8.742-16.845-8.742-16.845l2.634-3.549,12.147,9.533s14.445,11.535,21.268,12.67S889.5,450.242,889.5,450.242Z" transform="translate(-287.853 -144.505)" opacity="0.05"/>
      <path id="Path_159" data-name="Path 159" d="M916.779,421.812v13.55h-2.174a63.341,63.341,0,0,0-30.771,7.971l-4.075,2.257-1.094.612-7.016-15.82,6.562-5.881h.337c1.6.158,8.543.736,11.487-.254,2.793-.949,6.259-3.955,14.486-1.857,4.051,1.039,7.518,5.578,11.446,4.161Z" transform="translate(-293.535 -145.479)" fill="#fbbebe"/>
      <path id="Path_160" data-name="Path 160" d="M946.646,379.022l4.519,5.09v12.333s-3.845,38.9-16.054,43.2-34.02-2.49-34.02-2.49-5.633-14.926-3-15.82,23.283-6.356,23.283-6.356-.289-22.822,4.23-29.611c0,0-2.937-21.261,7.243-21.715S946.646,379.022,946.646,379.022Z" transform="translate(-301.57 -127.369)" opacity="0.1"/>
      <path id="Path_161" data-name="Path 161" d="M947.648,379.022l4.526,5.09v12.333s-3.845,38.9-16.061,43.2-34.02-2.49-34.02-2.49-5.633-14.926-2.992-15.82,23.283-6.356,23.283-6.356-.3-22.822,4.23-29.611c0,0-2.944-21.261,7.236-21.715S947.648,379.022,947.648,379.022Z" transform="translate(-301.884 -127.369)" fill="#fff"/>
      <path id="Path_162" data-name="Path 162" d="M908.117,295.047a9.094,9.094,0,0,0-.516-4.409,3.357,3.357,0,0,0-3.591-2.063c-1.933.454-2.751,2.971-4.664,3.577-1.6.509-3.35-.626-4.127-2.119a10.551,10.551,0,0,1-.784-4.925V279.44c0-2.064-.069-4.278-1.334-5.895-1.575-2.008-5.282-2.889-7.759-2.806a6.582,6.582,0,0,0-4.43,1.781,5.7,5.7,0,0,1-4.657,1.658,4.01,4.01,0,0,1-3.247-2.806V271.3a23.07,23.07,0,1,1,34.3,30.622A62.2,62.2,0,0,0,908.117,295.047Z" transform="translate(-293.959 -95.67)" opacity="0.1"/>
      <path id="Path_163" data-name="Path 163" d="M873.542,267.158a4.045,4.045,0,0,1-3.253-2.813c-.186-.729-.138-1.506-.351-2.229-.53-1.781-2.428-2.7-3.7-4.058-2.545-2.7-2.38-7.147-.578-10.4,1.458-2.621,4.278-4.815,7.236-4.32,1.83.316,3.439,1.616,5.269,1.74s3.439-.887,5.042-1.63a19,19,0,0,1,12.532-1.114,7.222,7.222,0,0,1,3.439,1.74,30.077,30.077,0,0,1,1.836,2.579c2.1,2.683,5.881,3.212,9.245,3.818s7.167,1.94,8.254,5.173c.736,2.146,0,4.471-.4,6.7a2.023,2.023,0,0,0,.089,1.376c.53.867,1.843.5,2.834.688,1.905.406,2.394,2.861,2.469,4.815q.117,3.343.179,6.693a8.521,8.521,0,0,1-.2,2.476,8.743,8.743,0,0,1-1.919,3.116l-7.47,8.976c-3.315,3.976-6.83,8.612-6.191,13.757-1.568.688-3.439-.653-3.948-2.3a10.274,10.274,0,0,1,.248-5.1,62.5,62.5,0,0,0,1.2-8.839,9.067,9.067,0,0,0-.516-4.4,3.357,3.357,0,0,0-3.59-2.064c-1.94.454-2.751,2.971-4.664,3.577-1.6.509-3.35-.626-4.127-2.119a10.523,10.523,0,0,1-.784-4.918v-5.675c0-2.064-.069-4.278-1.334-5.895-1.575-2.008-5.282-2.889-7.759-2.806a6.583,6.583,0,0,0-4.423,1.781A5.711,5.711,0,0,1,873.542,267.158Z" transform="translate(-291.245 -89.317)" fill="#413c3c"/>
      <path id="Path_164" data-name="Path 164" d="M885.3,381.92l7.085,29.1S897.97,410.988,885.3,381.92Z" transform="translate(-297.796 -133.073)" opacity="0.1"/>
      <path id="Path_165" data-name="Path 165" d="M917.544,374.85s-9.272,15.187-5.654,30.9l1.726.124S910.535,398.6,917.544,374.85Z" transform="translate(-305.835 -130.866)" opacity="0.1"/>
      <path id="Path_166" data-name="Path 166" d="M929,499.453s11.391-3.769,12.216,4.973C941.243,504.426,939.1,498.435,929,499.453Z" transform="translate(-311.437 -169.511)" opacity="0.1"/>
      <path id="Path_167" data-name="Path 167" d="M872.353,426.81s-2.263,15.82,1.809,22.169a49.61,49.61,0,0,1-19.906,2.717L852.88,426.81Z" transform="translate(-287.675 -147.087)" opacity="0.1"/>
      <path id="Path_168" data-name="Path 168" d="M879.76,446.879l-1.094.612-7.016-15.82,6.562-5.881h.337C878.446,426.574,876.616,440.173,879.76,446.879Z" transform="translate(-293.535 -146.768)" opacity="0.1"/>
      <path id="Path_169" data-name="Path 169" d="M869.384,425.83s-2.263,15.82,1.809,22.162a49.466,49.466,0,0,1-19.906,2.717L843.37,425.83Z" transform="translate(-284.707 -146.781)" fill="#fff"/>
      <path id="Path_170" data-name="Path 170" d="M828.407,801.323a5.124,5.124,0,0,1-4.4,4.485c-6.142.915-20.938,3.254-24.673,5.035-4.753,2.263-23.524.688-24.432-1.582a3.591,3.591,0,0,1,.323-2.751,7.25,7.25,0,0,1,3.033-3.26,8.048,8.048,0,0,1,1.376-.605c3.535-1.176,10.214-3.68,12.016-6.307,0,0,8.33-7.284,10.7-11.219a5.434,5.434,0,0,1,4.347-2.71c1.981-.089,4.189.908,5.1,5.248,0,0,10.847,6.191,13.757.763,0,0,.454,8.337,2.256,10.62h0a3.026,3.026,0,0,1,.592,2.284Z" transform="translate(-263.292 -258.09)" fill="#a27772"/>
      <path id="Path_171" data-name="Path 171" d="M828.407,808.874a5.124,5.124,0,0,1-4.4,4.485c-6.142.915-20.938,3.254-24.673,5.035-4.753,2.263-23.524.688-24.432-1.582a3.591,3.591,0,0,1,.323-2.751,7.25,7.25,0,0,1,3.033-3.26c3.061,2.063,9.857,4.017,24.8,1.685,14.259-2.229,21.323-4.409,24.762-5.895h0a3.027,3.027,0,0,1,.578,2.284Z" transform="translate(-263.292 -265.64)" opacity="0.1"/>
      <g id="Group_4" data-name="Group 4" transform="translate(573.049 163.128)" opacity="0.1">
        <path id="Path_172" data-name="Path 172" d="M942.451,269.768v-.11a20.253,20.253,0,0,0,.688-5.138,33.9,33.9,0,0,1-.688,4.127A2.5,2.5,0,0,0,942.451,269.768Z" transform="translate(-888.666 -259.554)"/>
        <path id="Path_173" data-name="Path 173" d="M904.871,288.686a6.54,6.54,0,0,1,.557,2.586,7.8,7.8,0,0,0-.557-3.6,3.344,3.344,0,0,0-3.584-2.064c-1.94.454-2.751,2.971-4.67,3.577-1.6.509-3.343-.626-4.127-2.119a10.466,10.466,0,0,1-.784-4.925V276.47c0-2.064-.069-4.278-1.334-5.895-1.582-2.015-5.283-2.889-7.759-2.813a6.589,6.589,0,0,0-4.43,1.788,5.715,5.715,0,0,1-4.664,1.658,4.031,4.031,0,0,1-3.247-2.806c-.186-.729-.138-1.513-.351-2.235-.53-1.775-2.428-2.7-3.7-4.051a7.408,7.408,0,0,1-1.905-4.815,7.711,7.711,0,0,0,1.905,5.8c1.273,1.376,3.171,2.277,3.7,4.051.213.688.165,1.506.351,2.235a4.031,4.031,0,0,0,3.247,2.806,5.715,5.715,0,0,0,4.664-1.658,6.589,6.589,0,0,1,4.43-1.788c2.476-.076,6.191.8,7.759,2.813,1.266,1.616,1.328,3.838,1.334,5.895v5.668a10.41,10.41,0,0,0,.784,4.918c.784,1.479,2.511,2.634,4.127,2.125,1.9-.605,2.751-3.123,4.67-3.577A3.474,3.474,0,0,1,904.871,288.686Z" transform="translate(-864.285 -257.3)"/>
        <path id="Path_174" data-name="Path 174" d="M943.239,293.215a8.7,8.7,0,0,1-1.926,3.109l-7.47,8.976c-3.143,3.776-6.466,8.151-6.191,12.973.227-4.423,3.309-8.447,6.191-11.955l7.47-8.976a8.7,8.7,0,0,0,1.926-3.109,8.581,8.581,0,0,0,.2-2.483,6.529,6.529,0,0,1-.2,1.465Z" transform="translate(-884.061 -268.054)"/>
        <path id="Path_175" data-name="Path 175" d="M921.887,327.561a5.293,5.293,0,0,1-.227-1.211,6.1,6.1,0,0,0,.227,2.229c.509,1.637,2.373,2.992,3.948,2.29a9.64,9.64,0,0,1-.082-.99C924.185,330.5,922.369,329.17,921.887,327.561Z" transform="translate(-882.189 -278.855)"/>
      </g>
      <path id="Path_176" data-name="Path 176" d="M812.69,789.36s2.366,4.127,10.937.5" transform="translate(-275.13 -260.262)" opacity="0.1"/>
      <path id="Path_177" data-name="Path 177" d="M918,790.82s7.387,8.7,16.7,2.855" transform="translate(-308.004 -260.717)" opacity="0.1"/>
      <path id="Path_178" data-name="Path 178" d="M946.813,641.23s-5.221,3.26-5.386,5.124,2.7-1.376,2.7-1.376Z" transform="translate(-315.314 -214.021)" opacity="0.1"/>
      <path id="Path_179" data-name="Path 179" d="M948.006,677.59a10.916,10.916,0,0,1-6.431,2.511c-3.907.172-3.577,5.262-1.025,3.735S948.006,677.59,948.006,677.59Z" transform="translate(-314.445 -225.371)" opacity="0.1"/>
      <path id="Path_180" data-name="Path 180" d="M951.64,682.34s-2.5,12.305-4.54,9.932" transform="translate(-317.088 -226.854)" opacity="0.1"/>
      <path id="Path_181" data-name="Path 181" d="M247.06,633.328s15.717,4.313,23.283-1.424,10.847-3.893,10.847-3.893,18.042-1,19.528-5.262-6.92-19.755-6.92-19.755c-.6-1.376-1.472-3.123-1.864-3.123l.083-6.534h0L294.631,566c6.032-15.469.11-35.458.11-35.458l-1.08-4.959a12.546,12.546,0,0,1,1.025-8.254l10.957-22.011a32.945,32.945,0,0,1,2.064-4.223c.688-1.259,1.6-2.813,2.751-4.677.337-.537.688-1.094,1.073-1.678,1.328-2.064,2.937-4.4,4.884-7.1,4.849-6.72,7.4-15.132,8.722-21.323l.585,1.94h.131l.158.034h.261l.282.048h.1l3.37,42.893c.206,16.728,6.349,25.986,6.349,25.986l-.846,36.93c1.156,8.894-1.376,20.752-2.538,25.484l-2.655,5.991a7.2,7.2,0,0,0-3.914,5.448c-.523,4.423-5.179,13.956-5.179,13.956-1.8,2.284-5.716,8.453-5.716,8.453s-1.843,5.957-.7,8.185,10.689,2,10.689,2c10.9,2.414,19.259-3.439,18.73-7.47s1.7-5.056,1.7-5.056c4.333-1.376,3.914-4.313,3.914-4.313a26.991,26.991,0,0,0-3.281-17.567l-.688,1.589a24.191,24.191,0,0,1,1.307-9.375l-.4.275-.124.076h-.041c.688-6.032,7.023-17.2,7.023-17.2,11.638-20.415,7.408-48.08,7.408-48.08l-1.8-8.625-.1-3.253a108.589,108.589,0,0,1,1.754-23.18c.626-3.384,1.273-7.47,1.768-11.975,1.046-9.52,4.416-19.342,5.97-23.5l.461-.083h.055c.633-.11,1.273-.22,1.919-.344h.124s.371-2.008.688-5.427c.186-2.18.337-4.946.337-8.123a91.394,91.394,0,0,0-4.34-28.277l.351-.5s.832-1.128,2.352-3.082h0c2.793-3.549,7.14-8.942,12.5-15.022,9.6-10.943,6.775-22.011,6.775-22.011s-6.947-25.457-10.042-40.741a46.331,46.331,0,0,0-7.621-18.124,36.07,36.07,0,0,0,.963-7.346c.206-4.526.048-9.244-1.988-13.31s-6.369-7.277-10.9-6.734a4.169,4.169,0,0,1-1.953,0,2.971,2.971,0,0,1-1.286-1.121c-2.648-3.652-2.82-8.564-1.995-12.993s2.517-8.667,3.274-13.11.413-9.375-2.414-12.9c-3.322-4.127-9.114-5.289-13.433-8.392-3.033-2.18-5.31-5.31-8.509-7.243s-6.191-1.2-9.664-.468c-5.84,1.231-11.391,1.8-16.914,4.306a45.046,45.046,0,0,0-14.74,10.723,13.991,13.991,0,0,0-3.288,5.186c-1.376,4.547,1.314,9.389.75,14.094-.4,3.336-2.366,6.239-3.928,9.217s-2.751,6.514-1.527,9.63c1.926,4.87,8.206,5.9,12.773,8.495a3.9,3.9,0,0,1,1.513,1.314c1.128,1.967-1.176,4.01-2.628,5.757a8.674,8.674,0,0,0-1.72,3.494,12.464,12.464,0,0,0-7.477,9.024c-1.548,6.927.832,15.669,2.93,21.447-2.29,12.869.688,17.946,2.882,19.892a11.04,11.04,0,0,1,3.824,7.525v.241c.144,2.339.392,4.67.722,7h0c-.076-.543-.151-1.121-.193-1.376-1.8,3.322-5.214,11.81-7.14,26.09a78.418,78.418,0,0,1-1.74,9.086,49.69,49.69,0,0,0-1.458,16.247l.344,4.629a1.458,1.458,0,0,1-.935-.31l2.414,4.423v7.463a27.514,27.514,0,0,1-1.83,9.843c-.172.454-.358.908-.557,1.376a8.006,8.006,0,0,0-.812,4.051c-5.193,7.958-17.1,52.558-17.1,52.558-6.459,14.623.53,24.074.53,24.074s3.384,40.713,4.017,42.818,2.036,26.922,2.036,26.922h0v1.974a4.632,4.632,0,0,0-1.176-.337c-5.661-.316-7.195,8.625-7.195,8.625L255.1,617.219s-5.289-.894-13.069,4.945S247.06,633.328,247.06,633.328Zm115.66-235.3-.034-.124-.316.186h0l-.131.076-.062.041h0l-5.338-18.84a31.283,31.283,0,0,1-.392-15.5l4.127-18.076h0v-4.347L373.691,376.4C374.53,381.112,366.737,392.523,362.72,398.026Z" transform="translate(-96.208 -85.617)" fill="url(#linear-gradient)"/>
      <path id="Path_182" data-name="Path 182" d="M407.849,557s-5.3,12.883-6.645,25.244c-.488,4.457-1.121,8.488-1.74,11.831a108.116,108.116,0,0,0-1.692,22.884l.1,3.212,1.72,8.509s4.127,27.328-7.27,47.461c0,0-6.755,12.058-6.961,17.767l-4.574,1.768-9.245-2.593s4.464-16.006,3.013-27.225l.832-36.455s-6-9.121-6.211-25.629l-3.529-45.3Z" transform="translate(-135.58 -187.727)" fill="#fdc2cc"/>
      <path id="Path_183" data-name="Path 183" d="M338.586,547.62s-1.135,17.664-9.87,29.838-10.593,17.457-10.593,17.457l-10.758,21.749a12.456,12.456,0,0,0-1.011,8.137l1.059,4.9s5.819,19.741-.1,35.018L304.5,694.225H288.092s-1.376-24.521-1.974-26.6-3.948-42.288-3.948-42.288-6.878-9.355-.523-23.792c0,0,14.341-54.029,18.18-53.094S338.586,547.62,338.586,547.62Z" transform="translate(-108.516 -184.799)" fill="#fdc2cc"/>
      <g id="Group_5" data-name="Group 5" transform="translate(194.323 362.821)" opacity="0.1">
        <path id="Path_184" data-name="Path 184" d="M316.59,629.734l-1.052-4.9a12.381,12.381,0,0,1,1-8.172l10.758-21.77s1.864-5.3,10.593-17.457c8.385-11.693,9.767-28.449,9.864-29.735l1.671-.083s-1.135,17.664-9.87,29.838-10.593,17.457-10.593,17.457l-10.758,21.749a12.457,12.457,0,0,0-1.011,8.137l1.059,4.9s5.819,19.741-.1,35.018l-2.806,29.508H313.68l2.806-29.508C322.409,649.44,316.59,629.734,316.59,629.734Z" transform="translate(-313.68 -547.62)"/>
      </g>
      <path id="Path_185" data-name="Path 185" d="M390.16,693.927c.206-5.709,6.961-17.767,6.961-17.767,11.432-20.154,7.27-47.461,7.27-47.461l-1.761-8.515-.1-3.212a108.112,108.112,0,0,1,1.692-22.884c.612-3.343,1.245-7.374,1.733-11.831,1.3-11.9,6.259-24.281,6.624-25.189l1.706-.069s-5.3,12.883-6.645,25.244c-.488,4.457-1.121,8.488-1.74,11.831a108.116,108.116,0,0,0-1.692,22.884l.1,3.212,1.72,8.509s4.127,27.328-7.27,47.461c0,0-6.755,12.058-6.961,17.767l-4.574,1.768-.963-.268Z" transform="translate(-142.013 -187.727)" opacity="0.1"/>
      <path id="Path_186" data-name="Path 186" d="M379.46,754.556a7.951,7.951,0,0,0,7.566-.935,24.418,24.418,0,0,0-.619,13.715c1.871,7.484-17.457-6.025-17.457-6.025l4.127-9.43S374.68,754.865,379.46,754.556Z" transform="translate(-136.61 -248.562)" fill="#d39999"/>
      <path id="Path_187" data-name="Path 187" d="M380.9,754.966a7.723,7.723,0,0,0,6.142-1.376,24.419,24.419,0,0,0-.619,13.715c1.871,7.484-17.457-6.026-17.457-6.026l4.127-9.43a5.9,5.9,0,0,0,4.712,2.655C378.875,754.629,379.893,754.773,380.9,754.966Z" transform="translate(-136.616 -248.552)" opacity="0.1"/>
      <path id="Path_188" data-name="Path 188" d="M289.32,460.214H297.4V414.4l-6.06-1.087Z" transform="translate(-90.319 -129.019)" fill="#fdc2cc"/>
      <path id="Path_189" data-name="Path 189" d="M289.32,460.214H297.4V414.4l-6.06-1.087Z" transform="translate(-90.319 -129.019)" opacity="0.05"/>
      <path id="Path_190" data-name="Path 190" d="M368.491,760.537s5.09-.316,7.374,4.258l2.806,2.18,1.376-3.219a26.826,26.826,0,0,1,3.178,17.354s.413,2.9-3.845,4.258c0,0-2.18,1.039-1.665,4.987s-7.683,9.767-18.386,7.374c0,0-9.355.213-10.5-1.974s.729-8,.729-8,3.845-6.094,5.606-8.343c0,0,4.574-9.423,5.1-13.757S365.788,758.143,368.491,760.537Z" transform="translate(-130.215 -251.008)" fill="#7e5659"/>
      <path id="Path_191" data-name="Path 191" d="M308.477,763.41l.083-6.459s-9.293,2.676-16.818-.351c0,0,.633,6.493-.413,7.38s3.48,9.245,3.48,9.245l5.056,5.3,8.694-3.164,2.359-7.429S309.1,763.41,308.477,763.41Z" transform="translate(-112.33 -250.035)" fill="#d39999"/>
      <path id="Path_192" data-name="Path 192" d="M308.477,763.41l.083-6.459s-9.293,2.676-16.818-.351c0,0,.633,6.493-.413,7.38s3.48,9.245,3.48,9.245l5.056,5.3,8.694-3.164,2.359-7.429S309.1,763.41,308.477,763.41Z" transform="translate(-112.33 -250.035)" opacity="0.1"/>
      <path id="Path_193" data-name="Path 193" d="M275.261,763.1s4.939.571,4.313,6.878.261,0,.261,0,5.248,2.125,7.119,5.09,5.248-2.648,5.5-4.258,2.359-2.277,2.359-2.277,8.254,15.3,6.8,19.514-19.177,5.179-19.177,5.179-3.226-1.816-10.655,3.845-22.857,1.376-22.857,1.376-12.574-5.248-4.932-11.005,12.828-4.884,12.828-4.884L268.2,771.591S269.7,762.78,275.261,763.1Z" transform="translate(-96.833 -252.06)" fill="#7e5659"/>
      <path id="Path_194" data-name="Path 194" d="M354.125,236.529c3.143,1.905,5.379,5,8.357,7.153,4.237,3.061,9.925,4.2,13.186,8.288,2.751,3.48,3.109,8.343,2.366,12.732s-2.407,8.577-3.212,12.952-.64,9.224,1.96,12.828a2.91,2.91,0,0,0,1.259,1.107,4.127,4.127,0,0,0,1.919,0c4.443-.537,8.708,2.641,10.7,6.651s2.153,8.674,1.947,13.145c-.172,3.666-.585,7.408-2.194,10.71-2.751,5.613-8.474,9.079-14.121,11.734a109.375,109.375,0,0,1-11.274,4.553c-2.641.894-5.427,1.7-8.172,1.231-4.7-.812-8.027-5.083-12.484-6.755-3.652-1.376-7.7-.88-11.59-.536-3.315.289-7.105.282-9.389-2.139-2.93-3.109-1.61-8.123-.11-12.127a8.632,8.632,0,0,1-6.108-14.114c1.417-1.727,3.68-3.742,2.572-5.688a3.769,3.769,0,0,0-1.486-1.293c-4.478-2.559-10.648-3.584-12.532-8.385-1.211-3.088-.041-6.583,1.493-9.52s3.439-5.812,3.859-9.1c.55-4.65-2.064-9.43-.736-13.915a13.949,13.949,0,0,1,3.226-5.131,44.27,44.27,0,0,1,14.445-10.586c5.427-2.483,10.868-3.04,16.6-4.251C348.052,235.346,350.9,234.575,354.125,236.529Z" transform="translate(-116.716 -87.302)" fill="#b19549"/>
      <path id="Path_195" data-name="Path 195" d="M324.888,337.756s-13.158-.688-15.648,10.531,5.4,27.286,5.4,27.286Z" transform="translate(-117.819 -119.285)" fill="#fdc2cc"/>
      <path id="Path_196" data-name="Path 196" d="M324.888,337.756s-13.158-.688-15.648,10.531,5.4,27.286,5.4,27.286Z" transform="translate(-117.819 -119.285)" opacity="0.05"/>
      <path id="Path_197" data-name="Path 197" d="M320,358.8l4.987,3.948,23.27,1.039,14.527-9.974,14.775-25.354c-9.031-2.3-12.684-8.543-14.046-14.376a31.475,31.475,0,0,1-.289-12.01s-23.689-12.264-20.779,6.878a26,26,0,0,1,.22,7.112c-1.376,11.212-12.257,9.1-12.257,9.1l-4.175,6.438-4.78,15.82Z" transform="translate(-121.33 -106.941)" fill="#fdc2cc"/>
      <path id="Path_198" data-name="Path 198" d="M352.548,308.923a26,26,0,0,1,.22,7.112,21,21,0,0,0,20.848-1.953,31.474,31.474,0,0,1-.289-12.01S349.638,289.808,352.548,308.923Z" transform="translate(-131.412 -106.939)" opacity="0.1"/>
      <circle id="Ellipse_23" data-name="Ellipse 23" cx="20.986" cy="20.986" r="20.986" transform="translate(209.098 168.191)" fill="#fdc2cc"/>
      <path id="Path_199" data-name="Path 199" d="M334.231,366.857c.509,0,1.011.076,1.513.124,2.751.275,14.245.894,20.793-6.927,7.325-8.749,17.079-19.555,17.478-20l9.925,3s-7.855-2.793-13.069,11.817a15.132,15.132,0,0,0,5.111,17.409,15.724,15.724,0,0,0,6.493,2.751.034.034,0,0,1,0,.034v6.411h0l-4.058,17.884a31,31,0,0,0,.385,15.3l6.19,21.88c-.935.647-39.344,26.771-65,8.729h0c.1-.784,3.267-26.461,1.066-39.028a86.779,86.779,0,0,1-1.149-9.712c0-.083,0-.158,0-.241a10.95,10.95,0,0,0-3.762-7.429c-2.311-2.064-5.441-7.566-2.346-22.107a53.417,53.417,0,0,1,3.439-10.476l8.6-19.445h0l7.931.158v.055c-.688.853-9.884,12.34-10.882,19.741C321.919,363.831,320.715,365.99,334.231,366.857Z" transform="translate(-118.99 -119.001)" fill="#744343"/>
      <path id="Path_200" data-name="Path 200" d="M408.595,349.153S416.354,355.8,419.4,370.9s9.836,40.177,9.836,40.177,2.751,10.943-6.651,21.749-15.655,19.259-15.655,19.259l-6.191,9.121a7.765,7.765,0,0,1-4.457,3.15c-2.82.743-7.154,1.279-10.909-.777a6.356,6.356,0,0,1-2.751-8.027L384,452.37s-12.746,8.034-13.853,3.6,14.823-8.866,14.823-8.866,13.158-2.215,15.82-8.447c0,0,14.128-18.152,13.021-24.384L400.162,377.7s-17.065-2.256-11.246-21.426S408.595,349.153,408.595,349.153Z" transform="translate(-136.966 -121.678)" fill="#fdc2cc"/>
      <path id="Path_201" data-name="Path 201" d="M307.387,528.063s31.173,6.232,38.519,5.4l.791,2.634s11.831,2.648,38.581-1.6q2.621-.413,5.441-.929l.626-.11s.365-1.981.653-5.358c.64-7.669.867-22.52-4.533-37.721l-4.5-13.853s-27.8,16.666-46.209,15.132c-1.644-.138-3.274-.268-4.918-.323-3.776-.144-9.63,0-13.433-3.047l-7.979,1.376v22.7a27.2,27.2,0,0,1-1.8,9.712c-.172.454-.351.9-.55,1.376A7.223,7.223,0,0,0,307.387,528.063Z" transform="translate(-117.356 -162.607)" fill="#65617d"/>
      <path id="Path_202" data-name="Path 202" d="M364.58,552.439V559.5s13.619,3.047,44.647-2.634c0,0,.365-1.981.653-5.358C400.361,553.037,374.107,556.71,364.58,552.439Z" transform="translate(-135.246 -186.013)" opacity="0.1"/>
      <path id="Path_203" data-name="Path 203" d="M307.389,548.747s31.173,6.232,38.519,5.4l.791,2.634v-7.064c-3.549,1.472-28.889-4.636-38.072-6.927-.172.454-.351.9-.55,1.376a7.222,7.222,0,0,0-.688,4.581Z" transform="translate(-117.357 -183.291)" opacity="0.1"/>
      <path id="Path_204" data-name="Path 204" d="M417.31,537.99l2.311,14.335q2.621-.413,5.441-.929c-.722-4.189-2.3-13.757-1.864-15.346l-2.91-2.49Z" transform="translate(-151.706 -180.41)" fill="#65617d"/>
      <path id="Path_205" data-name="Path 205" d="M417.78,537.54l2.311,14.341q2.621-.42,5.441-.929c-.722-4.189-2.3-13.757-1.864-15.346l-2.91-2.5Z" transform="translate(-151.853 -180.27)" opacity="0.1"/>
      <g id="Group_6" data-name="Group 6" transform="translate(199.709 313.902)" opacity="0.05">
        <path id="Path_206" data-name="Path 206" d="M339.531,496.99c-1.637-.138-3.274-.268-4.918-.323-3.673-.138-9.279,0-13.1-2.813l1.334-.234c3.824,3.033,9.63,2.9,13.433,3.047,1.644.055,3.274.186,4.918.323.537.048,1.087.076,1.644.089a30.864,30.864,0,0,1-3.309-.089Z" transform="translate(-321.51 -481.844)"/>
        <path id="Path_207" data-name="Path 207" d="M406.272,534.491q2.621-.413,5.441-.922l.633-.117s.365-1.981.647-5.358c.647-7.669.874-22.52-4.533-37.721L404.223,477.3c.9-.509,1.376-.8,1.376-.8l4.5,13.853c5.4,15.2,5.173,30.052,4.533,37.721-.289,3.377-.653,5.358-.653,5.358l-.626.117q-2.813.509-5.441.922a171.339,171.339,0,0,1-28.029,2.407A176.78,176.78,0,0,0,406.272,534.491Z" transform="translate(-339.731 -476.5)"/>
        <path id="Path_208" data-name="Path 208" d="M360.594,559.3v.076H359.7Q360.209,559.341,360.594,559.3Z" transform="translate(-333.432 -502.347)"/>
      </g>
      <ellipse id="Ellipse_24" data-name="Ellipse 24" cx="1.176" cy="2.421" rx="1.176" ry="2.421" transform="translate(268.3 355.413)" fill="#d39999"/>
      <path id="Path_209" data-name="Path 209" d="M312.314,457.4c1.9-14.1,5.248-22.478,7.016-25.759.069.447.248,1.9.33,2.346.358,2.064.041,4.664.151,7.284l-1.761,31.888,2.359,9.974c2.215,7.9-5.991,1.658-5.991,1.658-1.7,3.742-4.815,3.329-4.815,3.329l-.426-5.723a49.428,49.428,0,0,1,1.431-16.047,76.461,76.461,0,0,0,1.706-8.949Z" transform="translate(-117.908 -148.594)" fill="#fdc2cc"/>
      <path id="Path_210" data-name="Path 210" d="M312.314,457.4c1.9-14.1,5.248-22.478,7.016-25.759.069.447.248,1.9.33,2.346.358,2.064.041,4.664.151,7.284l-1.761,31.888,2.359,9.974c2.215,7.9-5.991,1.658-5.991,1.658-1.7,3.742-4.815,3.329-4.815,3.329l-.426-5.723a49.428,49.428,0,0,1,1.431-16.047,76.461,76.461,0,0,0,1.706-8.949Z" transform="translate(-117.908 -148.594)" opacity="0.05"/>
      <path id="Path_211" data-name="Path 211" d="M410.812,487.688c-1.493,1.933-2.311,3.04-2.311,3.04l-6.191,9.114a7.731,7.731,0,0,1-4.457,3.15c-2.82.743-7.154,1.286-10.909-.777a6.342,6.342,0,0,1-2.751-8.02L385.568,491s-12.746,8.034-13.853,3.6,14.823-8.866,14.823-8.866,13.158-2.215,15.82-8.453c0,0,1.149-1.472,2.751-3.728" transform="translate(-137.456 -161.68)" fill="#fdc2cc"/>
      <path id="Path_212" data-name="Path 212" d="M407.311,511.734s-15.07-1.465-19.844-10.084l-2.187,7.119s15.82,10.923,19.431,9.506Z" transform="translate(-141.708 -170.449)" fill="#65617d"/>
      <path id="Path_213" data-name="Path 213" d="M406.534,511.631s-15.064-1.465-19.844-10.091l-2.18,7.1s15.82,10.923,19.424,9.506Z" transform="translate(-141.467 -170.415)" opacity="0.1"/>
      <path id="Path_214" data-name="Path 214" d="M314.714,510.46s-5.276,1.871-6.314.832l2.373,4.368,4.485-3.439Z" transform="translate(-117.708 -173.199)" fill="#65617d"/>
      <path id="Path_215" data-name="Path 215" d="M314.714,510.46s-5.276,1.871-6.314.832l2.373,4.368,4.485-3.439Z" transform="translate(-117.708 -173.199)" opacity="0.1"/>
      <path id="Path_216" data-name="Path 216" d="M332.437,528.584V519.47L330.27,528.8Z" transform="translate(-103.102 -162.159)" opacity="0.1"/>
      <path id="Path_217" data-name="Path 217" d="M374.044,270.1a8.094,8.094,0,0,1-5.654,2.978,44.549,44.549,0,0,1-6.569,0c-3.439-.055-7.1.475-9.912,2.5a25.2,25.2,0,0,0-4.547,4.815c-4.251,5.193-10.152,10.056-16.852,9.513a4.368,4.368,0,0,1-3.13-1.321,5.021,5.021,0,0,1-.8-2.847,65.1,65.1,0,0,1,.406-12.835,27.061,27.061,0,0,1,1.94-7.656,26.137,26.137,0,0,1,4.664-6.658,28.524,28.524,0,0,1,8.137-6.521,14.6,14.6,0,0,1,10.18-1.314c4.01,1.094,7.133,4.23,10.957,5.847C367.234,258.437,378.831,263.342,374.044,270.1Z" transform="translate(-123.339 -92.007)" opacity="0.1"/>
      <path id="Path_218" data-name="Path 218" d="M374.044,268.89a8.094,8.094,0,0,1-5.654,2.978,44.549,44.549,0,0,1-6.569,0c-3.439-.062-7.1.468-9.912,2.49a25.2,25.2,0,0,0-4.547,4.815c-4.251,5.193-10.152,10.056-16.852,9.513a4.34,4.34,0,0,1-3.13-1.321,5,5,0,0,1-.8-2.848,65.1,65.1,0,0,1,.406-12.835,27.06,27.06,0,0,1,1.94-7.656,25.959,25.959,0,0,1,4.664-6.651,28.428,28.428,0,0,1,8.137-6.528,14.6,14.6,0,0,1,10.18-1.314c4.01,1.094,7.133,4.23,10.957,5.847C367.234,257.224,378.831,262.115,374.044,268.89Z" transform="translate(-123.339 -91.626)" fill="#b19549"/>
      <path id="Path_219" data-name="Path 219" d="M292.019,473.47l-.055,2.511-.564-2.4Z" transform="translate(-90.969 -147.799)" fill="#fdc2cc"/>
      <path id="Path_220" data-name="Path 220" d="M292.019,473.47l-.055,2.511-.564-2.4Z" transform="translate(-90.969 -147.799)" opacity="0.05"/>
      <g id="Group_7" data-name="Group 7" transform="translate(250.385 224.325)" opacity="0.05">
        <path id="Path_221" data-name="Path 221" d="M398.9,355.226c-5.826,19.17,11.157,21.419,11.157,21.419L423.7,413.217c1.107,6.232-13.028,24.384-13.028,24.384-.984,2.325-3.439,4.093-6.122,5.4a9.589,9.589,0,0,0,3.632-3.989s14.128-18.145,13.021-24.377l-13.647-36.579s-16.976-2.249-11.157-21.419c1.947-6.4,4.815-9.32,7.718-10.366C402.115,347.88,400.278,350.665,398.9,355.226Z" transform="translate(-395.184 -346.27)"/>
      </g>
      <g id="Group_8" data-name="Group 8" transform="translate(193.565 217.832)" opacity="0.1">
        <path id="Path_222" data-name="Path 222" d="M401,384.61a14.334,14.334,0,0,0,2.751,2.607,15.635,15.635,0,0,0,6.493,2.751v.722a15.586,15.586,0,0,1-5.888-2.607A14.272,14.272,0,0,1,401,384.61Z" transform="translate(-340.18 -351.745)"/>
        <path id="Path_223" data-name="Path 223" d="M323.166,421.742v.241a88.842,88.842,0,0,0,1.183,9.747c2.063,11.858-.64,35.4-1.025,38.656-.22-.144-.44-.282-.688-.44.1-.784,3.274-26.461,1.073-39.021a87.157,87.157,0,0,1-1.149-9.712v-.241a10.613,10.613,0,0,0-1.85-5.262A10.7,10.7,0,0,1,323.166,421.742Z" transform="translate(-315.116 -361.453)"/>
        <path id="Path_224" data-name="Path 224" d="M333.29,337.772l-6.727-.131a.034.034,0,0,0-.034,0l-8.6,19.438a53.591,53.591,0,0,0-3.439,10.476c-2.5,11.762-.929,17.622.984,20.518-2.153-2.538-4.375-8.323-1.6-21.323a53.022,53.022,0,0,1,3.4-10.483l8.66-19.438h0l7.931.158v.048C333.806,337.119,333.593,337.38,333.29,337.772Z" transform="translate(-312.577 -336.83)"/>
        <path id="Path_225" data-name="Path 225" d="M416.39,345.87l.117.034Z" transform="translate(-344.984 -339.652)"/>
        <path id="Path_226" data-name="Path 226" d="M386.469,344.411l-6.741-2.029h-.034c-.4.44-10.146,11.246-17.471,20-6.548,7.821-18.028,7.209-20.793,6.933-.5-.055-1.011-.1-1.513-.131-7.518-.481-10.476-1.376-11.466-3.274,1.41,1.376,4.512,2.064,10.84,2.449.509,0,1.011.076,1.513.124,2.751.275,14.245.887,20.793-6.927,7.325-8.756,17.079-19.562,17.478-20h0l9.809,2.971a6.128,6.128,0,0,0-2.414-.11Z" transform="translate(-317.532 -338.303)"/>
      </g>
      <path id="Path_227" data-name="Path 227" d="M291.629,776.959s-9.492,2.593-11.329-1.479" transform="translate(-108.937 -255.929)" opacity="0.1"/>
      <path id="Path_228" data-name="Path 228" d="M378.23,774.094s-11.005,2.841-13.55-1.555" transform="translate(-135.277 -255.011)" opacity="0.1"/>
      <path id="Path_267" data-name="Path 267" d="M607.548,857s-.922,3.824-4.388.977" transform="translate(-209.722 -281.376)" fill="none" stroke="#3f2b3b" stroke-miterlimit="10" stroke-width="1"/>
      <ellipse id="Ellipse_29" data-name="Ellipse 29" cx="18.523" cy="3.13" rx="18.523" ry="3.13" transform="translate(113.95 489.403)" fill="#6c63ff" opacity="0.1"/>
      <ellipse id="Ellipse_30" data-name="Ellipse 30" cx="18.523" cy="3.13" rx="18.523" ry="3.13" transform="translate(40.977 533.789)" fill="#6c63ff" opacity="0.1"/>
      <ellipse id="Ellipse_31" data-name="Ellipse 31" cx="27.658" cy="4.677" rx="27.658" ry="4.677" transform="translate(12.556 492.533)" fill="#6c63ff"/>
      <path id="Path_281" data-name="Path 281" d="M71.763,726.1a8,8,0,0,1-2.641-3.976,3.545,3.545,0,0,1,1.843-4.051c1.692-.647,3.5.523,4.87,1.706s2.944,2.538,4.739,2.291a7.215,7.215,0,0,1-2.229-6.755,2.752,2.752,0,0,1,.619-1.376c.935-1,2.641-.571,3.769.22,3.57,2.517,4.574,7.374,4.588,11.748a21.668,21.668,0,0,0,.069-4.815c.007-1.6.454-3.439,1.816-4.278a5.5,5.5,0,0,1,2.751-.688c1.61-.055,3.4.1,4.5,1.279,1.376,1.458,1.011,3.914-.179,5.5a17.984,17.984,0,0,1-4.65,3.728A10.262,10.262,0,0,0,88.3,729.8a3.242,3.242,0,0,0-.248.564H78a27.817,27.817,0,0,1-6.239-4.271Z" transform="translate(-42.988 -236.534)" fill="#6c63ff"/>
      <ellipse id="Ellipse_32" data-name="Ellipse 32" cx="18.523" cy="3.13" rx="18.523" ry="3.13" transform="translate(689.827 515.582)" fill="#6c63ff" opacity="0.1"/>
      <path id="Path_282" data-name="Path 282" d="M1042.91,750.519s10.565-.323,13.757-2.593,16.247-4.973,17.038-1.334,15.882,18.083,3.948,18.18-27.713-1.857-30.891-3.8S1042.91,750.519,1042.91,750.519Z" transform="translate(-346.996 -246.355)" fill="#a8a8a8"/>
      <path id="Path_283" data-name="Path 283" d="M1077.859,766.1c-11.927.1-27.713-1.857-30.891-3.8-2.421-1.472-3.384-6.761-3.707-9.2h-.351s.688,8.522,3.845,10.455,18.964,3.893,30.891,3.8c3.439,0,4.636-1.252,4.567-3.068C1081.738,765.412,1080.425,766.1,1077.859,766.1Z" transform="translate(-346.996 -248.943)" opacity="0.2"/>
    </g>
    <g id="undraw_doll_play_evbw" transform="translate(163 558.354)">
      <ellipse id="Ellipse_1" data-name="Ellipse 1" cx="192.773" cy="16.877" rx="192.773" ry="16.877" transform="translate(0 209.436)" fill="#f2f2f2"/>
      <path id="Path_3" data-name="Path 3" d="M178.932,649.594c-1.125-2.066.15-4.6,1.609-6.443s3.229-3.75,3.192-6.109c-.056-3.375-3.638-5.367-6.5-7.16a31.5,31.5,0,0,1-5.836-4.692,8.551,8.551,0,0,1-1.793-2.4,9.732,9.732,0,0,1-.54-4.264q.191-7.223.716-14.436" transform="translate(-137.902 -424.718)" fill="none" stroke="#3f3d56" stroke-miterlimit="10" stroke-width="4"/>
      <path id="Path_4" data-name="Path 4" d="M156.475,595.026a5.251,5.251,0,0,1,2.625-4.313l1.178,2.333-.038-2.824a5.332,5.332,0,0,1,1.736-.21,5.251,5.251,0,1,1-5.506,5.014Z" transform="translate(-130.038 -415.916)" fill="#57b894"/>
      <path id="Path_5" data-name="Path 5" d="M180.57,685.618a5.251,5.251,0,1,0-.255-4.238l3.289,2.674-3.6-.829a5.251,5.251,0,0,0,.57,2.393Z" transform="translate(-144.746 -470.883)" fill="#57b894"/>
      <path id="Path_6" data-name="Path 6" d="M180.115,653.6a5.251,5.251,0,0,0,1.669-10.325l.03,2.168-1.193-2.359h0a5.251,5.251,0,0,0-5.5,5.011,5.19,5.19,0,0,0,.225,1.8,5.251,5.251,0,0,0,4.771,3.709Z" transform="translate(-141.691 -449.081)" fill="#57b894"/>
      <path id="Path_7" data-name="Path 7" d="M146.019,630.967a5.251,5.251,0,1,0-2.329-9.852l.93,2.55-1.913-1.838a5.251,5.251,0,0,0-1.7,3.634,5.171,5.171,0,0,0,.131,1.451,5.251,5.251,0,0,0,4.879,4.054Z" transform="translate(-120.374 -434.954)" fill="#57b894"/>
      <path id="Path_8" data-name="Path 8" d="M157.386,601.23c1.215.131,2.4.51,3.615.585a3.932,3.932,0,0,0,3.33-1.163,16.287,16.287,0,0,0,.971-1.714,3.751,3.751,0,0,1,1.328-1.249,5.251,5.251,0,1,1-9.841,3.492A3.709,3.709,0,0,1,157.386,601.23Z" transform="translate(-130.241 -420.718)" opacity="0.1"/>
      <path id="Path_9" data-name="Path 9" d="M146.268,635.961a5.251,5.251,0,0,0,5.007-7.5,3.888,3.888,0,0,0-1.058,1.058,17.22,17.22,0,0,1-1.043,1.74,4.312,4.312,0,0,1-3.492,1.223c-1.271-.056-2.5-.42-3.75-.536-.176,0-.353-.026-.533-.03a5.251,5.251,0,0,0,4.868,4.047Z" transform="translate(-120.622 -439.948)" opacity="0.1"/>
      <path id="Path_10" data-name="Path 10" d="M180.482,658.781a5.251,5.251,0,0,0,5.048-7.411,4.306,4.306,0,0,0-1.125,1.069c-.409.578-.664,1.245-1.125,1.778a4.886,4.886,0,0,1-3.724,1.305c-1.343-.03-2.562-.349-3.855-.45A5.251,5.251,0,0,0,180.482,658.781Z" transform="translate(-142.058 -454.266)" opacity="0.1"/>
      <path id="Path_11" data-name="Path 11" d="M181.52,691.224a5.257,5.257,0,0,0,9.6-4.294,5.189,5.189,0,0,0-1.155,1.031,22.89,22.89,0,0,1-1.41,1.875,6.556,6.556,0,0,1-4.362,1.534,22.5,22.5,0,0,1-2.67-.146Z" transform="translate(-145.696 -476.489)" opacity="0.1"/>
      <path id="Path_12" data-name="Path 12" d="M190.806,715.33s-4.156-.127-5.408-1.02-6.376-1.954-6.7-.525-6.245,7.126-1.556,7.148,10.9-.728,12.151-1.5S190.806,715.33,190.806,715.33Z" transform="translate(-141.837 -492.835)" fill="#656380"/>
      <path id="Path_13" data-name="Path 13" d="M177.087,724.159c4.692.038,10.9-.75,12.148-1.5.953-.581,1.331-2.659,1.459-3.619h.139s-.263,3.353-1.5,4.126-7.46,1.526-12.151,1.5c-1.354,0-1.819-.491-1.793-1.2C175.565,723.9,176.078,724.148,177.087,724.159Z" transform="translate(-141.863 -496.556)" opacity="0.2"/>
      <path id="Path_14" data-name="Path 14" d="M684.438,348.739c4.148,3.173,6.586,8.217,7.4,13.374.24,1.5.353,3.06.6,4.583a26.7,26.7,0,0,0,9.1,16.052,4.876,4.876,0,0,1-4.553-.124,31.024,31.024,0,0,0,5.731,11.716,23.913,23.913,0,0,1-8.007-6.571,20.155,20.155,0,0,0,4.073,15.411A16.1,16.1,0,0,1,690.192,393l3.578,9.436c-2.25-.641-3.863-2.55-5.157-4.5a36.537,36.537,0,0,1-5.839-24.528c.443-3.612,1.429-7.16,1.59-10.794s-.653-7.538-3.255-10.085a11.633,11.633,0,0,0-7.407-3c-1.7-.12-6.087,1.234-4.425-1.819C671.818,343.05,681.479,346.478,684.438,348.739Z" transform="translate(-450.29 -263.042)" fill="#d8b860"/>
      <path id="Path_15" data-name="Path 15" d="M674.06,344.625l2.145,5.131c.938.75,1.425-.72,1.755-.4a8.724,8.724,0,0,1,1.125,1.4l.116-.064-3.147-7.028C674.971,342.712,674.435,344.059,674.06,344.625Z" transform="translate(-453.511 -261.756)" fill="#6c63ff"/>
      <ellipse id="Ellipse_2" data-name="Ellipse 2" cx="23.054" cy="22.188" rx="23.054" ry="22.188" transform="translate(185.678 79.411)" fill="#d8b860"/>
      <path id="Path_16" data-name="Path 16" d="M499.851,692.124c-4.624-.341-9.376-.671-13.794.78-1.639.54-3.308,1.331-5.011,1.043-1.8-.3-3.165-1.744-4.388-3.1a11.882,11.882,0,0,1-3.154-4.973,6.833,6.833,0,0,1,.555-4.429,1.823,1.823,0,0,1,.416-.615,2.028,2.028,0,0,1,1.436-.319c4.336.184,8.7,1.253,12.969.5,2.5-.443,7.426-2.28,8.885.878C498.381,683.191,497.35,691.94,499.851,692.124Z" transform="translate(-328.08 -472.202)" fill="#ff0090"/>
      <path id="Path_17" data-name="Path 17" d="M373.8,627.853a128.1,128.1,0,0,0-16.78,6.3L344.8,639.409l3.612,8.941c.311.75-.278.705.473,1.043.833.375,2.753.893,3.608.566,8.232-3.147,17.7-1.346,25.983-4.365,3.049-1.125,5.9-2.869,9.106-3.375,3.75-.6,7.722.555,11.353-.589a1.876,1.876,0,0,0,1.005-.611,1.9,1.9,0,0,0,.21-1.208,20.087,20.087,0,0,0-2.869-8.652c-.994-1.755-2.58-5.251-4.557-6.106-2.232-.956-6.59.443-8.915.788A85.846,85.846,0,0,0,373.8,627.853Z" transform="translate(-247.738 -437.613)" fill="#ffc1c7"/>
      <path id="Path_18" data-name="Path 18" d="M322.485,673.666c-4.538.941-9.211,1.943-13.044,4.549-1.429.971-2.813,2.19-4.531,2.382-1.815.2-3.522-.8-5.071-1.774a11.848,11.848,0,0,1-4.4-3.912,6.852,6.852,0,0,1-.686-4.414,1.841,1.841,0,0,1,.229-.7,2.01,2.01,0,0,1,1.3-.7,75.811,75.811,0,0,0,13.824-4.756c2.28-1.125,5.288-2.58,7.561.052C318.6,665.483,320.021,674.2,322.485,673.666Z" transform="translate(-216.392 -461.478)" fill="#ff0090"/>
      <path id="Path_19" data-name="Path 19" d="M621.381,451.845a7.161,7.161,0,0,0-.356,2.738v6.923a8.656,8.656,0,0,0,.349,2.948,7.648,7.648,0,0,0,2.363,3,32.444,32.444,0,0,0,10.655,6.143,11.367,11.367,0,0,0,6.773.641,11.6,11.6,0,0,0,3.514-1.905,39.726,39.726,0,0,0,7.775-7.482c2.25-2.877,4.2-6.59,3.079-10.074a12.249,12.249,0,0,1-9.114-8.183c-.431-1.373-.641-2.88-1.545-4-1.935-2.393-5.686-1.721-8.626-.825-2.854.866-7.812,1.369-9.927,3.544-.836.859-1.155,2.269-1.973,3.207C623.365,449.666,621.981,450.378,621.381,451.845Z" transform="translate(-420.357 -322.763)" fill="#ffc1c7"/>
      <path id="Path_20" data-name="Path 20" d="M621.381,451.845a7.161,7.161,0,0,0-.356,2.738v6.923a8.656,8.656,0,0,0,.349,2.948,7.648,7.648,0,0,0,2.363,3,32.444,32.444,0,0,0,10.655,6.143,11.367,11.367,0,0,0,6.773.641,11.6,11.6,0,0,0,3.514-1.905,39.726,39.726,0,0,0,7.775-7.482c2.25-2.877,4.2-6.59,3.079-10.074a12.249,12.249,0,0,1-9.114-8.183c-.431-1.373-.641-2.88-1.545-4-1.935-2.393-5.686-1.721-8.626-.825-2.854.866-7.812,1.369-9.927,3.544-.836.859-1.155,2.269-1.973,3.207C623.365,449.666,621.981,450.378,621.381,451.845Z" transform="translate(-420.357 -322.763)" opacity="0.05"/>
      <circle id="Ellipse_3" data-name="Ellipse 3" cx="18.591" cy="18.591" r="18.591" transform="translate(195.965 91.683)" fill="#ffc1c7"/>
      <path id="Path_21" data-name="Path 21" d="M753.653,538.348c.968,1.38,1.808,2.847,2.817,4.2a41.2,41.2,0,0,0,7.5,7.126l15.347,12.286c4.283,3.432,8.806,6.976,14.2,7.97,1.841.341,4.021.244,5.2-1.2,1.38-1.7.566-4.377-1.043-5.858s-3.777-2.145-5.761-3.064c-8.386-3.9-13.464-12.377-19.367-19.5-5.187-6.252-11.281-11.683-16.937-17.511-6-6.2-10.749-13.385-16.476-19.727-2.738,2.28-5.858,6.908-6.473,10.5-.551,3.21,1.286,5.562,3.375,7.793C741.591,527.344,748.919,531.612,753.653,538.348Z" transform="translate(-490.074 -361.579)" fill="#ffc1c7"/>
      <path id="Path_22" data-name="Path 22" d="M738.823,480.2c-.068,5.3-4.572,9.515-5.731,14.683a17.381,17.381,0,0,1-.608,2.52,8.774,8.774,0,0,1-2.348,3.057,11.69,11.69,0,0,1-5.453,3.237c-.251.049.75-17.376,1.1-18.992C726.877,479.469,734.457,480.669,738.823,480.2Z" transform="translate(-485.123 -347.292)" fill="#ff6584"/>
      <path id="Path_23" data-name="Path 23" d="M522.987,466.169a22.436,22.436,0,0,0,1.466,9.185,10.819,10.819,0,0,0,6.537,6.282,16.442,16.442,0,0,0,4.909.443,12.664,12.664,0,0,0,3.945-.491c2.524-.87,4.268-3.218,5.281-5.686s1.444-5.131,2.277-7.662c.435-1.331,1.241-2.824,2.625-2.948a3.949,3.949,0,0,1,2.423.938l7.5,5.082c1.5,8.57-.037,17.485-3.147,25.608a38.907,38.907,0,0,0-2.5,7.392c-.874,5.288,1.343,10.531,3.132,15.587,1.305,3.683,2.4,7.437,3.5,11.188l2.764,9.455c.641,2.2,1.29,4.5.818,6.751s-2.479,4.347-4.756,4.084c-.634-.071-1.32-.307-1.875,0-1.354.75.154,2.787.03,4.336-.158,2-2.869,2.434-4.876,2.389-9.969-.221-19.81,1.928-29.692,3.237s-20.215,1.733-29.546-1.774a73.545,73.545,0,0,1-11.368-5.862c-6.957-4.125-14.312-8.656-17.728-15.984-1.5-3.207-2.149-6.8-4.062-9.777-1.05-1.643-2.5-3.139-2.817-5.063-.443-2.708,1.635-5.307,4.125-6.447s5.337-1.181,8.078-1.32,5.626-.446,7.876-2c2.449-1.676,3.949-4.651,6.672-5.836a24.29,24.29,0,0,1,3.675-.926,17.453,17.453,0,0,0,4.722-2.119,34.805,34.805,0,0,0,15.909-34.1,27.18,27.18,0,0,1-.375-3.975,1.2,1.2,0,0,1,.128-.66,1.05,1.05,0,0,1,.54-.356c1.733-.638,3.7-.3,5.453-.87,1.328-.435,2.438-1.361,3.717-1.924s2.963-.671,3.9.375C523.115,463.649,523.006,464.883,522.987,466.169Z" transform="translate(-318.34 -335.868)" fill="#ff6584"/>
      <path id="Path_24" data-name="Path 24" d="M611.889,381.092c-1.324-4.726-7.336-7.538-8.221-12.343a8.3,8.3,0,0,1,2.472-7,22.891,22.891,0,0,1,6.53-4.384c3.48-1.751,7.28-3.375,11.251-3.019,4.1.375,9.327,1.1,12.508,3.615,2.25,1.778,2.873,5.476,3.567,8.131a6.68,6.68,0,0,1-2.779,7.126c-2.625,1.748-6.173,1.62-9.44,1.631s-6.912.413-8.926,2.779c-1.1,1.294-1.526,2.978-2.325,4.456s-2.273,2.873-4.054,2.727Z" transform="translate(-409.454 -268.609)" fill="#d8b860"/>
      <path id="Path_25" data-name="Path 25" d="M538.5,512.171a23,23,0,0,0-3,6.068,12.969,12.969,0,0,0,1.916,10.3,17.564,17.564,0,0,0,8.424,6.473c1.335.51,2.719.885,4.039,1.433,5.866,2.434,10.22,8.172,16.468,9.327a4.662,4.662,0,0,0,2.655-.128c2-.848,2.352-3.473,2.412-5.626a6.676,6.676,0,0,0-.428-3.177,5.659,5.659,0,0,0-1.721-1.875c-4.471-3.424-10.19-4.726-15.088-7.5-2.3-1.3-4.591-3.222-4.9-5.843-.334-2.869,1.789-5.356,3.477-7.7,4.148-5.772,7.673-15.111,5.682-22.3-2.805-10.126-9.714,4.171-11.559,7.126Q542.7,505.454,538.5,512.171Z" transform="translate(-366.689 -352.196)" fill="#ffc1c7"/>
      <path id="Path_26" data-name="Path 26" d="M568.046,475.412a39.9,39.9,0,0,0-2.7,4.073,17.031,17.031,0,0,1-4.876,4.786c2.16-.225,4.6-.375,6.211,1.091,1.361,1.226,1.676,3.21,2.562,4.816a5.926,5.926,0,0,0,3.1,2.772,4.306,4.306,0,0,0,4.043-.548c1.737-1.35,1.928-3.859,1.973-6.061l.079-3.96c.03-1.474,0-3.09-.945-4.212a8.775,8.775,0,0,0-2.22-1.553C572.3,474.782,571.4,471.568,568.046,475.412Z" transform="translate(-382.522 -343.172)" fill="#ff6584"/>
      <path id="Path_27" data-name="Path 27" d="M602.284,409.315c.506-2.093-.911-4.268-.533-6.376a3.908,3.908,0,0,1,1.781-2.6c.521-.319,1.125-.51,1.654-.8a4.981,4.981,0,0,0,2.1-6.132c-.773-1.774-2.513-2.907-4.227-3.8-1.819-.949-4.035-1.74-5.851-.788-2.205,1.159-2.517,4.125-2.547,6.631a19.987,19.987,0,0,0,.551,6.091,16.364,16.364,0,0,0,3.263,5.723C598.736,407.541,601.943,410.747,602.284,409.315Z" transform="translate(-403.885 -289.916)" fill="#d8b860"/>
      <path id="Path_28" data-name="Path 28" d="M562.009,436.975c-1.691,5.116-7.5,7.242-11.566,10.876a5.317,5.317,0,0,0,.3-1.8c0-1.5-.375-3,.053-4.441a16.99,16.99,0,0,1-8.626,5.521l-1.643-16.551a19.176,19.176,0,0,1-10.73,11.81c4.658-8.345,6.076-18.043,7.576-27.48a68.3,68.3,0,0,1,1.56-7.876,35.443,35.443,0,0,1,4.234-9.489,22.754,22.754,0,0,1,4.125-4.876c1.609-1.35,3.428-2.288,5.206-1.958h0c3.068.578,1.834,2.082,0,3.462-1.455,1.088-3.293,2.1-3.728,2.539a4.427,4.427,0,0,0-1.076,1.77c-.705,2.149.052,4.876.975,7.1a101.992,101.992,0,0,0,8.581,16.359A44.572,44.572,0,0,1,561.379,429,11.438,11.438,0,0,1,562.009,436.975Z" transform="translate(-363.355 -291.323)" fill="#d8b860"/>
      <path id="Path_29" data-name="Path 29" d="M578.657,391.815l.5,5.539c-.484,1.088-1.594.026-1.736.465a8.589,8.589,0,0,0-.375,1.766h-.131l-.5-7.685C576.961,390.547,578.064,391.5,578.657,391.815Z" transform="translate(-392.484 -291.668)" fill="#6c63ff"/>
      <path id="Path_284" data-name="Path 284" d="M581.336,757.091c.158-1.376.385-2.751.633-4.127a28.765,28.765,0,0,0-1.376-13.949h0c-.255-.722-.44-1.128-.44-1.128-4.382-1.2-21.653,12.2-27.947,17.251-2.18,0-4.547.1-7.133.268-1.128.083-2.256.11-3.384.089h-4.127c-5.84-4.7-23.916-18.854-28.415-17.629,0,0-.186.406-.44,1.128h0a28.264,28.264,0,0,0-1.41,13.949c.248,1.376.475,2.751.633,4.127.337,3.02,1.6,8.818,6.191,12.732.984,7.154,4.664,16.556,7.5,22.265a15.939,15.939,0,0,0,.963,3.143c-1.169,4.512-2.518,10.4-2.132,12.381,0,0-6.108-1.479-6.727,5.874v.227c-2.208,1.011-4.966,3.329-1.864,8.185a3.185,3.185,0,0,0,1.6,1.3c.55.193,1.087.193,1.032-.578l3.818,4.3s6.92.8,7-3.219l.406.062c.929.138,1.9.255,2.9.358l.481,1.589s-5.193-.11-3.776,3.088c0,0,1.307,1.211,1.754.77,0,0-.688,2.1,2.022,2.1,0,0,2.91,1.541,4.045.44s3.487-2.751,3.707-3.439c.062-.186.089-1.816.1-4.072h.447c5.8.138,11.955-.048,17.554-.351h.454c0,2.442.034,4.244.1,4.437.227.688,2.586,2.318,3.714,3.439s4.038-.44,4.038-.44c2.7,0,2.022-2.1,2.022-2.1.454.44,1.761-.77,1.761-.77,1.417-3.2-3.783-3.088-3.783-3.088l.619-2.064,2.868-.241.454-.041c-.275,4.368,7,3.529,7,3.529l3.824-4.3c-.062.77.475.77,1.025.578a3.157,3.157,0,0,0,1.548-1.314c4.684-7.325-3.969-8.88-3.969-8.88a4.246,4.246,0,0,0-.819-.131,1.412,1.412,0,0,1,.034-.378h0a15.1,15.1,0,0,0,.055-2.9c-.323-1.328-2.456-3.439-5.152-3.749-1.761-.22-1.8-8.309-1.616-13.915a16,16,0,0,0,.275-3.192,16.837,16.837,0,0,0-.688-5.111c3.439-5.833,6.19-11.948,6.5-13.757C579.734,765.888,581,760.111,581.336,757.091Z" transform="translate(-233.526 -598.152)" fill="url(#linear-gradient-2)"/>
      <path id="Path_285" data-name="Path 285" d="M578.218,835.447h0c-.275,3.811-1.011,9.925-1.011,9.925s-3.061.371-7.793.8l-3.212.275c-2.462.2-5.228.392-8.151.557-5.4.3-11.329.481-16.921.344-2.793-.062-5.5-.206-8.013-.454-1.121-.11-2.208-.241-3.24-.392-6.411-.956-11.005-2.786-11.4-6a18.573,18.573,0,0,1-.144-4.127c.6-7.222,6.479-5.764,6.479-5.764-.378-1.995,1.046-8.192,2.2-12.677.729-2.827,1.376-4.973,1.376-4.973l41.353-2.751h.138a2.022,2.022,0,0,1,2.022,2.125c-.248,4.959-.6,16.315,1.431,16.57,2.6.323,4.657,2.38,4.973,3.68A15.432,15.432,0,0,1,578.218,835.447Z" transform="translate(-237.066 -620.759)" fill="#6c63ff"/>
      <path id="Path_286" data-name="Path 286" d="M540.155,759.208s-15.593,18.771-23.1,13.571c-.179-.124-.351-.248-.516-.378-5.049-3.824-6.376-9.987-6.727-13.117-.151-1.376-.371-2.7-.612-4.045a28.085,28.085,0,0,1,1.376-13.695h0c.248-.688.42-1.107.42-1.107C516.184,738.992,540.155,759.208,540.155,759.208Z" transform="translate(-234.123 -598.955)" fill="#6c63ff"/>
      <path id="Path_287" data-name="Path 287" d="M531.761,761.477s-4.911,3.439-11.838,9.093a25.015,25.015,0,0,1-3.439,2.366c-5.049-3.824-6.376-9.987-6.727-13.117-.151-1.376-.371-2.7-.612-4.044a28.086,28.086,0,0,1,1.376-13.695h0C520.233,742.754,531.761,761.477,531.761,761.477Z" transform="translate(-234.108 -599.491)" fill="#6c63ff"/>
      <path id="Path_288" data-name="Path 288" d="M531.761,761.477s-4.911,3.439-11.838,9.093a25.015,25.015,0,0,1-3.439,2.366c-5.049-3.824-6.376-9.987-6.727-13.117-.151-1.376-.371-2.7-.612-4.044a28.086,28.086,0,0,1,1.376-13.695h0C520.233,742.754,531.761,761.477,531.761,761.477Z" transform="translate(-234.108 -599.491)" fill="#fff" opacity="0.5"/>
      <path id="Path_289" data-name="Path 289" d="M528.872,762.892s-2.621,1.85-6.321,4.856a13.311,13.311,0,0,1-1.816,1.259,10.125,10.125,0,0,1-3.59-7c-.076-.729-.193-1.444-.323-2.167a15.035,15.035,0,0,1,.763-7.3h0C522.722,752.9,528.872,762.892,528.872,762.892Z" transform="translate(-236.563 -602.756)" opacity="0.1"/>
      <path id="Path_290" data-name="Path 290" d="M569.05,759.208s15.593,18.771,23.1,13.571c.172-.124.351-.248.516-.378,5.049-3.824,6.376-9.987,6.727-13.117.151-1.376.371-2.7.605-4.045a28,28,0,0,0-1.376-13.695h0c-.248-.688-.426-1.107-.426-1.107C593.021,738.992,569.05,759.208,569.05,759.208Z" transform="translate(-252.914 -598.955)" fill="#6c63ff"/>
      <path id="Path_291" data-name="Path 291" d="M581.22,761.477s4.918,3.439,11.844,9.093a25.014,25.014,0,0,0,3.4,2.366c5.049-3.824,6.376-9.987,6.727-13.117.151-1.376.371-2.7.605-4.044a28,28,0,0,0-1.376-13.695h0C592.762,742.754,581.22,761.477,581.22,761.477Z" transform="translate(-256.713 -599.491)" fill="#6c63ff"/>
      <path id="Path_292" data-name="Path 292" d="M581.22,761.477s4.918,3.439,11.844,9.093a25.014,25.014,0,0,0,3.4,2.366c5.049-3.824,6.376-9.987,6.727-13.117.151-1.376.371-2.7.605-4.044a28,28,0,0,0-1.376-13.695h0C592.762,742.754,581.22,761.477,581.22,761.477Z" transform="translate(-256.713 -599.491)" fill="#fff" opacity="0.5"/>
      <path id="Path_293" data-name="Path 293" d="M589.05,762.894s2.607,1.843,6.28,4.815a12.594,12.594,0,0,0,1.809,1.252,10.158,10.158,0,0,0,3.57-6.954c.076-.688.193-1.438.323-2.153a15.064,15.064,0,0,0-.722-7.264h0C595.165,752.961,589.05,762.894,589.05,762.894Z" transform="translate(-259.158 -602.772)" opacity="0.1"/>
      <path id="Path_294" data-name="Path 294" d="M573.687,810.23a37.352,37.352,0,0,1-5.97,7.607c-6.191,5.5-32.92,3.315-34.653,3.033-.365-.062-1.121-1.142-2.063-2.9.729-2.827,1.376-4.973,1.376-4.973Z" transform="translate(-241.036 -620.765)" opacity="0.1"/>
      <path id="Path_295" data-name="Path 295" d="M548.65,765.347c-1.087.076-2.174.1-3.267.083-5.578-.1-24.37.151-26.454,7.738-2.456,8.942,8.522,32.885,10.249,33.174s28.449,2.456,34.66-3.033,14.293-22.7,13.86-24.26C577.7,779.049,585.4,762.8,548.65,765.347Z" transform="translate(-237.157 -606.67)" fill="#6c63ff"/>
      <path id="Path_296" data-name="Path 296" d="M551.5,786.5s-13.757-2.119-20.209,11.418a16.508,16.508,0,0,0,1.218,16.639c2.146,3.02,5.3,5.269,9.678,3.439C551.927,813.981,551.5,786.5,551.5,786.5Z" transform="translate(-240.6 -613.318)" opacity="0.1"/>
      <path id="Path_297" data-name="Path 297" d="M550.871,785.235s-13.757-2.119-20.209,11.418a16.508,16.508,0,0,0,1.217,16.639c2.146,3.02,5.3,5.269,9.678,3.439C551.3,812.721,550.871,785.235,550.871,785.235Z" transform="translate(-240.403 -612.925)" opacity="0.1"/>
      <path id="Path_298" data-name="Path 298" d="M550.871,785.865s-13.757-2.119-20.209,11.418a16.508,16.508,0,0,0,1.217,16.639c2.146,3.02,5.3,5.269,9.678,3.439C551.3,813.351,550.871,785.865,550.871,785.865Z" transform="translate(-240.403 -613.121)" fill="#6c63ff"/>
      <path id="Path_299" data-name="Path 299" d="M550.871,785.865s-13.757-2.119-20.209,11.418a16.508,16.508,0,0,0,1.217,16.639c2.146,3.02,5.3,5.269,9.678,3.439C551.3,813.351,550.871,785.865,550.871,785.865Z" transform="translate(-240.403 -613.121)" fill="#fff" opacity="0.5"/>
      <path id="Path_300" data-name="Path 300" d="M538.641,803.13s-1.878,1.733-1.156,2.167S538.641,803.13,538.641,803.13Z" transform="translate(-243.009 -618.549)" fill="#3f2b3b"/>
      <path id="Path_301" data-name="Path 301" d="M541.927,806.35s-1.025,2.263-.3,2.511,1.162-1.623,1.162-1.623Z" transform="translate(-244.273 -619.554)" fill="#3f2b3b"/>
      <path id="Path_302" data-name="Path 302" d="M535.387,811.32s-1,2.669,0,2.669S535.387,811.32,535.387,811.32Z" transform="translate(-242.267 -621.105)" fill="#3f2b3b"/>
      <path id="Path_303" data-name="Path 303" d="M533.78,821.71s2.008,5.131,7.236,4.767" transform="translate(-241.904 -624.349)" fill="none" stroke="#3f2b3b" stroke-miterlimit="10" stroke-width="1"/>
      <path id="Path_304" data-name="Path 304" d="M540.61,823.91s2.063,2.022,4.326.578" transform="translate(-244.036 -625.035)" fill="none" stroke="#3f2b3b" stroke-miterlimit="10" stroke-width="1"/>
      <path id="Path_305" data-name="Path 305" d="M564,786.5s13.757-2.119,20.209,11.418a16.508,16.508,0,0,1-1.217,16.639c-2.139,3.02-5.3,5.269-9.678,3.439C563.545,813.981,564,786.5,564,786.5Z" transform="translate(-251.336 -613.318)" opacity="0.1"/>
      <path id="Path_306" data-name="Path 306" d="M564.589,785.235s13.757-2.119,20.209,11.418a16.508,16.508,0,0,1-1.217,16.639c-2.139,3.02-5.3,5.269-9.678,3.439C564.183,812.721,564.589,785.235,564.589,785.235Z" transform="translate(-251.521 -612.925)" opacity="0.1"/>
      <path id="Path_307" data-name="Path 307" d="M564.589,785.865s13.757-2.119,20.209,11.418a16.508,16.508,0,0,1-1.217,16.639c-2.139,3.02-5.3,5.269-9.678,3.439C564.183,813.351,564.589,785.865,564.589,785.865Z" transform="translate(-251.521 -613.121)" fill="#6c63ff"/>
      <path id="Path_308" data-name="Path 308" d="M564.589,785.865s13.757-2.119,20.209,11.418a16.508,16.508,0,0,1-1.217,16.639c-2.139,3.02-5.3,5.269-9.678,3.439C564.183,813.351,564.589,785.865,564.589,785.865Z" transform="translate(-251.521 -613.121)" fill="#fff" opacity="0.5"/>
      <path id="Path_309" data-name="Path 309" d="M586.16,803.13s1.878,1.733,1.156,2.167S586.16,803.13,586.16,803.13Z" transform="translate(-258.255 -618.549)" fill="#3f2b3b"/>
      <path id="Path_310" data-name="Path 310" d="M582.827,806.35s1.025,2.263.3,2.511-1.162-1.623-1.162-1.623Z" transform="translate(-256.944 -619.554)" fill="#3f2b3b"/>
      <path id="Path_311" data-name="Path 311" d="M589.619,811.32s1,2.669,0,2.669S589.619,811.32,589.619,811.32Z" transform="translate(-259.197 -621.105)" fill="#3f2b3b"/>
      <path id="Path_312" data-name="Path 312" d="M588.336,821.71s-2.008,5.131-7.236,4.767" transform="translate(-256.676 -624.349)" fill="none" stroke="#3f2b3b" stroke-miterlimit="10" stroke-width="1"/>
      <path id="Path_313" data-name="Path 313" d="M582.833,823.91s-2.063,2.022-4.333.578" transform="translate(-255.864 -625.035)" fill="none" stroke="#3f2b3b" stroke-miterlimit="10" stroke-width="1"/>
      <path id="Path_314" data-name="Path 314" d="M553.2,842.291c.365-.069,7.222-3.033,14.293,0Z" transform="translate(-247.966 -630.348)" fill="#3f2b3b"/>
      <path id="Path_315" data-name="Path 315" d="M529.877,857.935c-6.411-.956-11.005-2.786-11.4-6a18.572,18.572,0,0,1-.144-4.127,9.259,9.259,0,0,1,2.449-.894c1.162-.323,2.6-.1,5.633.764s2.813,4.437,3.439,9.093A3.849,3.849,0,0,1,529.877,857.935Z" transform="translate(-237.066 -632.173)" opacity="0.1"/>
      <path id="Path_316" data-name="Path 316" d="M518.947,847.568s-8.337,1.527-3.824,8.722a3.074,3.074,0,0,0,1.541,1.272c.53.186,1.039.186.984-.571l3.687,4.223s7.36.867,6.713-3.79-.433-8.254-3.439-9.093S520.123,847.245,518.947,847.568Z" transform="translate(-235.662 -632.378)" fill="#6c63ff"/>
      <path id="Path_317" data-name="Path 317" d="M524.18,854.67s1.768,4.038,4.223.647" transform="translate(-238.907 -634.637)" fill="none" stroke="#3f2b3b" stroke-miterlimit="10" stroke-width="1"/>
      <path id="Path_318" data-name="Path 318" d="M518.28,857s.915,3.824,4.381.977" transform="translate(-237.066 -635.365)" fill="none" stroke="#3f2b3b" stroke-miterlimit="10" stroke-width="1"/>
      <path id="Path_319" data-name="Path 319" d="M601.415,846.869h0c-.275,3.811-1.011,9.926-1.011,9.926s-3.061.371-7.793.8a3.992,3.992,0,0,1,0-.8c.647-4.657.433-8.254,3.439-9.093C598.87,846.938,600.308,846.656,601.415,846.869Z" transform="translate(-260.263 -632.181)" opacity="0.1"/>
      <path id="Path_320" data-name="Path 320" d="M602.375,847.568s8.343,1.527,3.831,8.722a3.1,3.1,0,0,1-1.541,1.272c-.53.186-1.045.186-.99-.571l-3.68,4.223s-7.367.867-6.713-3.79.433-8.254,3.439-9.093S601.219,847.245,602.375,847.568Z" transform="translate(-260.466 -632.378)" fill="#6c63ff"/>
      <path id="Path_321" data-name="Path 321" d="M601.723,854.67s-1.775,4.038-4.223.647" transform="translate(-261.795 -634.637)" fill="none" stroke="#3f2b3b" stroke-miterlimit="10" stroke-width="1"/>
      <path id="Path_322" data-name="Path 322" d="M546.627,857.133c-2.793-.062-5.5-.206-8.013-.454l-2.5-8.405a5.455,5.455,0,0,1-.227-1.534,5.351,5.351,0,0,1,10.7-.034C546.613,849.98,546.641,854.128,546.627,857.133Z" transform="translate(-242.563 -630.546)" opacity="0.1"/>
      <path id="Path_323" data-name="Path 323" d="M535.167,848.192l2.944,9.919s-5.007-.11-3.639,3.033c0,0,1.259,1.19,1.692.757,0,0-.653,2.063,1.947,2.063,0,0,2.806,1.52,3.893.433s3.364-2.71,3.584-3.357c.138-.426.1-8.722.048-14.445a5.338,5.338,0,0,0-5.344-5.3h0a5.344,5.344,0,0,0-5.125,6.892Z" transform="translate(-242.046 -630.464)" fill="#6c63ff"/>
      <path id="Path_324" data-name="Path 324" d="M540.749,869.47s-2.187,2.063-1.032,3.281" transform="translate(-243.652 -639.257)" fill="none" stroke="#3f2b3b" stroke-miterlimit="10" stroke-width="1"/>
      <path id="Path_325" data-name="Path 325" d="M539.082,867.56a2.97,2.97,0,0,0-2.022,2.538" transform="translate(-242.928 -638.661)" fill="none" stroke="#3f2b3b" stroke-miterlimit="10" stroke-width="1"/>
      <path id="Path_326" data-name="Path 326" d="M586.853,846.657a5.441,5.441,0,0,1-.22,1.534l-2.332,7.958c-2.462.2-5.228.392-8.151.557,0-2.971,0-6.927.048-10.084a5.344,5.344,0,0,1,10.689.034Z" transform="translate(-255.131 -630.462)" opacity="0.1"/>
      <path id="Path_327" data-name="Path 327" d="M587.231,848.192l-2.944,9.919s5.014-.11,3.646,3.033c0,0-1.259,1.19-1.692.757,0,0,.647,2.063-1.953,2.063,0,0-2.806,1.52-3.893.433s-3.357-2.71-3.577-3.357c-.138-.426-.1-8.722-.048-14.445a5.338,5.338,0,0,1,5.345-5.3h0a5.344,5.344,0,0,1,5.117,6.892Z" transform="translate(-255.31 -630.464)" fill="#6c63ff"/>
      <path id="Path_328" data-name="Path 328" d="M586.23,869.47s2.187,2.063,1.032,3.281" transform="translate(-258.277 -639.257)" fill="none" stroke="#3f2b3b" stroke-miterlimit="10" stroke-width="1"/>
      <path id="Path_329" data-name="Path 329" d="M587.63,867.56a2.97,2.97,0,0,1,2.022,2.538" transform="translate(-258.714 -638.661)" fill="none" stroke="#3f2b3b" stroke-miterlimit="10" stroke-width="1"/>
      <path id="Path_330" data-name="Path 330" d="M556.048,782.769s-10.187-.323-10.51,7.566,15.917,4.547,15.917,4.547,6.823-.915,5.633-5.709S563.415,783.2,556.048,782.769Z" transform="translate(-245.573 -612.192)" opacity="0.1"/>
      <path id="Path_331" data-name="Path 331" d="M556.048,781.509s-10.187-.323-10.51,7.566,15.917,4.547,15.917,4.547,6.823-.915,5.633-5.709S563.415,781.943,556.048,781.509Z" transform="translate(-245.573 -611.799)" opacity="0.1"/>
      <path id="Path_332" data-name="Path 332" d="M556.048,782.139s-10.187-.323-10.51,7.566,15.917,4.547,15.917,4.547,6.823-.915,5.633-5.709S563.415,782.573,556.048,782.139Z" transform="translate(-245.573 -611.995)" fill="#3f2b3b"/>
      <path id="Path_333" data-name="Path 333" d="M527.78,839.92s3.439,1.224,4.127,3.57" transform="translate(-240.031 -630.033)" opacity="0.1"/>
      <path id="Path_334" data-name="Path 334" d="M597.246,837.4s-2.442,1.025-2.27,5.3" transform="translate(-261.005 -629.246)" opacity="0.1"/>
      <ellipse id="Ellipse_33" data-name="Ellipse 33" cx="1.594" cy="2.643" rx="1.594" ry="2.643" transform="translate(286.496 226.271) rotate(-29.887)" fill="#6c63ff"/>
      <ellipse id="Ellipse_34" data-name="Ellipse 34" cx="2.634" cy="1.589" rx="2.634" ry="1.589" transform="translate(334.908 226.892) rotate(-60)" fill="#6c63ff"/>
      <ellipse id="Ellipse_35" data-name="Ellipse 35" cx="1.594" cy="2.643" rx="1.594" ry="2.643" transform="translate(286.496 226.271) rotate(-29.887)" fill="#fff" opacity="0.5"/>
      <ellipse id="Ellipse_36" data-name="Ellipse 36" cx="2.634" cy="1.589" rx="2.634" ry="1.589" transform="translate(334.908 226.892) rotate(-60)" fill="#fff" opacity="0.5"/>
    </g>
    <g id="Group_10" data-name="Group 10" transform="translate(125 -18)">
      <path id="Path_413" data-name="Path 413" d="M547.1,263.92c-1.486-10-10.572-33.339-10.572-33.339h0q-.237-1.032-.536-2.064c-6.445-22.148-15.366-24.074-15.366-24.074l-31.957-6.878a2.477,2.477,0,0,1,.688.64,4.434,4.434,0,0,0-.5.076,12.519,12.519,0,0,1-2.8-6.053c-.062-.33-.117-.688-.158-1.025a22.478,22.478,0,0,0-1.83-33.793c-.337-.261-.688-.516-1.025-.757,1.506-1.6,1.555-3.831.426-6.06-2.517-5.228-7.993-8.536-13.619-10.152a23.088,23.088,0,0,0-13.22-.282,47.757,47.757,0,0,0-6.92,3.212c-4.244,2.119-8.942,3.8-12.113,7.284a3.555,3.555,0,0,0-1.211,2.923,7.889,7.889,0,0,0,1.2,2.125,6.414,6.414,0,0,1,.062,5.324,51.579,51.579,0,0,0-1.974,5.117,5.35,5.35,0,0,0,1.066,5.138,22.634,22.634,0,0,0,1.995,1.376,10.464,10.464,0,0,1,1.905,2.139q1.9,2.545,3.783,5.111a52.648,52.648,0,0,1,4.739,7.2,35.1,35.1,0,0,0,2.93,5.5,8.158,8.158,0,0,0,1.259,1.321l-.371-.144a5.73,5.73,0,0,0,4.2,1.713h.193a1.155,1.155,0,0,0,.77-.316v.688c.076,2.456.062,5.069-.11,7.525l-.3-.151a2.579,2.579,0,0,0-2.751.289l-29.419,23.607s-6.4,8.749-5.5,23.854l-5.159,22.65s-6.445,19.218-1.486,32.94,7.834,21.571,7.834,21.571,1.981,15.593,4.959,16.866,4.265,1.96,4.265,1.96l.592,3.728h0s.2.365.55.977c2.167,3.769,10.194,17.072,14.857,15.648a59.632,59.632,0,0,1,.757,10.93l4.615,30.987s3.219,8.426,3.02,12.842,3.756,10.71,3.756,10.71a20.464,20.464,0,0,0-1.981,14.41c1.885,8.254,4.265,46.278,4.265,46.278l3.439,9.217-.1,10.806a10.317,10.317,0,0,1-2.132,4.815c-2.229,2.421-2.063,5.221-7.435,8.529s-8.777,4.56-8.777,8.942a11.5,11.5,0,0,1-.165,1.823c-.5,3.219-1.458,4.966,8.419,5.9a26.042,26.042,0,0,0,19.342-6.466s1.706-3.1,9.74-4.347c0,0,2.751-.144,2.9-2.573.055-.839.041-2.442,0-4.21-.131-3.364-.454-7.291-.88-7.484-.537-.241-1.472-3.625-1.8-4.849h2.235s2.063-15.593,0-25.691-.2-17.258-.2-17.258l-.4-26.667s-2.751-2.944-.591-8.144,0-30.884,0-30.884.8-9.217,3.075-11.377.11-13.5,0-14.094L491.65,393.1s1.782,27.059,5.558,31.957l1.087,12.257s7.731,11.281,6.246,17.354,1.589,28.043,1.589,28.043v22.458s-3.474,9.018,1.376,12.257l2.063-.083c-.688.64-1.217,1.6-2.022,2.435-.929.956-1.458,4.595-1.754,7.724-.248,2.648-.33,4.925-.33,4.925a8.109,8.109,0,0,0,5.95,3.529c3.886.227,16.694,9.967,16.694,9.967s12.649,0,15.923-.688l.193-.048a4.3,4.3,0,0,0,2.469-2.015,5.159,5.159,0,0,0,.591-3.707c-.406-1.933-1.94-4.051-5.338-5.854-8.454-4.457-9.712-8.632-9.712-8.632l-5.551-8.33h.791s-.488-8.825,5.551-18.73l-.392-43.629s2.476-15-1.782-23.146c0,0-.351-8.625,2.5-11.274s-3.79-29.412-3.79-29.412-1.376-14.369-2.992-27.479h0c6.693,6.349,13.633-16.508,14.8-20.573h.172l-.076-.3c.048-.193.076-.289.076-.289h0s-1.486-5.283-.4-4.21,3.769-2.944,3.769-2.944-.4-21.866,4.265-32.885S547.1,263.92,547.1,263.92Zm-19.947,13.915.034-.062c.688,13.351-.131,41.841-.131,41.841s-.922,3.652-1.905,7.951l-.688-27.066h0l-.688-25.5Zm-85.367-9.2s3.37,42.157,0,48.238a31.849,31.849,0,0,0-2.428,8.33c-1.114-2.923-3.474-9.788-2.628-13.427,1.094-4.7-2.18-17.065-2.18-17.354s-.3-6.878,2.063-11.913.812-7.215.812-7.215S439.408,267.036,441.788,268.631Z" transform="translate(-40.749 147.025)" fill="url(#linear-gradient-3)"/>
      <path id="Path_414" data-name="Path 414" d="M459.365,455.851c-2.937,12.911-14.616-6.61-17.278-11.294-.344-.612-.537-.97-.537-.97l1.266-5.936,6.693-2.751a18.7,18.7,0,0,1,3,1.953C456.173,439.735,461.628,445.85,459.365,455.851Z" transform="translate(-50.113 54.754)" fill="#fdc2cc"/>
      <path id="Path_415" data-name="Path 415" d="M590.445,433.148a.9.9,0,0,1-.076.289,1.461,1.461,0,0,1-.089.31c-1.149,4.031-7.958,26.722-14.534,20.422-7.195-6.878-3.7-22.781-3.7-22.781h.048l15.132-1.548,3,3.082h0Z" transform="translate(-90.584 56.333)" fill="#fdc2cc"/>
      <path id="Path_416" data-name="Path 416" d="M544.442,545.612l.385,43.334c-5.936,9.836-5.448,18.572-5.448,18.572l-19.562.77c-4.774-3.212-1.376-12.161-1.376-12.161V573.813s-3.02-21.8-1.561-27.837-6.129-17.2-6.129-17.2l-1.073-12.168c-3.7-4.863-5.455-31.723-5.455-31.723l-3.969-13.564c.11.585,2.174,11.906,0,13.991s-3.02,11.287-3.02,11.287,2.139,25.505,0,30.657.578,8.082.578,8.082l.392,26.475s-1.85,7.105.193,17.127,0,25.5,0,25.5H477.412l.1-10.806-3.4-9.148s-2.339-37.762-4.189-45.941a20.525,20.525,0,0,1,1.94-14.307s-3.886-6.225-3.694-10.606-3-12.739-3-12.739l-4.526-30.753A59.743,59.743,0,0,0,458.4,452.63c-2.628-8.763-6.521-20.25-6.521-20.25l4.4.392,22.176,1.974s53.919-3.625,56.334-.612a10.118,10.118,0,0,1,1.018,3.143c2.421,10.875,5.62,44.943,5.62,44.943s6.521,26.571,3.721,29.2-2.456,11.184-2.456,11.184C546.884,530.685,544.442,545.612,544.442,545.612Z" transform="translate(-53.338 55.54)" fill="#444053"/>
      <path id="Path_417" data-name="Path 417" d="M502.063,697.075c-.151,2.414-2.841,2.559-2.841,2.559-7.883,1.238-9.561,4.306-9.561,4.306a25.318,25.318,0,0,1-18.977,6.424c-9.7-.935-8.756-2.662-8.254-5.86a12.121,12.121,0,0,0,.158-1.8c0-4.382,3.357-5.627,8.612-8.942s5.111-6.06,7.3-8.467,2.414-7.078,2.414-7.078c2.476-4.313,8.756.688,8.756.688.3,1.527,9.63,1.314,9.63,1.314s1.238,4.966,1.878,5.255c.42.193.736,4.086.86,7.429C502.1,694.654,502.118,696.242,502.063,697.075Z" transform="translate(-56.542 -20.653)" fill="#b07473"/>
      <path id="Path_418" data-name="Path 418" d="M502.063,704.541c-.151,2.414-2.841,2.559-2.841,2.559-7.883,1.238-9.561,4.306-9.561,4.306a25.318,25.318,0,0,1-18.977,6.424c-9.7-.935-8.756-2.662-8.254-5.86,4.333,1.073,12.615,2.573,17.45-.055,6.72-3.646,11.542-6.191,11.542-6.191l10.62-5.344C502.1,702.12,502.118,703.709,502.063,704.541Z" transform="translate(-56.542 -28.12)" opacity="0.1"/>
      <path id="Path_419" data-name="Path 419" d="M588.2,711.332a4.2,4.2,0,0,1-2.421,2l-.186.048c-3.212.688-15.628.688-15.628.688s-12.553-9.705-16.35-9.925a7.985,7.985,0,0,1-5.84-3.508s.076-2.256.316-4.884c.3-3.109.812-6.72,1.727-7.669,1.678-1.754,2.063-4.127,5.84-2.628,0,0,5.393-9.506,11.748-2.16l6.576,9.974s1.238,4.127,9.568,8.6c3.329,1.788,4.815,3.893,5.234,5.812A5.125,5.125,0,0,1,588.2,711.332Z" transform="translate(-83.275 -21.917)" fill="#b07473"/>
      <path id="Path_420" data-name="Path 420" d="M588.2,718.25c-.743.626-1.561,1.3-2.421,2l-.186.048c-3.212.688-15.628.688-15.628.688s-12.553-9.705-16.35-9.925a7.985,7.985,0,0,1-5.84-3.508s.076-2.256.316-4.884c3.866,1.156,9.719,3.2,11.287,5.4,2.407,3.35,9.719,8.027,9.719,8.027s13.633-1.314,19.686-1.493A5.125,5.125,0,0,1,588.2,718.25Z" transform="translate(-83.275 -28.835)" opacity="0.1"/>
      <path id="Path_421" data-name="Path 421" d="M512.92,221.169l-17.953,18.977s-21.756-1.6-17.959-8.027c1.933-3.274,2.235-10.125,2.064-16.082-.158-5.743-.75-10.634-.75-10.634s30.512-15.187,28.2-1.025a23.309,23.309,0,0,0-.083,8.082C507.741,219.615,512.92,221.169,512.92,221.169Z" transform="translate(-61.043 128.599)" fill="#fdc2cc"/>
      <path id="Path_422" data-name="Path 422" d="M507.294,204.379a23.311,23.311,0,0,0-.083,8.082,22.4,22.4,0,0,1-15.972,6.665c-4.127,0-8.591-3.391-11.927-5.351-.158-5.75-.193-8.371-.193-8.371S509.632,190.217,507.294,204.379Z" transform="translate(-61.841 128.599)" opacity="0.1"/>
      <path id="Path_423" data-name="Path 423" d="M509.01,183.969a22.485,22.485,0,1,1-8.46-17.567A22.485,22.485,0,0,1,509.01,183.969Z" transform="translate(-57.133 140.102)" fill="#fdc2cc"/>
      <path id="Path_424" data-name="Path 424" d="M537.348,437.449c-5.6,13.323-41.614,13.6-41.614,13.6V436.52l-2.18-.144c.942,4.161-1.321,14.307-1.321,14.307-28.463,4.017-35.4-12.2-35.4-12.2l.99-5.551L480,434.9s53.919-3.625,56.334-.612a10.121,10.121,0,0,1,1.018,3.157Z" transform="translate(-54.883 55.369)" opacity="0.1"/>
      <path id="Path_425" data-name="Path 425" d="M495.734,385.191V370.664l-2.18-.138c.942,4.127-1.321,14.307-1.321,14.307-21.419,3.02-30.65-5.413-33.9-9.774a13.307,13.307,0,0,1-1.5-2.421l8.694-48.905,2.064-71.975,3.116-12.629.722-6.06V233h.076l2.215.949,13.255,5.73,15.057-11.37.22-.158.75-.571,1.245,1,3.1,2.483,9.925,64.1s17.2,49.352,20.415,69.272c.131.8.234,1.541.316,2.235C540.12,384.854,495.734,385.191,495.734,385.191Z" transform="translate(-54.883 119.471)" fill="#a0aec0"/>
      <circle id="Ellipse_41" data-name="Ellipse 41" cx="1.279" cy="1.279" r="1.279" transform="translate(432.418 359.288)" fill="#67647e"/>
      <circle id="Ellipse_42" data-name="Ellipse 42" cx="1.279" cy="1.279" r="1.279" transform="translate(433.009 370.967)" fill="#67647e"/>
      <circle id="Ellipse_43" data-name="Ellipse 43" cx="1.279" cy="1.279" r="1.279" transform="translate(434.289 389.876)" fill="#67647e"/>
      <circle id="Ellipse_44" data-name="Ellipse 44" cx="1.279" cy="1.279" r="1.279" transform="translate(436.4 410.243)" fill="#67647e"/>
      <circle id="Ellipse_45" data-name="Ellipse 45" cx="1.279" cy="1.279" r="1.279" transform="translate(437.68 429.365)" fill="#67647e"/>
      <circle id="Ellipse_46" data-name="Ellipse 46" cx="1.279" cy="1.279" r="1.279" transform="translate(438.959 449.732)" fill="#67647e"/>
      <circle id="Ellipse_47" data-name="Ellipse 47" cx="1.279" cy="1.279" r="1.279" transform="translate(438.45 469.878)" fill="#67647e"/>
      <path id="Path_426" data-name="Path 426" d="M472.276,333.213s-1.431,18.73-4.058,24.177-3.8,20.731-3.8,20.731l-6.1-.688a13.311,13.311,0,0,1-1.5-2.421l8.694-48.905,2.063-71.975L470.7,241.5l.722-6.06.083-.034a2.463,2.463,0,0,1,2.174.034l.289.151q-.131.371-.248.764c-2.38,7.449-3.267,21.178-3.267,21.178s3.439,25.113,3.8,36.792S472.276,333.213,472.276,333.213Z" transform="translate(-54.88 117.103)" opacity="0.1"/>
      <path id="Path_427" data-name="Path 427" d="M427.6,298.81l-5.551,3.308L416.991,324.6s-6.328,19.074-1.465,32.7,7.69,21.426,7.69,21.426,1.947,15.476,4.87,16.742,4.182,1.947,4.182,1.947l.585,3.7s7.924-2.689,10.723-7.429-2.064-16.508-2.064-16.508-4.182-10.029-3.109-14.7-2.146-16.935-2.146-17.2-.289-6.816,2.064-11.831.784-7.154.784-7.154L437.64,312Z" transform="translate(-41.416 97.236)" fill="#67647e"/>
      <path id="Path_428" data-name="Path 428" d="M558.159,369.358s-14.7,5.544-19.369.688S534.6,342.4,534.6,342.4s-4.471-42.047-7.3-48.953-1.376-56.746-1.376-56.746-1.9-6.445-3.556-8.13a1.8,1.8,0,0,0-.351-.282l.571.124,1.995.426,3.1,2.483,9.925,64.1s17.2,49.352,20.415,69.272Z" transform="translate(-75.233 119.25)" opacity="0.1"/>
      <path id="Path_429" data-name="Path 429" d="M590.823,433.727h-.165c-1.85.241-18.179,2.215-18.248-1.183a9.964,9.964,0,0,1,.062-1.176L587.6,429.82l3,3.082h0c.055.2.1.371.138.509Z" transform="translate(-90.963 56.339)" opacity="0.1"/>
      <path id="Path_430" data-name="Path 430" d="M575.154,266.07l10.73,5.6s8.942,23.153,10.373,33.078c0,0,6.624,26.592,2.063,37.528s-4.182,32.645-4.182,32.645-2.628,3.989-3.7,2.923.392,4.182.392,4.182-18.345,2.435-18.42-1.169,4.209-20.828,4.209-20.828,1.169-40.974-.488-47.4S575.154,266.07,575.154,266.07Z" transform="translate(-90.963 107.456)" fill="#67647e"/>
      <path id="Path_431" data-name="Path 431" d="M525.875,329.52s-6.039,14.788-7.986,15.765.392,4.863.392,4.863S529.279,334.775,525.875,329.52Z" transform="translate(-73.702 87.649)" opacity="0.1"/>
      <path id="Path_432" data-name="Path 432" d="M520.335,254.1c.069-.282-7.2,7.133-9.148,8.254S518.292,262.282,520.335,254.1Z" transform="translate(-71.766 111.196)" opacity="0.1"/>
      <path id="Path_433" data-name="Path 433" d="M490.749,327.82s-11.095,7.174-9.63,10.015S490.749,327.82,490.749,327.82Z" transform="translate(-62.424 88.18)" opacity="0.1"/>
      <path id="Path_434" data-name="Path 434" d="M524.47,480.07s9.444,6.074,24.136,7.566Z" transform="translate(-75.998 40.653)" opacity="0.1"/>
      <path id="Path_435" data-name="Path 435" d="M491.5,501.3s8.756,11.005,12.753,11.287S491.5,501.3,491.5,501.3Z" transform="translate(-65.706 34.026)" opacity="0.1"/>
      <path id="Path_436" data-name="Path 436" d="M504.535,564c-.392.193-4.966,9.925-9.63,10.221S504.535,564,504.535,564Z" transform="translate(-66.477 14.453)" opacity="0.1"/>
      <path id="Path_437" data-name="Path 437" d="M568.33,594.869s8.68-1.947,10.613,4.278C578.943,599.127,578.359,597.18,568.33,594.869Z" transform="translate(-89.69 4.907)" opacity="0.1"/>
      <path id="Path_438" data-name="Path 438" d="M559.84,646.415s10.517-2.146,12.752.777S559.84,646.415,559.84,646.415Z" transform="translate(-87.039 -11.037)" opacity="0.1"/>
      <path id="Path_439" data-name="Path 439" d="M511.9,654c0,.1-10.7,2.146-10.318,3.508s11.418,1.169,11.81-.977A2.063,2.063,0,0,0,511.9,654Z" transform="translate(-68.851 -13.642)" opacity="0.1"/>
      <path id="Path_440" data-name="Path 440" d="M554.75,667.139s17.588-2.146,16.508,1.555S554.75,667.139,554.75,667.139Z" transform="translate(-85.45 -17.55)" opacity="0.1"/>
      <path id="Path_441" data-name="Path 441" d="M420.89,352.44c.1.289,11.583,1.85,13.138,5.551,0,0-11.287-5.262-13.069-5.262" transform="translate(-43.664 80.495)" opacity="0.1"/>
      <path id="Path_442" data-name="Path 442" d="M500.565,166.4a5.413,5.413,0,0,1-1.114.832c-2.751,1.6-3.508,4.072-4.815,6.92-1.217,2.607-2.559,5.365-5.014,6.844-3.171,1.912-7.346,1.211-10.641,2.875a8.254,8.254,0,0,0-4.4,8.137,23.47,23.47,0,0,0,.936,3.728,26.584,26.584,0,0,1,1,8.1,1.367,1.367,0,0,1,0,.241A22.478,22.478,0,1,1,500.592,166.4Z" transform="translate(-57.148 140.104)" opacity="0.1"/>
      <path id="Path_443" data-name="Path 443" d="M494.885,153.711c-2.469-5.186-7.841-8.474-13.365-10.077a22.446,22.446,0,0,0-12.979-.275,47.611,47.611,0,0,0-6.789,3.185c-4.168,2.1-8.749,3.769-11.886,7.229a3.622,3.622,0,0,0-1.19,2.9,8.1,8.1,0,0,0,1.176,2.1,6.387,6.387,0,0,1,.062,5.289,48.5,48.5,0,0,0-1.94,5.083,5.348,5.348,0,0,0,1.046,5.1,19.065,19.065,0,0,0,1.967,1.376,10.355,10.355,0,0,1,1.864,2.119l3.714,5.076a51.483,51.483,0,0,1,4.65,7.147,34.056,34.056,0,0,0,2.875,5.455,6.224,6.224,0,0,0,5.214,2.786,1.011,1.011,0,0,0,.825-.392,1.087,1.087,0,0,0,.1-.516,26.4,26.4,0,0,0-.984-8.068,23.288,23.288,0,0,1-.935-3.728,8.288,8.288,0,0,1,4.4-8.137c3.3-1.665,7.477-.963,10.641-2.868,2.462-1.486,3.8-4.244,5.014-6.878,1.328-2.848,2.063-5.317,4.815-6.92S496.254,156.442,494.885,153.711Z" transform="translate(-52.053 146.024)" fill="#363047"/>
      <path id="Path_444" data-name="Path 444" d="M501.63,693.06s3.439,4.382,2.545,6.878S501.63,693.06,501.63,693.06Z" transform="translate(-68.868 -25.835)" opacity="0.1"/>
      <path id="Path_445" data-name="Path 445" d="M569.28,706.274s.763-5.874,3.824-5.929,3.212-.316,5.551.585,4.533,2.3,3.831,2.5-4.024-3.357-7.435-1.534a24.566,24.566,0,0,0-5.771,4.375Z" transform="translate(-89.986 -28.085)" opacity="0.1"/>
      <path id="Path_446" data-name="Path 446" d="M482.639,249.52l9.63-6.748s-14.087-8.323-15.765-7.153-2.834,11.693-2.834,11.693Z" transform="translate(-60.14 116.997)" opacity="0.1"/>
      <path id="Path_447" data-name="Path 447" d="M482.579,248.831l9.63-6.878s-14.087-8.323-15.765-7.153-2.834,12.271-2.834,12.271Z" transform="translate(-60.121 117.253)" fill="#e1e7ef"/>
      <path id="Path_448" data-name="Path 448" d="M482.579,248.831l9.63-6.878s-14.087-8.323-15.765-7.153-2.834,12.271-2.834,12.271Z" transform="translate(-60.121 117.253)" fill="#a0aec0"/>
      <path id="Path_449" data-name="Path 449" d="M463.09,234.741l-.289-.144a2.5,2.5,0,0,0-2.7.282l-28.889,23.435s-6.28,8.687-5.406,23.675l17.038,24.136s1.947-8.171,4.278-6.617c0,0,3.308,41.855,0,47.887s-4.767,28.614-4.767,28.614l11.191,1.266s1.169-15.284,3.8-20.731,4.058-24.177,4.058-24.177,2.366-27.211,1.974-38.89-3.8-36.792-3.8-36.792S460.531,241.963,463.09,234.741Z" transform="translate(-45.171 117.366)" fill="#67647e"/>
      <path id="Path_450" data-name="Path 450" d="M516.443,243.006l-12-4.443s15.284-16.742,17.2-7.456Z" transform="translate(-69.745 119.246)" opacity="0.1"/>
      <path id="Path_451" data-name="Path 451" d="M516.443,242.156l-12-4.443s15.284-16.742,17.2-7.456Z" transform="translate(-69.745 119.511)" fill="#e1e7ef"/>
      <path id="Path_452" data-name="Path 452" d="M516.443,242.156l-12-4.443s15.284-16.742,17.2-7.456Z" transform="translate(-69.745 119.511)" fill="#a0aec0"/>
      <path id="Path_453" data-name="Path 453" d="M521.32,228.116a.688.688,0,0,1,.5.11Z" transform="translate(-75.015 119.307)" opacity="0.1"/>
      <path id="Path_454" data-name="Path 454" d="M523,226.424l31.847,6.878s8.763,1.947,15.091,23.944-8.667,48.946-8.667,48.946l-3.308-2.813,1.658,64.237s-14.7,5.544-19.369.688-4.182-27.665-4.182-27.665-4.478-42.041-7.3-48.953-1.376-56.74-1.376-56.74S524.788,226.039,523,226.424Z" transform="translate(-75.539 119.836)" fill="#67647e"/>
      <path id="Path_455" data-name="Path 455" d="M565.17,285.809c-.447.413-.97,19.851.977,34.646a188.808,188.808,0,0,0,5.5,26.667l-2.889-59.271S566.532,284.543,565.17,285.809Z" transform="translate(-88.573 101.384)" opacity="0.1"/>
      <path id="Path_456" data-name="Path 456" d="M559.7,261.6c.777.488,4.189,8.564,2.628,11.872S559.7,261.6,559.7,261.6Z" transform="translate(-86.996 108.852)" opacity="0.1"/>
      <path id="Path_457" data-name="Path 457" d="M502.511,155.462a17.581,17.581,0,0,0-7-7.332,16.653,16.653,0,0,1,5.248,6.191c1.376,2.751.97,5.5-1.706,7.009s-3.508,4.072-4.815,6.92c-1.217,2.607-2.559,5.365-5.021,6.878-3.164,1.912-7.339,1.2-10.641,2.868a8.309,8.309,0,0,0-4.4,8.144,23.386,23.386,0,0,0,.942,3.721,26.607,26.607,0,0,1,1,8.1,1.086,1.086,0,0,1-.11.516.984.984,0,0,1-.819.392,4.739,4.739,0,0,1-2.4-.447,5.585,5.585,0,0,0,4.127,1.616.812.812,0,0,0,.922-.908,26.392,26.392,0,0,0-1-8.1,22.594,22.594,0,0,1-.942-3.728,8.288,8.288,0,0,1,4.4-8.137c3.3-1.665,7.477-.963,10.641-2.868,2.462-1.486,3.8-4.244,5.014-6.878,1.328-2.848,2.064-5.317,4.815-6.92S503.887,158.193,502.511,155.462Z" transform="translate(-59.865 144.273)" opacity="0.1"/>
    </g>
  </g>
</svg>
