<svg xmlns="http://www.w3.org/2000/svg" width="422" height="313.46" viewBox="0 0 422 313.46">
  <g id="undraw_connected_world_wuay" transform="translate(0 0)">
    <path id="Path_1" data-name="Path 1" d="M400.47,89.209C352.575,22.559,251.4-4.477,151.891,24.641,99.285,40.035,48.563,70.879,23.427,130.6c-44.934,106.763,49.411,140.861,111.1,151.729a333.616,333.616,0,0,1,83.6,26.1c46.19,21.621,127.948,40.781,189.6-49.283C452.411,193.871,432.376,133.6,400.47,89.209Z" transform="translate(-11.697 -13.011)" fill="#f2f2f2"/>
    <path id="Path_2" data-name="Path 2" d="M166.457,246.7a12.332,12.332,0,0,0-.806-3.086,1.4,1.4,0,0,0-.71-.875,1.464,1.464,0,0,0-.7-.008l-3.618.554a1.387,1.387,0,0,0-.825.321c-.471.5-.007,1.294-.022,1.977a1.859,1.859,0,0,1-1.44,1.6,5.443,5.443,0,0,1-2.288-.028l-5.059-.786a8.341,8.341,0,0,0,3.827-2.554c.666-.789,1.02-2.261.058-2.635a2.362,2.362,0,0,0-.879-.071c-2.292.018-4.1-1.9-6.241-2.7a6.9,6.9,0,0,0-7.767,2.315l2.695.13a1.2,1.2,0,0,1,.718.191c.591.485-.144,1.417-.06,2.177.108.987,1.419,1.2,2.407,1.3s2.242.9,1.766,1.775c-4.966,1.711-10.02-3.344-15.235-2.722a30.958,30.958,0,0,0-3.855,1c-7.873,1.992-16.012-3.323-24.054-2.2a30.546,30.546,0,0,0-5.251,1.385,7.079,7.079,0,0,0-3.032,1.581,2.43,2.43,0,0,0-.345,3.131,17.619,17.619,0,0,1-6.175-.587,3.459,3.459,0,0,1,1.778,3.049,36.636,36.636,0,0,0-9.385,2.862,15.807,15.807,0,0,0,1.942,2.588l-4.1,2.637a2.343,2.343,0,0,1,1.3,3.422c1.438-.64,2.329-2.295,3.867-2.63a5.211,5.211,0,0,1,2.988.579,4.668,4.668,0,0,0,3,.472c.989-.291,1.719-1.573,1.09-2.391a51.187,51.187,0,0,1,13-2.031,1.631,1.631,0,0,1,.985.187c.573.4.422,1.257.392,1.954s.512,1.613,1.135,1.3c-.733.636-.106,1.832.6,2.5s1.551,1.59,1.12,2.46c-.112.227-.3.408-.411.637-.319.676.188,1.464.785,1.912a6.692,6.692,0,0,1,1.745,1.384c.415.621.227,1.709-.516,1.8l-2.11-2.679a5.492,5.492,0,0,0-1.425,2.7,5.667,5.667,0,0,1,.7,7.752,19.369,19.369,0,0,1-3.506,2.685,4.818,4.818,0,0,0-2.284,3.6c.005,2.551-.2,4.921.753,7.287a112.248,112.248,0,0,0,6.094,12.714c.6,1.078,1.382,2.26,2.6,2.446q-2.315-5.636-4.168-11.447a2.625,2.625,0,0,1,2.206.719,4.573,4.573,0,0,1,.428,1.929,5.974,5.974,0,0,0,.762,1.791l7.37,13.129a5.433,5.433,0,0,0,2.48,2.7,14.026,14.026,0,0,1,2.3.634c.539.318.9.882,1.45,1.182,1.553.847,3.712-.777,5.163.234a14.523,14.523,0,0,1,1.061,1.08c1.34,1.16,3.538.384,5.085,1.25a6.009,6.009,0,0,1,2.045,2.685c1.332,2.533,3.487,5.014,6.342,5.216a17.677,17.677,0,0,1,2.689.093c.877.2,1.739.964,1.6,1.852-.241,1.522.511,3.189.309,4.717-.368,2.783-4.315,4.006-4.654,6.793a15.763,15.763,0,0,1-.1,1.837c-.178.732-.728,1.328-.923,2.055-.37,1.379.618,2.751,1.7,3.679s2.38,1.727,2.973,3.026c.627,1.372.319,2.973.523,4.468.445,3.264,3.264,5.684,6.166,7.244a6.441,6.441,0,0,1,2.405,1.76c.747,1.076.672,2.5.922,3.781.611,3.15,3.262,5.745,3.337,8.952.054,2.28-1.214,4.348-1.971,6.5a15.156,15.156,0,0,0,1.238,12.569,20.13,20.13,0,0,1,1.644,2.894c.715,1.85.483,3.953,1.142,5.823.871,2.473,3.266,4.515,3.037,7.127,1.087,2.257,3.487,3.367,5.9,4.039l4.326,1.2a5.56,5.56,0,0,0,2.537.3,1.9,1.9,0,0,0,1.627-1.727,15.806,15.806,0,0,1-6.06-2.28c-1.749-1.293-2.947-3.595-2.283-5.666.308-.96.962-2.069.34-2.863-.356-.454-1.008-.573-1.41-.988a2.156,2.156,0,0,1,.039-2.512,8.483,8.483,0,0,0,1.284-2.358,2.461,2.461,0,0,0-1.153-2.56,6.117,6.117,0,0,0,2.141-1.374,2.088,2.088,0,0,0,.38-2.365c1.315.167,2.868.249,3.732-.758a3.342,3.342,0,0,0,.37-3.028,12.932,12.932,0,0,1-.747-3.076,56.046,56.046,0,0,0,9.093-.308,5.9,5.9,0,0,0-2.765-3.462c1.367-.231,2.612-1.867,3.044-3.185a8.193,8.193,0,0,0,.055-4.112,2.207,2.207,0,0,1-.041-1.077,2.1,2.1,0,0,1,1.081-1.046l6.784-3.9a3.951,3.951,0,0,0,1.085-.8,3.223,3.223,0,0,0,.242-3.129,15.717,15.717,0,0,1-1.087-3.094c-.419-3.252,3.062-5.586,4.237-8.647a13.029,13.029,0,0,0,.644-3.791c.1-1.379.1-2.98-.956-3.869-1.015-.852-2.6-.662-3.662-1.454-.974-.726-1.309-2.137-2.373-2.724-.966-.533-2.177-.194-3.251-.445-1.891-.441-3.082-2.621-5.013-2.823-1.09-.114-2.323.419-3.217-.216-.787-.559-.819-1.683-.969-2.637a7.365,7.365,0,0,0-5.945-5.964,8.318,8.318,0,0,1-3.3-.729c-.968-.625-1.412-1.8-2.172-2.662-1.226-1.4-3.156-1.892-4.964-2.317l-7.354-1.729c-1.306-.307-2.988-.47-3.689.674a5.285,5.285,0,0,0-.436,1.372,4.25,4.25,0,0,1-4,3.009,4.727,4.727,0,0,0-2.787-2.157,17.372,17.372,0,0,1-2.255-.537,3.168,3.168,0,0,1-1.375-4.395,3.943,3.943,0,0,0-.674-4.743,6.4,6.4,0,0,0-4.737-1.282c-.439-.958.3-2.04,1.087-2.736s1.752-1.381,1.925-2.421c.271-1.636-1.816-2.879-3.4-2.391s-2.6,2.027-3.265,3.545a10.437,10.437,0,0,1-1.315,2.522,2.584,2.584,0,0,1-2.5,1.024c-1.305-.334-1.809-1.884-2.1-3.2a20.809,20.809,0,0,1-.7-5.36,7.01,7.01,0,0,1,2.021-4.881c2.169-1.992,5.5-1.8,8.425-1.479a2.14,2.14,0,0,1,.219-2.826,3.213,3.213,0,0,1,2.913-.716,4.013,4.013,0,0,1,2.256,1.349c.832,1.014,1.069,2.384,1.7,3.535s2.043,2.133,3.2,1.516c1-.534,1.158-1.92.91-3.025a11.376,11.376,0,0,1-.687-3.31c.172-2.155,2.406-3.453,4.378-4.341s4.229-2.082,4.542-4.221a3.849,3.849,0,0,1,.234-1.227,2.406,2.406,0,0,1,.883-.83c5.754-3.8,11.6-7.652,18.181-9.73.342-.108.382.012.731-.073.488-.282.165-1.062-.3-1.377s-1.093-.555-1.212-1.106c-.087-.405.151-.8.213-1.212a1.514,1.514,0,0,0-1.987-1.534c-.528-.7.517-1.513,1.362-1.745a37,37,0,0,1,7.772-1.27,1.4,1.4,0,0,1,.884.15,1.057,1.057,0,0,1,.072,1.444,8.493,8.493,0,0,1-1.189,1.08,3.247,3.247,0,0,0-.842,3.266,7.4,7.4,0,0,0,4.384,1.171c1.52-.246,2.869-1.953,2.154-3.317-.665-1.27-2.663-1.556-3.007-2.948-.4-1.63,1.9-3.079,1.385-4.675-.228-.7-.924-1.111-1.459-1.615a4.383,4.383,0,0,1-.959-4.86,5.53,5.53,0,0,1-4.85-1.518c-1.16-1.171-2.086-3.018-3.733-2.965-1.512.048-2.814,1.812-4.227,1.274-.348-.132-.714-.4-1.051-.244a.869.869,0,0,0-.392.651c-.359,1.717.259,3.674-.677,5.158-1.019,1.615-3.375,1.839-4.609,3.3-.67.79-.93,1.856-1.546,2.689s-1.924,1.363-2.663.637a3.671,3.671,0,0,0-1-4.464,9.794,9.794,0,0,0-2.2-1.071,13.063,13.063,0,0,1-2.461-1.371,2.424,2.424,0,0,1-.9-.967,2.2,2.2,0,0,1,.062-1.529,6.25,6.25,0,0,1,4.974-4.122c.984-.134,2.13-.087,2.782-.837.345-.4.526-1,1.026-1.158a1.513,1.513,0,0,1,.947.117l3.675,1.293a2.579,2.579,0,0,0,1.309.216.888.888,0,0,0,.767-.933c-.117-.61-1.056-.9-.971-1.519a1.014,1.014,0,0,1,.308-.517A13.137,13.137,0,0,1,178.4,245.33c.464.762-.27,1.664-.88,2.314s-1.1,1.812-.363,2.313a2.024,2.024,0,0,0,.978.22,8.543,8.543,0,0,1,2.6.79q1.9.829,3.736,1.814a4.737,4.737,0,0,1,.094-2.406,1.629,1.629,0,0,1,1.93-1.05c.73.283,1.1,1.249,1.882,1.338,1.038.118,1.447-1.415,1.013-2.365s-1.291-1.746-1.363-2.787c-.048-.7.219-1.574-.342-2a1.528,1.528,0,0,0-.662-.232l-14.018-2.58c-.832-.153-2.035-.036-2.072.81-.021.472.4.939.214,1.373-.2.463-.854.421-1.331.585a1.819,1.819,0,0,0-1.04,1.912,5.32,5.32,0,0,0,.878,2.155C168.749,247.151,167.369,247.081,166.457,246.7Z" transform="translate(-55.369 -157.316)" fill="#3f3d56"/>
    <path id="Path_3" data-name="Path 3" d="M280.773,228.64a4.539,4.539,0,0,0-4.986,1.493,1,1,0,0,0-.231,1.052c.277.472.983.285,1.5.117a3.784,3.784,0,0,1,2.375-.057c.489.168.926.464,1.417.626a1.427,1.427,0,0,0,1.455-.213,1.894,1.894,0,0,0,.359-1.359,1.093,1.093,0,0,0-.278-.9,1.428,1.428,0,0,0-.644-.19,2.218,2.218,0,0,1-1.3-.759" transform="translate(-180.869 -151.155)" fill="#3f3d56"/>
    <path id="Path_4" data-name="Path 4" d="M302.16,225.124a1.155,1.155,0,0,0-1.116,1.626,4.68,4.68,0,0,0,1.866.122,1.6,1.6,0,0,0,1.3-1.2,3,3,0,0,1-2.126-.406" transform="translate(-197.202 -149.047)" fill="#3f3d56"/>
    <path id="Path_5" data-name="Path 5" d="M343.063,215.838a21.465,21.465,0,0,0-4.785,1.626,3.6,3.6,0,0,1,2.3,3.611,1.881,1.881,0,0,0,.022.893c.176.426.685.586,1.133.7a7.469,7.469,0,0,0,2.484.317,2.531,2.531,0,0,0,2.056-1.257,8.96,8.96,0,0,1,.428-1.011c1.073-1.634,4.261.342,5.414-1.238.406-.556.369-1.394.9-1.835a2.017,2.017,0,0,1,.923-.352,64.814,64.814,0,0,1,7.011-1c1.115-.1,2.569-.5,2.578-1.617a19.421,19.421,0,0,0-12.388,1.667c-1.381.692-3.207,2.147-4.538,1.23-.5-.343-.473-1.268-1.159-1.654A3.5,3.5,0,0,0,343.063,215.838Z" transform="translate(-221.147 -142.111)" fill="#3f3d56"/>
    <path id="Path_6" data-name="Path 6" d="M388.674,218.031l1.972.379a2.555,2.555,0,0,0-2.659,2.769c1.846.617,3.859.017,5.8.1s4.208,1.471,3.876,3.39c-.1.58-.435,1.16-.261,1.722a6.408,6.408,0,0,0,.666,1.037,2.322,2.322,0,0,1-.434,2.4c-.516.688-1.21,1.236-1.663,1.967-1.127,1.817-.487,4.166.185,6.2a5.463,5.463,0,0,0,1.05,2.1c.995,1.057,2.615,1.149,4.067,1.171,1.056.015,2.267-.037,2.935-.855.872-1.069.262-2.736.837-3.99.521-1.139,1.85-1.628,3.054-1.974a45.7,45.7,0,0,0,6.538-2.134c2.589-1.191,5.009-3.047,7.854-3.2a10.78,10.78,0,0,0,2.385-.168,1.814,1.814,0,0,0,1.441-1.681c-.05-.681-.626-1.182-1.077-1.7s-.8-1.3-.39-1.847l7.459-1.393c-.529-1.441-.941-3.339.274-4.276.438-.338,1.025-.474,1.4-.883a1.809,1.809,0,0,0-.418-2.491,4.791,4.791,0,0,0-2.668-.809,71.582,71.582,0,0,0-9.837.087L401.846,215a14.042,14.042,0,0,0-3.961.4,18.282,18.282,0,0,1-2.858,1.3C392.913,217.144,390.587,216.844,388.674,218.031Z" transform="translate(-253.021 -141.735)" fill="#3f3d56"/>
    <path id="Path_7" data-name="Path 7" d="M486.964,266.615a.793.793,0,0,0-.574.13.724.724,0,0,0-.187.443,2.923,2.923,0,0,0,.424,2.092,2.048,2.048,0,0,0,1.875.9c.888-.113,1.542-.871,2.358-1.24,1.258-.569,6.6-1.456,2.9-3.453-1.274-.688-2.1-.081-3.1.372A7.055,7.055,0,0,1,486.964,266.615Z" transform="translate(-315.989 -174.734)" fill="#3f3d56"/>
    <path id="Path_8" data-name="Path 8" d="M576.631,220.33a2.11,2.11,0,0,0-1.027.894.9.9,0,0,0,.338,1.2,1.346,1.346,0,0,0,.5.08l1.755.052c.745.022,1.676.181,1.877.9.149.533-.184,1.219.218,1.6a1.131,1.131,0,0,0,.6.233,4.067,4.067,0,0,0,1.768.057c1.277-.342.606-1.122,1.008-1.815.615-1.062.509-.419,1.593-1.027.8-.449,1.835-1.264,1.167-2.41C585.265,218.1,578.346,219.474,576.631,220.33Z" transform="translate(-373.287 -145.161)" fill="#3f3d56"/>
    <path id="Path_9" data-name="Path 9" d="M661.193,219.455l-1.019.136a41.039,41.039,0,0,0-6.821,1.306,11.353,11.353,0,0,0,2.987.733,9.178,9.178,0,0,1,1.673.238c.977.291,1.962,1.042,2.906.657.586-.239.777-.848,1.262-1.171.335-.223,1.605-.584,1.747-.809C665.077,218.725,662.076,219.338,661.193,219.455Z" transform="translate(-423.218 -145.288)" fill="#3f3d56"/>
    <path id="Path_10" data-name="Path 10" d="M679.305,231.023a19.106,19.106,0,0,0-3.76,2.753,2.276,2.276,0,0,0-.924,1.665c.058.871.986,1.377,1.79,1.717l3.257,1.379c.4-.557.033-1.326-.375-1.873s-.894-1.18-.713-1.839c.206-.752,1.122-1.008,1.891-1.137,1.252-.211,4.629-.194,4.224-2.212C684.216,229.1,680.562,230.32,679.305,231.023Z" transform="translate(-436.856 -152.225)" fill="#3f3d56"/>
    <path id="Path_11" data-name="Path 11" d="M685.463,583.488a3.108,3.108,0,0,0,.2,2.739,2.775,2.775,0,0,0,2.848.984,5.132,5.132,0,0,0,2.645-1.7,9.109,9.109,0,0,0,1.521-2.333,18.216,18.216,0,0,0,1.127-4.125l1.011-5.31c.226-1.187.217-4.825-1.964-3.639-.6.324-1.975,2.88-2.6,3.605-1.125,1.307-1.274,2.575-1.867,4.157C687.64,579.849,686.149,581.5,685.463,583.488Z" transform="translate(-443.668 -370.147)" fill="#3f3d56"/>
    <path id="Path_12" data-name="Path 12" d="M1001.455,681.833a15.9,15.9,0,0,1-2.072-.987,17.467,17.467,0,0,0-1.051,5.726l4.883-2.763c.735-.416,1.567-.993,1.552-1.837a.581.581,0,0,0-.27-.528.657.657,0,0,0-.342-.04,8.263,8.263,0,0,0-2.067.664,2.524,2.524,0,0,1-2.109.011" transform="translate(-644.467 -441.321)" fill="#3f3d56"/>
    <path id="Path_13" data-name="Path 13" d="M1064.725,685.119a10.568,10.568,0,0,0-1.566.562c-1.121.57-1.883,1.653-2.892,2.4a11.467,11.467,0,0,1-3.267,1.5.783.783,0,0,0,.183,1.154,2.265,2.265,0,0,0,1.29.29,6.813,6.813,0,0,0,3.471-.535,10.953,10.953,0,0,0,1.634-1.3,17.307,17.307,0,0,1,4.113-2.326,4.723,4.723,0,0,0,1.433-.857c.906-.893.97-2.271-.337-2.574C1067.73,683.192,1065.729,684.794,1064.725,685.119Z" transform="translate(-681.974 -442.967)" fill="#3f3d56"/>
    <path id="Path_14" data-name="Path 14" d="M1102.879,661.472a4.073,4.073,0,0,0-1.246-3.338,6.35,6.35,0,0,1-.742,3.556c-.493.724-1.265,1.214-1.8,1.9a1.854,1.854,0,0,0-.146,2.389,2.373,2.373,0,0,0,1.406.484c1.26.148,2.719.231,3.6-.68.482-.5.717-1.233,1.306-1.6a1.588,1.588,0,0,0,.573-.41c.243-.386-.143-.9-.578-1.034s-.913-.074-1.35-.206-.837-.623-.613-1.021" transform="translate(-708.748 -426.755)" fill="#3f3d56"/>
    <path id="Path_15" data-name="Path 15" d="M1018.863,534.187a5.665,5.665,0,0,1-2.021.119,7.321,7.321,0,0,1-2.9-1.745,12.8,12.8,0,0,0-7.476-2.612c-2.461-.046-4.946.621-7.363.155a2.9,2.9,0,0,0,1.712,1.929c.8.392,1.687.589,2.493.972a5.952,5.952,0,0,1,2.883,3,8.466,8.466,0,0,0,.816,1.794,4.139,4.139,0,0,0,3.671,1.23c1.753-.115,3.583-.619,5.214.034a13.387,13.387,0,0,1,3.182,2.44c1.042.849,2.509,1.479,3.7.866a6.124,6.124,0,0,1-4.237-5.893c1.173.108,4.552.066,4.37-1.927C1022.754,532.861,1019.871,534,1018.863,534.187Z" transform="translate(-644.96 -344.543)" fill="#3f3d56"/>
    <path id="Path_16" data-name="Path 16" d="M948.779,569.751c.208-1.142,1.347-2.151.993-3.257a2,2,0,0,0-1.935-1.161c-.8-.019-1.591.22-2.394.243a11.675,11.675,0,0,0-1.568.022c-1.593.262-2.575,1.932-4.077,2.526a24.776,24.776,0,0,1-2.888.542c-2.156.567-3.519,2.6-5.026,4.246a17.936,17.936,0,0,1-9.1,5.309,8.316,8.316,0,0,0-3.517,1.261c-1.29,1.054-1.608,2.861-1.895,4.5a74.355,74.355,0,0,1-3.62,13.289l5.118.654a6.959,6.959,0,0,0,2.919-.042,8.473,8.473,0,0,0,1.92-1.023,19.168,19.168,0,0,1,7.489-2.7,7.951,7.951,0,0,1,4,.281,3.722,3.722,0,0,1,2.442,2.977,3.144,3.144,0,0,1,3.143.764,5.463,5.463,0,0,1,1.5,3c.135.7.27,1.539.919,1.833.53.24,1.138-.018,1.718-.065,1.968-.158,3.6,2.137,5.535,1.742,2.074-.424,2.584-3.53,4.607-4.153,1.162-.357,2.793.077,3.349-1,.491-.953-.488-2.052-.387-3.12.124-1.314,1.674-1.871,2.869-2.432a8.946,8.946,0,0,0,4.077-11.565c-1.183-2.422-3.509-4.329-3.939-6.991-.331-2.047.477-4.435-.829-6.047-.664-.82-1.789-1.272-2.184-2.251a11.1,11.1,0,0,1-.283-1.965c-.134-.651-.7-1.331-1.344-1.162-1.865.489-2.46,6.25-3.458,7.649A2.315,2.315,0,0,1,948.779,569.751Z" transform="translate(-590.219 -366.364)" fill="#3f3d56"/>
    <path id="Path_17" data-name="Path 17" d="M910.583,547.431a3,3,0,0,0-1.944-.1c-.611.255-.967,1.152-.477,1.6a65.813,65.813,0,0,1,11.491.223c4.379.6,8.713,2.086,13.112,1.649a66.737,66.737,0,0,0-7.649-1.775l-4.306-.823a33.288,33.288,0,0,0-3.5-.54C914.857,547.459,913,548.109,910.583,547.431Z" transform="translate(-586.489 -355.611)" fill="#3f3d56"/>
    <path id="Path_18" data-name="Path 18" d="M919.457,502.35c-.318-.027-.712-.049-.877.224s.023.607-.062.9c-.115.4-.64.5-1.053.448a2.018,2.018,0,0,0-1.226.014,1.04,1.04,0,0,0-.4,1.181,3.041,3.041,0,0,0,.709,1.13,11.547,11.547,0,0,0,1.839,1.845c1.318.973,3.1,1.441,3.932,2.853a1.894,1.894,0,0,0,.525.707,1.46,1.46,0,0,0,1.347-.136l1.5-.687a1.709,1.709,0,0,0,.7-.478,1.545,1.545,0,0,0-.156-1.631,2.8,2.8,0,0,1-.6-1.6c.11-1.026,1.43-1.419,1.973-2.3s.191-2.026.254-3.064c.074-1.215.837-2.795-.391-3.7-1.044-.771-2.041-.059-2.79.793C923.109,500.647,922.362,502.592,919.457,502.35Z" transform="translate(-591.526 -323.88)" fill="#3f3d56"/>
    <path id="Path_19" data-name="Path 19" d="M950.972,453.685c.513.983,1.583,1.569,2.143,2.526.607,1.037.538,2.378,1.2,3.383.675,1.032,2.034,1.579,2.413,2.753.413,1.281-.525,2.838.223,3.958a1.661,1.661,0,0,0,2.437.224,1.787,1.787,0,0,0-.074-2.494c-.443-.4-1.078-.578-1.448-1.05a2.2,2.2,0,0,1-.375-.913,5.98,5.98,0,0,1,.094-2.865,1.275,1.275,0,0,0,.072-.75c-.166-.484-.821-.518-1.281-.742-1.044-.51-1.019-1.983-.836-3.131-.121.764-2.843-.535-3.128-.968-.566-.86-.258-2.518-.37-3.468A2.7,2.7,0,0,0,950.972,453.685Z" transform="translate(-613.914 -293.365)" fill="#3f3d56"/>
    <path id="Path_20" data-name="Path 20" d="M870.607,500.542c-.5-.562-1.259-1.15-1.932-.811a1.223,1.223,0,0,0-.454,1.508,3.32,3.32,0,0,0,1.1,1.306,38.238,38.238,0,0,1,4.139,3.547c2.191,2.408,3.351,5.656,5.734,7.874a3.216,3.216,0,0,0,1.805.977,1.4,1.4,0,0,0,1.553-1.072,2.045,2.045,0,0,0-.721-1.5c-.925-1.007-1.939-1.933-2.813-2.985a2.509,2.509,0,0,1-.719-1.5c0-.566.512-1.159,1.061-1.019-.667-.171-1.162-1.283-2.142-1.491-.819-.175-1.017.332-1.991-.086C873.367,504.487,871.909,502,870.607,500.542Z" transform="translate(-560.965 -325.1)" fill="#3f3d56"/>
    <path id="Path_21" data-name="Path 21" d="M979.165,348.355a15.385,15.385,0,0,1-1.57-.561c-1.38-.414-3.205.6-3.021,2.029.122.949,1.006,1.589,1.494,2.413a5.361,5.361,0,0,1,.15,4.137,3.234,3.234,0,0,1-.522,1.177,3.987,3.987,0,0,1-1.237.889,16.535,16.535,0,0,0-4.838,4.11,1.184,1.184,0,0,0-.292.551c-.066.482.419.834.693,1.236.609.894.169,2.1.229,3.176a.9.9,0,0,0,.378.788c.367.186.8-.13,1-.491.66-1.2.163-3.116,1.4-3.693.234-.109.518-.155.675-.361.248-.326.009-.81.134-1.2.189-.586.99-.612,1.6-.586a9.11,9.11,0,0,0,3.129-.417,2.083,2.083,0,0,0,1.036-.6,2.253,2.253,0,0,0,.263-1.706,23.131,23.131,0,0,0-2.733-8.339,4.968,4.968,0,0,0,3.21-.308c.526-.317,1.156-1.267.9-1.913C980.835,347.666,980.089,348.526,979.165,348.355Z" transform="translate(-625.862 -227.661)" fill="#3f3d56"/>
    <path id="Path_22" data-name="Path 22" d="M527.977,380.746a4.189,4.189,0,0,1,.029,2.106,1.44,1.44,0,0,1-1.628,1.028c-.528-.16-.832-.69-1.207-1.095-2.083-2.249-6.783-.947-8.07-3.729-.525-1.136-.168-2.5-.526-3.695a3.289,3.289,0,0,0-3.33-2.262,6.844,6.844,0,0,0-1.916.572,48.322,48.322,0,0,1-12.7,3.176,10.432,10.432,0,0,0-2.44.444,7.725,7.725,0,0,0-3.881,4,30.942,30.942,0,0,1-2.678,5.028,22.33,22.33,0,0,1-4.545,3.884,4.637,4.637,0,0,0-1.5,1.572,4.916,4.916,0,0,0-.3,2.335l.327,9.628a8.7,8.7,0,0,0,.649,3.629c.692,1.384,2.059,2.29,3.008,3.513a6.88,6.88,0,0,1,1.427,4.394c-.02.637-.084,1.391.413,1.791a1.815,1.815,0,0,0,1.015.292l13.023,1.066c2.291.188,4.83.5,6.326,2.241.706.824,1.273,2.008,2.354,2.1a8.751,8.751,0,0,0,1.379-.189,3.386,3.386,0,0,1,2.847,1.774,7.871,7.871,0,0,1,1.264,5.05c-.106,1.116-.452,2.2-.527,3.32-.284,4.257,3.324,7.955,3.394,12.22.041,2.509-1.15,4.853-2.311,7.078,1.874,2.839.339,6.62,1.086,9.939.708,3.149,3.333,5.614,3.988,8.774.3,1.447.317,3.227,1.593,3.973a3.631,3.631,0,0,0,1.8.361,23.758,23.758,0,0,0,10.819-2.463c1.578-.783,3.213-1.952,3.488-3.691.222-1.4-.489-2.972.235-4.194.853-1.44,3.039-1.326,4.294-2.433,2.037-1.8.449-5.222,1.274-7.809.742-2.326,3.3-3.561,4.561-5.648a10.037,10.037,0,0,0,1.06-2.872,40.967,40.967,0,0,0,1.078-7.326,43.944,43.944,0,0,1,.331-4.487c1.365-8.478,9.746-14.155,12.467-22.3.26-.778.382-1.814-.31-2.254a1.982,1.982,0,0,0-1.318-.138l-6,.757a4.133,4.133,0,0,1-2.221-.128,1.425,1.425,0,0,1-.812-1.834c1.02-1.847-1.078-4.181-2.01-6.074a89.635,89.635,0,0,0-8.925-14.474,1.471,1.471,0,0,1-.391-.85l1.7.057c-.575-2.064-1.524-4.322-3.529-5.077a8.786,8.786,0,0,0-3.587-.212A52.412,52.412,0,0,1,527.977,380.746Z" transform="translate(-314.138 -243.946)" fill="#3f3d56"/>
    <path id="Path_23" data-name="Path 23" d="M558.331,239.758a5.819,5.819,0,0,0,3.223,2.144c2.309.3,3.969-2.092,5.026-4.166a2.036,2.036,0,0,0,2.124,1.883,4.194,4.194,0,0,0,1.6-.625,31.478,31.478,0,0,1,14.913-3.855,1.611,1.611,0,0,1,1.23-1.77c1.06-.21,2.015.706,2.526,1.658a9.132,9.132,0,0,0,1.643,2.768c.812.713,2.385.682,2.706-.35.308-.991-.724-1.835-1.581-2.42s-1.761-1.665-1.184-2.527a77.031,77.031,0,0,1,13.27-2.136,5.557,5.557,0,0,0,2.234-.385,1.736,1.736,0,0,0,1.043-1.836,5.058,5.058,0,0,1-5.279-1.991c6.22-.513,12.835-.951,18.346,1.976.661,1.42-2.71,2.6-1.808,3.882a1.633,1.633,0,0,0,1.364.466,67.626,67.626,0,0,0,11.47-.437,15.359,15.359,0,0,1,4.171-.338c2.314.285,4.294,1.83,6.571,2.333a3.516,3.516,0,0,0,2.747-.327,1.742,1.742,0,0,0,.477-2.467c2.144-2.1,5.7-1.58,8.53-.574s5.507,2.628,8.5,2.852c2.146.161,4.323-.417,6.444-.05a40.117,40.117,0,0,1,3.876,1.188c2.464.689,5.07.544,7.628.577a53.449,53.449,0,0,1,19.047,3.785,5.663,5.663,0,0,1,2.117,1.251,2.076,2.076,0,0,1,.473,2.278l-6.267-.916c.59,1.162,2.118,1.36,3.358,1.761s2.527,1.771,1.781,2.84c-1.344-.428-2.562.916-3.241,2.152s-1.506,2.717-2.915,2.793c-1.261.067-2.787-1.007-3.609-.048a24.611,24.611,0,0,1,2.9,4.636c.812,1.692,1.391,3.824.293,5.347a1.386,1.386,0,0,1-.741.575c-.9.227-1.479-.87-2.122-1.535a7.7,7.7,0,0,0-3.133-1.468c-1.1-.393-2.253-1.166-2.339-2.328a4.65,4.65,0,0,1,.61-2.064,7.951,7.951,0,0,0,.6-3.566,4.05,4.05,0,0,0-1.041-2.687,2.086,2.086,0,0,0-2.677-.275c-.353.293-.636.761-1.094.779-.81.031-1.432-1.381-2.083-.9a2.214,2.214,0,0,1-.3,1.48c-1.944,1.691-4.931.976-7.437,1.573a13.957,13.957,0,0,0-3.393,1.482,2.183,2.183,0,0,0-.97.814,1.5,1.5,0,0,0,.584,1.791,4.632,4.632,0,0,0,1.924.657,18.927,18.927,0,0,1,8.568,3.437c2.412,1.963,3.994,5.207,3.231,8.222l-6.026-5.758q.343,3.626.39,7.273a3.27,3.27,0,0,1-.191,1.4c-.43.949-1.594,1.268-2.614,1.478a2.048,2.048,0,0,0-1.572,2.623,8.555,8.555,0,0,0,2.094,3.021,5.8,5.8,0,0,1,1.75,3.192c.108,1.231-.82,2.619-2.053,2.533a2.709,2.709,0,0,1-2.027-1.749,11.113,11.113,0,0,0-1.235-2.513c-1.813-2.18-5.885-1.246-7.509-3.571a3.673,3.673,0,0,0-.76,3.5,1.925,1.925,0,0,1,2.358.654,16.116,16.116,0,0,1,1.281,2.34c.6,1.042,1.559,1.965,1.643,3.165a10.338,10.338,0,0,0,.023,1.361,5.5,5.5,0,0,0,1.19,1.857,5.331,5.331,0,0,1,.3,4.961,15.3,15.3,0,0,1-2.924,4.245,51.2,51.2,0,0,1-6.368,6.413,6.69,6.69,0,0,0-1.807,1.819,1.973,1.973,0,0,0,.2,2.38c-.46.023-1.285.249-1.745.272a40.586,40.586,0,0,1-.105-5.551c-1.816-.872-3.771,1.463-3.536,3.464s1.681,3.606,2.711,5.337a6.306,6.306,0,0,1,1.062,4.193,3.083,3.083,0,0,1-3.014,2.662c-2.334-.2-3.31-3.554-5.622-3.938a.944.944,0,0,0-.608.06c-.343.188-.4.647-.422,1.038a12.885,12.885,0,0,0,.572,5.682c1.1,2.588,3.926,4.761,3.332,7.508-3.2-1.487-4.862-5.074-5.616-8.519s-.881-7.062-2.234-10.319c-1.028,1.317-3.188.228-4.127-1.154-.89-1.31-1.438-2.826-2.3-4.153a5.106,5.106,0,0,0-3.769-2.59c-1.659-.077-3.1,1.062-4.363,2.138a10.173,10.173,0,0,0-2.717,3.027c-.885,1.779-.653,3.877-.7,5.864a8.954,8.954,0,0,1-1.965,5.986c-1.464,1.572-4.166,2.12-5.781.7a6.515,6.515,0,0,1-1.615-2.906,142.272,142.272,0,0,1-4.371-15.605c-.271,1.205-1.33,2.759-2.341,2.049a2.1,2.1,0,0,1-.539-.695c-1.886-3.2-5.378-5.114-8.907-6.263s-7.242-1.686-10.731-2.949a27.181,27.181,0,0,1-5.567-2.773,4.378,4.378,0,0,0-.268,4.479,3.567,3.567,0,0,0,4.025,1.685c.775-.248,1.429-.785,2.2-1.051a1.715,1.715,0,0,1,2.137.605c.322.709-.165,1.567.077,2.307.367,1.128,2.068,1.214,2.663,2.24a2.064,2.064,0,0,1-.553,2.393,10.016,10.016,0,0,1-2.246,1.383c-2.5,1.391-4.281,3.766-6.468,5.614s-5.272,3.2-7.878,2.012c.621-3.145-3.126-5.455-3.815-8.586-.227-1.031-.109-2.125-.433-3.13-.469-1.454-1.759-2.454-2.817-3.556a13.956,13.956,0,0,1-3.828-10.154,14.253,14.253,0,0,0,0-3.871,2.9,2.9,0,0,0-2.633-2.425c-2.956.131-6.679.35-8.23-2.169-.553-.9-.794-2.216.006-2.905a2.81,2.81,0,0,1,2.139-.367l6.66.655c1.558.153,3.241.28,4.578-.535s1.916-2.976.678-3.934c-.9-.7-2.524-.662-2.787-1.775-.219-.927.807-1.979.253-2.753-.4-.555-1.291-.4-1.832.015a11.736,11.736,0,0,1-1.54,1.341c-1.063.553-2.332.027-3.476-.331s-2.676-.388-3.231.674c-.62,1.188.55,2.744-.065,3.934-.814,1.573-3.57.678-4.713,2.031-1.311,1.553.892,3.869.45,5.852a3.643,3.643,0,0,1-3.589-.2,3.486,3.486,0,0,1-1.507-3.246c.109-.892.575-1.8.263-2.647a3.105,3.105,0,0,0-1.573-1.439l-6.472-3.576c-.6,1.115.159,2.5,1.109,3.334s2.14,1.468,2.764,2.57a3.373,3.373,0,0,1-1.269,4.447.778.778,0,0,1-.642.112.9.9,0,0,1-.416-.559c-1.142-2.922-2.856-5.8-5.6-7.33s-6.679-1.213-8.477,1.359c-.427.611-.713,1.307-1.085,1.953-1.976,3.431-6.212,5.055-10.169,4.949a2.02,2.02,0,0,1-1.109-.261c-.64-.442-.611-1.379-.513-2.15l.415-3.272a2.6,2.6,0,0,1,.724-1.794c.733-.578,1.791-.213,2.724-.227a3.453,3.453,0,0,0,3.134-2.419,3.891,3.891,0,0,0-1.083-3.87c-.428-.4-1-.907-.776-1.449a1.2,1.2,0,0,1,.84-.566c1.677-.487,3.449-.615,5.1-1.189a5.294,5.294,0,0,0,3.639-3.453c.12-.522.174-1.154.643-1.412a1.928,1.928,0,0,1,.743-.152,3.614,3.614,0,0,0,3.1-3.768,2.359,2.359,0,0,1,2.662.441,7.492,7.492,0,0,0,2.37,1.617c1.734.472,3.409-1.063,5.206-1.07a6.706,6.706,0,0,0,2.249.008c.721-.26,1.151-.977,1.7-1.507s1.524-.853,2.034-.282l-.435-3.221a6.333,6.333,0,0,0,5.154-.932l-5.621-1.9a1.222,1.222,0,0,1-.526-.281c-.409-.44,0-1.126.33-1.626.795-1.2.928-3.168-.379-3.764a3.213,3.213,0,0,0-2.773.559l-4.1,2.288c-.13.78.823,1.222,1.414,1.747a2.371,2.371,0,0,1-1.546,4.143,2.954,2.954,0,0,1,.528,2.5l-2.76.2a1.2,1.2,0,0,1-.9-.175c-.3-.262-.255-.722-.324-1.111a2.41,2.41,0,0,0-2.022-1.765,7.112,7.112,0,0,0-2.826.261,1.687,1.687,0,0,1-1.215-.028,1.213,1.213,0,0,1-.481-.607,3.117,3.117,0,0,1,.627-2.992,16.607,16.607,0,0,1,2.353-2.164,13.716,13.716,0,0,0,4.078-6.326c1.52-.637,3.093-1.5,4.612-2.138a14.113,14.113,0,0,1,7.586-1.47l5.146.1a12.339,12.339,0,0,1,4.5.647,4.194,4.194,0,0,1,2.744,3.358,1.031,1.031,0,0,1-.33.942,1.216,1.216,0,0,1-.651.147C560.358,239.354,559.752,239.708,558.331,239.758Z" transform="translate(-333.917 -149.468)" fill="#3f3d56"/>
    <path id="Path_24" data-name="Path 24" d="M515.357,306.677a1.506,1.506,0,0,0,.411-1.514,2.817,2.817,0,0,0-2.917.551,4.916,4.916,0,0,0-.781,1.033,4.606,4.606,0,0,0-.882,3.654,1.038,1.038,0,0,0,.475.65,1.25,1.25,0,0,0,.554.087,18.56,18.56,0,0,0,2.229-.137c.454-.056.982-.184,1.157-.606.231-.555-.328-1.184-.165-1.763a1.925,1.925,0,0,1,.476-.681.9.9,0,0,0,.28-.756c-.066-.272-.482-.426-.631-.19" transform="translate(-331.961 -200.259)" fill="#3f3d56"/>
    <path id="Path_25" data-name="Path 25" d="M528.8,295.476a6.234,6.234,0,0,0-2.019-.127.881.881,0,0,0-.43.1.719.719,0,0,0-.265.384,1.908,1.908,0,0,0,1.111,2.338,2.386,2.386,0,0,1,.689.277c.571.443.207,1.349.315,2.064.121.8.9,1.476.756,2.276-.112.63-.785,1.128-.676,1.758.113.66.951.859,1.619.911a2.036,2.036,0,0,0,1.147-.131,1.776,1.776,0,0,0,.724-1.048,6.714,6.714,0,0,0,.338-2.529,2.4,2.4,0,0,0-.285-1.116,6.232,6.232,0,0,0-.667-.763C529.872,298.379,531.219,296.159,528.8,295.476Z" transform="translate(-341.537 -194.066)" fill="#3f3d56"/>
    <path id="Path_26" data-name="Path 26" d="M504.484,430.229S406.5,373.983,364.312,384.64c0,0-89.4,9.621-99.762,30.787,0,0-28.419-88.809-38.78-91.769" transform="translate(-148.991 -212.241)" fill="none" stroke="#6c63ff" stroke-miterlimit="10" stroke-width="2" opacity="0.8"/>
    <path id="Path_27" data-name="Path 27" d="M264.55,414.368C280.98,370.556,429,322.007,429,322.007c-21.018,5.329-64.683,61.574-64.683,61.574s-92.361-67.2-138.542-60.982c0,0,203.373,6.661,278.713,106.571" transform="translate(-148.991 -211.183)" fill="none" stroke="#6c63ff" stroke-miterlimit="10" stroke-width="2" opacity="0.8"/>
    <circle id="Ellipse_1" data-name="Ellipse 1" cx="4.292" cy="4.292" r="4.292" transform="translate(72.487 107.124)" fill="#6c63ff"/>
    <circle id="Ellipse_2" data-name="Ellipse 2" cx="4.292" cy="4.292" r="4.292" transform="translate(111.267 198.893)" fill="#6c63ff"/>
    <circle id="Ellipse_3" data-name="Ellipse 3" cx="4.292" cy="4.292" r="4.292" transform="translate(275.712 106.532)" fill="#6c63ff"/>
    <circle id="Ellipse_4" data-name="Ellipse 4" cx="4.292" cy="4.292" r="4.292" transform="translate(351.2 213.695)" fill="#6c63ff"/>
    <circle id="Ellipse_5" data-name="Ellipse 5" cx="4.292" cy="4.292" r="4.292" transform="translate(211.029 168.106)" fill="#6c63ff"/>
  </g>
</svg>
