<svg xmlns="http://www.w3.org/2000/svg" width="450.218" height="346.809" viewBox="0 0 450.218 346.809">
  <g id="undraw_questions_75e0" transform="translate(-0.004 0)">
    <path id="Path_1" data-name="Path 1" d="M295.161,39.8c20.258-7.53,44.919-1.054,65.98,8.391,66.146,29.671,114.335,86,152.621,143.378,13.862,20.778,27.03,42.471,32.241,65.666,10.611,47.211-17.065,96.086-64.132,113.213-16.006,5.83-33.591,8.221-51.2,9.553-31.317,2.372-63.742,1.431-94.808-7.355-22.155-6.279-43.112-16.378-63.213-27.536-56.136-31.178-107.4-71.667-144.315-121.125-16.19-21.693-29.886-46.148-30.281-71.178s15.916-50.18,42.753-54.436c11.1-1.758,22.832.072,34.282,1.955,16.858,2.776,33.945,5.7,50.611,4.485,17.217-1.26,39.609-7.987,42.749-24.424C271.769,62.738,274.931,47.32,295.161,39.8Z" transform="translate(-98.04 -34.309)" fill="#6c63ff" opacity="0.1"/>
    <path id="Path_50" data-name="Path 50" d="M631.051,212.207H600.03V181.639h31.044Zm-.448-46.09H600.478c0-47.5,45.153-44.727,45.153-74.779a29.949,29.949,0,0,0-30.1-29.815c-16.553,0-30.1,14.3-30.1,30.286h-30.1a60.2,60.2,0,0,1,120.4-.471c0,37.578-45.148,41.856-45.148,74.779Z" transform="translate(-350.244 -31.61)" fill="#6c63ff"/>
    <path id="Path_51" data-name="Path 51" d="M355.2,356.644h-8v-7.9h8Zm-.121-11.885H347.32c0-12.243,11.638-11.53,11.638-19.285a7.723,7.723,0,0,0-7.759-7.691,7.925,7.925,0,0,0-7.741,7.8H335.7a15.521,15.521,0,1,1,31.041-.121c-.025,9.687-11.663,10.79-11.663,19.276Z" transform="translate(-229.112 -185.151)" fill="#6c63ff" opacity="0.1"/>
    <path id="Path_52" data-name="Path 52" d="M490.235,479.076h-8V471.2h8Zm-.117-11.88H482.36c0-12.248,11.638-11.53,11.638-19.284a7.718,7.718,0,0,0-7.759-7.687,7.925,7.925,0,0,0-7.781,7.812H470.7a15.521,15.521,0,1,1,31.041-.121C501.752,457.6,490.119,458.711,490.119,467.2Z" transform="translate(-303.568 -252.686)" fill="#6c63ff" opacity="0.1"/>
    <path id="Path_53" data-name="Path 53" d="M579,278.158h-5.8v-5.7H579Zm-.085-8.615H573.3c0-8.871,8.436-8.355,8.436-13.97a5.6,5.6,0,0,0-5.624-5.57,5.74,5.74,0,0,0-5.624,5.66H564.86a11.248,11.248,0,0,1,22.5-.09C587.347,262.591,578.92,263.394,578.92,269.543Z" transform="translate(-355.5 -148.952)" fill="#6c63ff" opacity="0.1"/>
    <path id="Path_54" data-name="Path 54" d="M807.384,314.38h-3.278v-3.229h3.278Zm-.049-4.866h-3.2c0-5.014,4.767-4.722,4.767-7.9a3.139,3.139,0,0,0-3.175-3.139,3.247,3.247,0,0,0-3.18,3.2h-3.18a6.359,6.359,0,0,1,12.714-.049C812.1,305.567,807.335,306.038,807.335,309.514Z" transform="translate(-484.837 -177.128)" fill="#6c63ff" opacity="0.1"/>
    <path id="Path_55" data-name="Path 55" d="M919.166,641.85h-3.278v-3.229h3.278Zm-.049-4.866h-3.18c0-5.018,4.772-4.722,4.772-7.9a3.162,3.162,0,0,0-3.18-3.139,3.242,3.242,0,0,0-3.18,3.2h-3.18a6.359,6.359,0,0,1,12.714-.049c.018,3.96-4.749,4.413-4.749,7.889Z" transform="translate(-546.498 -357.736)" fill="#6c63ff" opacity="0.1"/>
  </g>
</svg>
