<svg xmlns="http://www.w3.org/2000/svg" xmlns:xlink="http://www.w3.org/1999/xlink" width="986.971" height="637.18" viewBox="0 0 986.971 637.18">
  <defs>
    <style>
      .cls-1 {
        opacity: 0.5;
      }

      .cls-2, .cls-29 {
        fill: #ed64a6;
      }

      .cls-3 {
        fill: #dce0ed;
      }

      .cls-29, .cls-4, .cls-7 {
        opacity: 0.1;
      }

      .cls-5 {
        fill: #f0f0f4;
      }

      .cls-6 {
        fill: #636780;
      }

      .cls-15, .cls-20, .cls-7 {
        fill: #fff;
      }

      .cls-8 {
        opacity: 0.15;
      }

      .cls-9 {
        fill: url(#linear-gradient);
      }

      .cls-10 {
        fill: #795548;
      }

      .cls-11 {
        fill: url(#linear-gradient-2);
      }

      .cls-12 {
        fill: #4c4981;
      }

      .cls-13 {
        fill: url(#linear-gradient-3);
      }

      .cls-14 {
        fill: url(#linear-gradient-13);
      }

      .cls-16 {
        fill: url(#linear-gradient-20);
      }

      .cls-17 {
        fill: url(#linear-gradient-27);
      }

      .cls-18 {
        fill: #71412d;
      }

      .cls-19 {
        fill: none;
        stroke: #71412d;
        stroke-miterlimit: 10;
        stroke-width: 1.84px;
      }

      .cls-20, .cls-22 {
        opacity: 0.2;
      }

      .cls-21 {
        fill: url(#linear-gradient-28);
      }

      .cls-23 {
        fill: url(#linear-gradient-29);
      }

      .cls-24 {
        fill: url(#linear-gradient-32);
      }

      .cls-25 {
        fill: url(#linear-gradient-33);
      }

      .cls-26 {
        fill: url(#linear-gradient-34);
      }

      .cls-27 {
        fill: #d5b7ac;
      }

      .cls-28 {
        fill: #ff6e40;
      }

      .cls-30 {
        fill: #a8a8a8;
      }
    </style>
    <linearGradient id="linear-gradient" x1="0.5" y1="1" x2="0.5" gradientUnits="objectBoundingBox">
      <stop offset="0" stop-color="gray" stop-opacity="0.251"/>
      <stop offset="0.54" stop-color="gray" stop-opacity="0.122"/>
      <stop offset="1" stop-color="gray" stop-opacity="0.102"/>
    </linearGradient>
    <linearGradient id="linear-gradient-2" x1="0.5" y1="1" x2="0.5" y2="0" xlink:href="#linear-gradient"/>
    <linearGradient id="linear-gradient-3" x1="0.5" y1="1" x2="0.5" y2="0" xlink:href="#linear-gradient"/>
    <linearGradient id="linear-gradient-13" x1="-0.001" y1="0.501" x2="1" y2="0.501" xlink:href="#linear-gradient"/>
    <linearGradient id="linear-gradient-20" x1="0" y1="0.499" x2="1.001" y2="0.499" xlink:href="#linear-gradient"/>
    <linearGradient id="linear-gradient-27" x1="-0.001" y1="0.499" x2="1" y2="0.499" xlink:href="#linear-gradient"/>
    <linearGradient id="linear-gradient-28" x1="0" y1="0.5" x2="1" y2="0.5" xlink:href="#linear-gradient"/>
    <linearGradient id="linear-gradient-29" x1="0.501" y1="0.999" x2="0.501" y2="0" xlink:href="#linear-gradient"/>
    <linearGradient id="linear-gradient-32" x1="0.5" y1="1.001" x2="0.5" y2="0.001" xlink:href="#linear-gradient"/>
    <linearGradient id="linear-gradient-33" x1="0.498" y1="1" x2="0.498" y2="0" xlink:href="#linear-gradient"/>
    <linearGradient id="linear-gradient-34" x1="0.499" y1="1" x2="0.499" y2="0" xlink:href="#linear-gradient"/>
  </defs>
  <g id="undraw_Camping_2g8w_1_" data-name="undraw_Camping_2g8w (1)" transform="translate(0.001)">
    <g id="Group_1" data-name="Group 1" class="cls-1">
      <path id="Path_29" data-name="Path 29" class="cls-2" d="M334.87,255.45c-12,16.85-21.23,65.92-23.8,80.71l-21.48-.43c1.11-12.71,26.1-64.39,33-78.57C326.5,256.55,330.62,256,334.87,255.45Z" transform="translate(-64.52 -100.01)"/>
      <rect id="Rectangle_10" data-name="Rectangle 10" class="cls-3" width="9.52" height="13.41" transform="translate(529.311 144.038) rotate(-1.146)"/>
      <path id="Path_30" data-name="Path 30" class="cls-4" d="M603,244.48l.08,4.36a6.769,6.769,0,0,1-2.06.32l-7.45.08-.09-4.58Z" transform="translate(-64.52 -100.01)"/>
      <path id="Path_31" data-name="Path 31" class="cls-3" d="M588.79,210.59l9-.17a10.79,10.79,0,0,1,10.1,6.58c2.75,6.43,5.17,16.68-.49,27.06a7.4,7.4,0,0,1-6.44,3.87L589.5,248Z" transform="translate(-64.52 -100.01)"/>
      <ellipse id="Ellipse_12" data-name="Ellipse 12" class="cls-5" cx="9.62" cy="18.72" rx="9.62" ry="18.72" transform="translate(514.635 110.778) rotate(-1.08)"/>
      <rect id="Rectangle_11" data-name="Rectangle 11" class="cls-3" width="9.52" height="11.74" transform="translate(444.402 146.42) rotate(-1.08)"/>
      <path id="Path_32" data-name="Path 32" class="cls-4" d="M518.45,246.24l.07,3.73a7.089,7.089,0,0,1-2.06.31l-7.45.08-.08-3.94Z" transform="translate(-64.52 -100.01)"/>
      <path id="Path_33" data-name="Path 33" class="cls-3" d="M504.27,212.34l9-.17a10.8,10.8,0,0,1,10.12,6.54c2.75,6.43,5.17,16.69-.48,27.07a7.45,7.45,0,0,1-6.45,3.87l-11.46.12Z" transform="translate(-64.52 -100.01)"/>
      <ellipse id="Ellipse_13" data-name="Ellipse 13" class="cls-5" cx="9.62" cy="18.72" rx="9.62" ry="18.72" transform="translate(430.113 112.531) rotate(-1.08)"/>
      <path id="Path_34" data-name="Path 34" class="cls-3" d="M506.8,219.14s-3.54.63-1.6,5.28a32.47,32.47,0,0,1,2.26,7.06s3.58,1.78,3.33-4.32S506.8,219.14,506.8,219.14Z" transform="translate(-64.52 -100.01)"/>
      <ellipse id="Ellipse_14" data-name="Ellipse 14" class="cls-6" cx="56.15" cy="61.54" rx="56.15" ry="61.54" transform="translate(29.442 332.869) rotate(-1.08)"/>
      <path id="Path_35" data-name="Path 35" class="cls-4" d="M171.22,435.25c-29.34,2.54-52.1,29.71-51.49,62.41.5,26.35,16,48.55,37.46,56.91,29.34-2.53,52.11-29.71,51.49-62.4C208.18,465.81,192.64,443.62,171.22,435.25Z" transform="translate(-64.52 -100.01)"/>
      <ellipse id="Ellipse_15" data-name="Ellipse 15" class="cls-6" cx="45.57" cy="59.42" rx="45.57" ry="59.42" transform="translate(476.881 192.031) rotate(-1.08)"/>
      <path id="Path_36" data-name="Path 36" class="cls-4" d="M574.29,293.89c-18.76,7.59-32.13,30.63-31.62,57.62.55,28.84,16.76,52.58,37.76,57.58,18.76-7.6,32.13-30.64,31.62-57.62C611.5,322.63,595.29,298.89,574.29,293.89Z" transform="translate(-64.52 -100.01)"/>
      <path id="Path_37" data-name="Path 37" class="cls-2" d="M416.7,341.12l.44-21.59s-4.4-9.22-8.65-10-14-1.11-14-1.11-7,31.12-1.77,40.33S416.7,341.12,416.7,341.12Z" transform="translate(-64.52 -100.01)"/>
      <path id="Path_38" data-name="Path 38" class="cls-4" d="M416.7,341.12l.44-21.59s-4.4-9.22-8.65-10-14-1.11-14-1.11-7,31.12-1.77,40.33S416.7,341.12,416.7,341.12Z" transform="translate(-64.52 -100.01)"/>
      <path id="Path_39" data-name="Path 39" class="cls-2" d="M338.64,340.26s-3.19-29.85,13.24-30.7c2.11-.11,4.23-.2,6.33-.44,11.37-1.32,42.39-4.3,38.8,2.86,0,0-6.91,26.15-1.71,32.61Z" transform="translate(-64.52 -100.01)"/>
      <path id="Path_40" data-name="Path 40" class="cls-2" d="M572.59,391.31l22,.22s3-40.66,4.25-43.86,1.55-18.43-2.61-20.57-18-4.58-18-4.58l-9.72,23.34-.39,20.95Z" transform="translate(-64.52 -100.01)"/>
      <path id="Path_41" data-name="Path 41" class="cls-4" d="M572.59,391.31l22,.22s3-40.66,4.25-43.86,1.55-18.43-2.61-20.57-18-4.58-18-4.58l-9.72,23.34-.39,20.95Z" transform="translate(-64.52 -100.01)"/>
      <path id="Path_42" data-name="Path 42" class="cls-2" d="M518,324.93l-.18-4.52a2.61,2.61,0,0,1,2.66-2.72c10.94.26,50.73,1.41,57.76,4.83,0,0-6.55,56.76,2.11,70.08l-2,45.4-97.5-5.45Z" transform="translate(-64.52 -100.01)"/>
      <path id="Path_43" data-name="Path 43" class="cls-4" d="M509.07,253.58c2.7-.32,5.91-.67,9.5-1l.1,5.41-9.52.18Z" transform="translate(-64.52 -100.01)"/>
      <path id="Path_44" data-name="Path 44" class="cls-4" d="M603.21,257.2v.68l-9.52.18-.07-4.11A40.249,40.249,0,0,1,603.21,257.2Z" transform="translate(-64.52 -100.01)"/>
      <path id="Path_45" data-name="Path 45" class="cls-3" d="M588.96,291.21l-14.37.48-30.73-53.43-5.13-8.92,3.37-22.91,3.03,5.48Z"/>
      <path id="Path_46" data-name="Path 46" class="cls-3" d="M457.68,227.27l-5.75,8.99-18.15-23.59-8.31-10.81,4.74-6.64,3.81,4.44Z"/>
      <path id="Path_47" data-name="Path 47" class="cls-4" d="M498.54,299.67c0,.46.07.93.11,1.4l-.35,11.61L490,301.87l4.74-6.64Z" transform="translate(-64.52 -100.01)"/>
      <path id="Path_48" data-name="Path 48" class="cls-4" d="M545.13,211.91l-1.27,26.35-5.13-8.92,3.37-22.91Z"/>
      <path id="Path_49" data-name="Path 49" class="cls-3" d="M482,316.83s-8.1-52.9,17.59-61.32a5.869,5.869,0,0,1,1-.22c5.94-.83,61.26-8.27,90.2-1.22,0,0,19.72,2.59,19.7,13.16l-6.22,129.36-14.17.26,3-85.51s6.14-37.34-5.1-39.66-62.29-5.59-80.17-.18c0,0-13.16-2.71-10.44,29.6l-.52,17.35Z" transform="translate(-64.52 -100.01)"/>
      <path id="Path_50" data-name="Path 50" class="cls-2" d="M525.46,331.77a8.2,8.2,0,0,0-3.47-7.24c-4-2.93-16.36-9.21-16.36-9.21l-3.95.4-11.34,29.72,2,62.62,21.9,26.08Z" transform="translate(-64.52 -100.01)"/>
      <path id="Path_51" data-name="Path 51" class="cls-4" d="M525.46,331.77a8.2,8.2,0,0,0-3.47-7.24c-4-2.93-16.36-9.21-16.36-9.21l-3.95.4-11.34,29.72,2,62.62,21.9,26.08Z" transform="translate(-64.52 -100.01)"/>
      <path id="Path_52" data-name="Path 52" class="cls-2" d="M441.28,399l-.8-64.28s-2.37-24.92,12.53-25.62c0,0,35.16-.41,50.52,4.26a3.41,3.41,0,0,1,2,4.89c-2.94,5.35-7.8,19.46-9.6,55.45l.73,38.53Z" transform="translate(-64.52 -100.01)"/>
      <path id="Path_53" data-name="Path 53" class="cls-2" d="M451.69,338.69l-63.99-.28h-.07l-31.45-.13,2.86-42.1,17.45.31,55.74,11.32,17.47,26.32Z"/>
      <path id="Path_54" data-name="Path 54" class="cls-4" d="M451.69,338.69l-63.99-.28h-.07l-31.45-.13,2.86-42.1,17.45.31,55.74,11.32,17.47,26.32Z"/>
      <path id="Path_55" data-name="Path 55" class="cls-2" d="M451.69,338.69l-63.99-.28-1.59-28.14,46.12-2.46,17.47,26.32Z"/>
      <path id="Path_56" data-name="Path 56" class="cls-7" d="M452.16,438.42l-31.45-.14,2.85-42.09s10.13,15.52,27.08,14.08Z" transform="translate(-64.52 -100.01)"/>
      <path id="Path_57" data-name="Path 57" class="cls-3" d="M678.42,468.16c-1,12.07-9.64,10.33-9.64,10.33l-1.6-.11-15.88-1.14.28-18.73a69.121,69.121,0,0,1,16.1.66C673.64,460.29,678.88,462.79,678.42,468.16Z" transform="translate(-64.52 -100.01)"/>
      <path id="Path_58" data-name="Path 58" class="cls-4" d="M678.42,468.16c-1,12.07-9.64,10.33-9.64,10.33l-1.6-.11a16.221,16.221,0,0,1-2.7-9c-.08-4.19,1.19-7.93,3.2-10.2C673.64,460.29,678.88,462.79,678.42,468.16Z" transform="translate(-64.52 -100.01)"/>
      <path id="Path_59" data-name="Path 59" class="cls-6" d="M430.38,314.84c-14.48.28-25.92,16.35-25.55,35.91s12.41,35.2,26.89,34.92,25.92-16.35,25.55-35.91S444.86,314.57,430.38,314.84Zm-2.5,63.5c-11,.21-20.2-11.12-20.47-25.31s8.46-25.86,19.5-26.07,20.19,11.13,20.46,25.32S438.91,378.13,427.88,378.34Z" transform="translate(-64.52 -100.01)"/>
      <path id="Path_60" data-name="Path 60" class="cls-6" d="M368,261.12l12.49,11.82,4.24-10.87-17.96-10.03Z"/>
      <path id="Path_61" data-name="Path 61" class="cls-2" d="M383.82,141.49l10.71,1.1,4.04,4.63-5.49,27.14-11.94,43.77-7.8,30.05-5.55,18.26-3.3,24.09-3.44,16.59L350,318.59,326.6,292l-3.93-8.94-9.35-18.22,23.06-11.32,25.48-2.74,11.43-31,9.08-35.84Z"/>
      <path id="Path_62" data-name="Path 62" class="cls-2" d="M170.27,274.37l-11.74,117.4L334.1,381.05l-21.39-57.13-34.24-21.35,77.41-.19-.19-32.15-31.42-6.17-63.1-3.89-47.4-1.22L168.8,274.61"/>
      <path id="Path_63" data-name="Path 63" class="cls-4" d="M170.27,274.37l-11.74,117.4L334.1,381.05l-21.39-57.13-34.24-21.35,77.41-.19-.19-32.15-31.42-6.17-63.1-3.89-47.4-1.22L168.8,274.61"/>
      <path id="Path_64" data-name="Path 64" class="cls-6" d="M477.05,486.58c.55,29.11-8.62,55.79-35.51,53.39-33.86-.08-37-22.9-37.5-52s15.38-51.08,35.54-51.46S476.5,457.47,477.05,486.58Z" transform="translate(-64.52 -100.01)"/>
      <path id="Path_65" data-name="Path 65" class="cls-4" d="M477.26,486.63c-.42-22.54-10.56-40.42-24.48-47.18-17.63,3.7-30.85,24.32-30.35,50.87.45,23.86,2.61,43.48,22,49.84C469.25,540.58,477.79,514.74,477.26,486.63Z" transform="translate(-64.52 -100.01)"/>
      <path id="Path_66" data-name="Path 66" class="cls-2" d="M446.15,340.24l-10.1,12.01,18.52-3.54,13.64-13.02,11.92-25,17.25-11.03,42.89,5.01,39.63.75,14.37-13.25-16.35-1.91-16.52-.07-41.49-.15-49.38-.38-9.62,27.21-7.34,18.72Z"/>
      <path id="Path_67" data-name="Path 67" class="cls-2" d="M653.58,485.76c-.82,1.28-28.44,6-28.44,6l-76.27,15.4-131.49,4.38L401.7,498.76l-8.08,1.6-.32.06L285.38,521.69l-1.77-.22L254,517.82,99.45,498.76l1.31-22.41.77-13.22,1.59-27.47,1.35-7.22,13.7-1.51,6.41-.71,99.87-11.07,13.06-1.45,7.32-.81,71.28-11.07,104.29.57-.18-32.15L459.05,242.6c9.12,1.3,9,7.44,9,7.44L435.23,370.16l1,73.38c73.14,6,75.19-10,86.84-4.81l13.12-44.87,122.64-1.69C663.77,398,653.58,485.76,653.58,485.76Z" transform="translate(-64.52 -100.01)"/>
      <path id="Path_68" data-name="Path 68" class="cls-2" d="M283.54,324.89l40.48,82.79,13.19,3.98,2.92-13.59-15.47-46.03-15.52-26.57Z"/>
      <path id="Path_69" data-name="Path 69" class="cls-8" d="M283.54,324.89l40.48,82.79,13.19,3.98,2.92-13.59-15.47-46.03-15.52-26.57Z"/>
      <ellipse id="Ellipse_16" data-name="Ellipse 16" class="cls-6" cx="70.47" cy="79.94" rx="70.47" ry="79.94" transform="translate(188.518 338.55) rotate(-1.146)"/>
      <path id="Path_70" data-name="Path 70" class="cls-4" d="M348.2,441.94c-36.83,3.27-65.38,38.55-64.57,81,.64,34.23,20.17,63.07,47.06,74,36.82-3.27,65.37-38.55,64.57-81C394.61,481.67,375.08,452.83,348.2,441.94Z" transform="translate(-64.52 -100.01)"/>
      <path id="Path_71" data-name="Path 71" class="cls-2" d="M133,381.17l-3.18,16.5-9.73,50.57-46-3.57s-2.9-8.4,4.23-11.71c0,0,1.81-28.67,10.12-37.84a8.67,8.67,0,0,1,3.29-2.39Z" transform="translate(-64.52 -100.01)"/>
      <path id="Path_72" data-name="Path 72" class="cls-7" d="M129.8,397.67l-9.73,50.57-46-3.57s-2.9-8.4,4.23-11.71c0,0,1.81-28.67,10.12-37.84Z" transform="translate(-64.52 -100.01)"/>
      <path id="Path_73" data-name="Path 73" class="cls-2" d="M236.45,383.65c6.11,9.82-6.54,101.65-6.54,101.65l-113-16.48,2.5-80.21c2-14.42,10.48-16.27,10.48-16.27,39.37-20.84,130.63-26.79,130.63-26.79,83.36,1.59,159.74,24.69,159.74,24.69C325.22,357.44,236.45,383.65,236.45,383.65Z" transform="translate(-64.52 -100.01)"/>
      <path id="Path_74" data-name="Path 74" class="cls-4" d="M229.91,485.3l-113-16.48,2.5-80.21c2-14.42,10.48-16.27,10.48-16.27S212,363,236.45,383.65C242.56,393.47,229.91,485.3,229.91,485.3Z" transform="translate(-64.52 -100.01)"/>
      <path id="Path_75" data-name="Path 75" class="cls-2" d="M217.9,480.24l-94.53-14.1,2.07-68.43c1.71-12.31,8.75-13.88,8.75-13.88s68.65-8,89.15,9.69C228.44,401.9,217.9,480.24,217.9,480.24Z" transform="translate(-64.52 -100.01)"/>
      <ellipse id="Ellipse_17" data-name="Ellipse 17" class="cls-4" cx="12.9" cy="23.47" rx="12.9" ry="23.47" transform="translate(131.207 300.92) rotate(-1.08)"/>
      <ellipse id="Ellipse_18" data-name="Ellipse 18" class="cls-3" cx="12.9" cy="23.47" rx="12.9" ry="23.47" transform="translate(131.691 300.137) rotate(-1.146)"/>
      <path id="Path_76" data-name="Path 76" class="cls-5" d="M210.44,406.14s-5.27.94-2.39,7.87,3.37,10.51,3.37,10.51,5.34,2.65,5-6.44S210.44,406.14,210.44,406.14Z" transform="translate(-64.52 -100.01)"/>
      <ellipse id="Ellipse_19" data-name="Ellipse 19" class="cls-4" cx="12.05" cy="21.93" rx="12.05" ry="21.93" transform="translate(62.768 294.452) rotate(-1.08)"/>
      <ellipse id="Ellipse_20" data-name="Ellipse 20" class="cls-3" cx="12.05" cy="21.93" rx="12.05" ry="21.93" transform="translate(62.766 293.812) rotate(-1.08)"/>
      <path id="Path_77" data-name="Path 77" class="cls-5" d="M141.12,398.14s-5.27.95-2.39,7.87,3.38,10.51,3.38,10.51,5.33,2.65,4.95-6.43S141.12,398.14,141.12,398.14Z" transform="translate(-64.52 -100.01)"/>
      <path id="Path_78" data-name="Path 78" class="cls-4" d="M193.91,404.55c-.68,8.68-3.7,73-3.7,73L183,476.52l-4-.58-5.33-.79-.64-.09L152,472l2.85-68.26a8.56,8.56,0,0,1,6.12-7.84,8.361,8.361,0,0,1,2.36-.34h.64c1.45.09,3,.22,4.64.36l2.09.21c2,.2,4.09.45,6.14.75,1,.16,2.06.32,3.08.5,1.71.31,3.37.65,4.9,1.05,1,.27,2,.56,2.93.88C191.59,400.59,194.09,402.3,193.91,404.55Z" transform="translate(-64.52 -100.01)"/>
      <path id="Path_79" data-name="Path 79" class="cls-2" d="M163.36,395.52l-2.65,76.7-2.33-.16,2.62-76.2A8.361,8.361,0,0,1,163.36,395.52Z" transform="translate(-64.52 -100.01)"/>
      <path id="Path_80" data-name="Path 80" class="cls-2" d="M170.73,396.11l-2.38,77.45-3.59.07,3.88-77.73Z" transform="translate(-64.52 -100.01)"/>
      <path id="Path_81" data-name="Path 81" class="cls-2" d="M180,397.36l-4.59,77.76h-2.33v-.1l3.83-78.2C177.91,397,178.93,397.18,180,397.36Z" transform="translate(-64.52 -100.01)"/>
      <path id="Path_82" data-name="Path 82" class="cls-2" d="M187.78,399.29,183,476.52v.15l-4-.35v-.38l5.84-77.53C185.89,398.68,186.87,399,187.78,399.29Z" transform="translate(-64.52 -100.01)"/>
      <path id="Path_83" data-name="Path 83" class="cls-4" d="M102.91,460.63s-8.53-40,9.19-42.38,76.16.79,74.73,17.31S184,477.18,184,477.18l-12.11-2.47s8.33-37.91-5.81-39.07-48.79-4.47-48.79-4.47-9.38-1.41-3.36,31.63Z" transform="translate(-64.52 -100.01)"/>
      <path id="Path_84" data-name="Path 84" class="cls-3" d="M103,464.43s-8.57-42.51,9.15-44.91,76.16.79,74.72,17.31S184,478.45,184,478.45L171.89,476s8.32-37.91-5.82-39.07-48.78-4.48-48.78-4.48S108,433.56,114,466.6Z" transform="translate(-64.52 -100.01)"/>
      <path id="Path_85" data-name="Path 85" class="cls-2" d="M417.38,511.58l-15.64.08c-12.37-50.1-31.78-81-31.78-81-6.41-3.27-75.75-1.54-75.75-1.54-7.17,1.41-8.64,24.28-8.64,24.28s6.23,5.17.38,8.67c-2.62,1.55-11.31,2-21.35,1.68-12.47-.41-27-2-34.54-4.23-13.61-4-3-12-3-12s1.86-2.57,2.86-16.55a56.46,56.46,0,0,1,7.29-23.18c.56-1,.92-1.51.92-1.51a7.52,7.52,0,0,1,2.44-1.6c17.79-7.82,105.78-2.35,105.78-2.35l32.76,9.75c.9.35,2.34,2.61,4.12,6.25C394,440.17,417.38,511.58,417.38,511.58Z" transform="translate(-64.52 -100.01)"/>
      <path id="Path_86" data-name="Path 86" class="cls-4" d="M417.38,511.58l-15.64.08c-12.37-50.1-31.78-81-31.78-81-6.41-3.27-75.75-1.54-75.75-1.54-7.17,1.41-8.64,24.28-8.64,24.28s6.23,5.17.38,8.67c-2.62,1.55-11.31,2-21.35,1.68-12.47-.41-27-2-34.54-4.23-13.61-4-3-12-3-12s1.86-2.57,2.86-16.55a56.46,56.46,0,0,1,7.29-23.18c.56-1,.92-1.51.92-1.51a7.52,7.52,0,0,1,2.44-1.6c17.79-7.82,105.78-2.35,105.78-2.35l32.76,9.75c.9.35,2.34,2.61,4.12,6.25C394,440.17,417.38,511.58,417.38,511.58Z" transform="translate(-64.52 -100.01)"/>
      <path id="Path_87" data-name="Path 87" class="cls-2" d="M383.25,418.3c-30.28-11.11-113-3.35-113-3.35-8.94-7.36-25.5-7.54-33-7.19.56-1,.92-1.51.92-1.51a7.52,7.52,0,0,1,2.44-1.6c17.79-7.82,105.78-2.35,105.78-2.35l32.76,9.75C380,412.4,381.47,414.66,383.25,418.3Z" transform="translate(-64.52 -100.01)"/>
      <path id="Path_88" data-name="Path 88" class="cls-2" d="M275.17,418c-1.77,6.59-9.1,33-9.1,33a110.155,110.155,0,0,0-1.47,12.73c-12.47-.41-27-2-34.54-4.23-13.61-4-3-12-3-12s1.86-2.57,2.86-16.55a56.219,56.219,0,0,1,8.21-24.69,7.52,7.52,0,0,1,2.44-1.6C252.4,407.2,276.52,413,275.17,418Z" transform="translate(-64.52 -100.01)"/>
      <path id="Path_89" data-name="Path 89" class="cls-7" d="M275.17,418c-1.77,6.59-9.1,33-9.1,33a110.155,110.155,0,0,0-1.47,12.73c-12.47-.41-27-2-34.54-4.23-13.61-4-3-12-3-12s1.86-2.57,2.86-16.55a56.219,56.219,0,0,1,8.21-24.69,7.52,7.52,0,0,1,2.44-1.6C252.4,407.2,276.52,413,275.17,418Z" transform="translate(-64.52 -100.01)"/>
      <path id="Path_90" data-name="Path 90" class="cls-2" d="M291.38,251.16c-8.38,1.43-11.7,18.94-11.7,18.94l-21.4,76.71,161.94,23.43L459.05,242.6C420.83,226.19,291.38,251.16,291.38,251.16Zm131.41,79s-.81,7.32-7,8.07l-104.73-2.12-21.48-.43-7.21-.15h-.51s-7.91,1.58-6.76-5.1c0,0,7.52-63.6,22.81-68.65,0,0,1.6-.36,4.39-.94,4.38-.92,11.7-2.36,20.32-3.72,3.87-.61,8-1.2,12.24-1.71C346.48,254,359,253.17,369.32,254c0,0,76.93-8.59,71.71,8.64-.03-.03-15.03,62.28-18.24,67.57Z" transform="translate(-64.52 -100.01)"/>
      <path id="Path_91" data-name="Path 91" class="cls-2" d="M282.38,335.58h-.51s-7.91,1.58-6.76-5.1c0,0,7.52-63.6,22.81-68.65,0,0,1.6-.36,4.39-.94C296.93,271.88,279.71,309.53,282.38,335.58Z" transform="translate(-64.52 -100.01)"/>
      <path id="Path_92" data-name="Path 92" class="cls-4" d="M282.38,335.58h-.51s-7.91,1.58-6.76-5.1c0,0,7.52-63.6,22.81-68.65,0,0,1.6-.36,4.39-.94C296.93,271.88,279.71,309.53,282.38,335.58Z" transform="translate(-64.52 -100.01)"/>
      <path id="Path_93" data-name="Path 93" class="cls-4" d="M299.54,491.76a10.2,10.2,0,0,1-9.45,5.54l-3.24-.08-30.51-.74-11-.26-10.17-.66L100.76,476.35l.77-13.22L117,465l6.4.8,94.87,11.74,12.49,1.55,6,.75,25.59-.67,27.69-.72a10.31,10.31,0,0,1,4.1.71,9.94,9.94,0,0,1,5.47,5,8.37,8.37,0,0,1-.07,7.6Z" transform="translate(-64.52 -100.01)"/>
      <path id="Path_94" data-name="Path 94" class="cls-3" d="M299.57,493a10.21,10.21,0,0,1-9.46,5.54l-44.74-1.08-10.16-.66L91.85,476.34l-11.26-1.61-6.14-.88c-12.1-2.31-8.73-14.43-8.73-14.43.74-5.51,21.36-11,28.13-10.89,4.55.05,5.32,7.05,5.33,11.64,0,2.25-.17,3.91-.17,3.91l6.7.83,131.11,16.24,53.28-1.39a10.24,10.24,0,0,1,9.56,5.7A8.38,8.38,0,0,1,299.57,493Z" transform="translate(-64.52 -100.01)"/>
      <path id="Path_95" data-name="Path 95" class="cls-4" d="M84.27,456.32s5.84,6.87,14.74,7.76C99,464.08,95.27,456.33,84.27,456.32Z" transform="translate(-64.52 -100.01)"/>
      <path id="Path_96" data-name="Path 96" class="cls-4" d="M83.16,476s-18.83,0-18.64,10.1,12.07,11.61,12.07,11.61l168.7,29.18,47.8-.06s16.45-13.63-1-19.23l-48.19,2.18L83.09,483.42S87.21,477.63,83.16,476Z" transform="translate(-64.52 -100.01)"/>
      <path id="Path_97" data-name="Path 97" class="cls-3" d="M293.12,528.1l-47.8.06-150-25.94-11-1.9L76.62,499s-11.88-1.47-12.07-11.61c-.14-7.29,9.53-9.31,15-9.87,2.15-.22,3.65-.21,3.65-.21,4,1.61-.08,7.4-.08,7.4l5.86,1,155,25.4,48.18-2.18C309.57,514.46,293.12,528.1,293.12,528.1Z" transform="translate(-64.52 -100.01)"/>
      <path id="Path_98" data-name="Path 98" class="cls-3" d="M97.17,467.5l9.85-4.63,5.07-.3.39,42.72-15.71-2.88-6.63-4.11-3.51-17.7s1.13-7.42,1.75-8.07S97.17,467.5,97.17,467.5Z" transform="translate(-64.52 -100.01)"/>
      <path id="Path_99" data-name="Path 99" class="cls-4" d="M97.17,467.5l9.85-4.63,5.07-.3.39,42.72-15.71-2.88-6.63-4.11-3.51-17.7s1.13-7.42,1.75-8.07S97.17,467.5,97.17,467.5Z" transform="translate(-64.52 -100.01)"/>
      <path id="Path_100" data-name="Path 100" class="cls-4" d="M95.31,502.22c.13.14.19.22.19.22l-11-1.92a1.367,1.367,0,0,1-.13-.2c-6-9.24-6.61-16.81-4.8-22.82,2.15-.22,3.65-.21,3.65-.21,4,1.61-.08,7.4-.08,7.4l5.86,1C88.73,494,94.22,500.92,95.31,502.22Z" transform="translate(-64.52 -100.01)"/>
      <path id="Path_101" data-name="Path 101" class="cls-4" d="M110.83,462.59c-1.85.75-3.55,1.53-5.12,2.32-7,3.56-11.37,7.49-13.86,11.43l-11.26-1.61c4.68-10.21,16.22-15.05,16.22-15.05l2.37.49Z" transform="translate(-64.52 -100.01)"/>
      <path id="Path_102" data-name="Path 102" class="cls-3" d="M98.08,459.66S67.44,472.51,85.74,500.5l11,1.91s-22.25-24.54,15.32-39.84Z" transform="translate(-64.52 -100.01)"/>
      <path id="Path_103" data-name="Path 103" class="cls-3" d="M107.39,372l11.42-.63-1.04,45.91-18.46-3.03-7.9-3.66-3.76-9.02-2.71-9.05,5.98-8.36,6.89-4.78Z"/>
      <path id="Path_104" data-name="Path 104" class="cls-4" d="M107.39,372l11.42-.63-1.04,45.91-18.46-3.03-7.9-3.66-3.76-9.02-2.71-9.05,5.98-8.36,6.89-4.78Z"/>
      <ellipse id="Ellipse_21" data-name="Ellipse 21" class="cls-3" cx="5.5" cy="9.3" rx="5.5" ry="9.3" transform="translate(100.889 386.521) rotate(-1.08)"/>
      <path id="Path_105" data-name="Path 105" class="cls-3" d="M131.68,522.43c-1.74-8.06-8-9.69-8-9.69s-12-3.26-12,9.9c0,0,.31,8.09,5.75,10.52l.48,9s.64,8.39-4.13,7.69-4.28-8.17-4.28-8.17-2.69-7.88-8.8-3.64c0,0-1.34,4.47,1.87,6.63,1.88,1.26,2,3.9,1.77,5.88a8.6,8.6,0,0,0,2.11,6.85,8,8,0,0,0,7.68,2.6,11.891,11.891,0,0,0,6.53-3.93,17.26,17.26,0,0,0,4.34-11.6V532.86S133.42,530.48,131.68,522.43Zm-9.6,8.35a6.74,6.74,0,1,1,6.61-6.87,6.74,6.74,0,0,1-6.61,6.87Z" transform="translate(-64.52 -100.01)"/>
      <path id="Path_106" data-name="Path 106" class="cls-6" d="M118.91,509.34a3,3,0,0,0-1.42,4.19c1.29,2.31,2.84,5.3,2.71,6.1-.21,1.35,2.78.18,3.17-.14s5.87-.11,6.12-3.84a6.45,6.45,0,0,0-3-5.66l1.11-8.19-7.54-.49.22,7.45Z" transform="translate(-64.52 -100.01)"/>
      <path id="Path_107" data-name="Path 107" class="cls-4" d="M118.91,509.34a3,3,0,0,0-1.42,4.19c1.29,2.31,2.84,5.3,2.71,6.1-.21,1.35,2.78.18,3.17-.14s5.87-.11,6.12-3.84a6.45,6.45,0,0,0-3-5.66l1.11-8.19-7.54-.49.22,7.45Z" transform="translate(-64.52 -100.01)"/>
      <path id="Path_108" data-name="Path 108" class="cls-4" d="M121,509.14s2.7,8.68,1.6,9S121,509.14,121,509.14Z" transform="translate(-64.52 -100.01)"/>
      <path id="Path_109" data-name="Path 109" class="cls-4" d="M123.77,507s2.71,8.67,1.6,9S123.77,507,123.77,507Z" transform="translate(-64.52 -100.01)"/>
      <path id="Path_110" data-name="Path 110" class="cls-6" d="M153.67,480.18l-3.73,26.3s-5.25-.61-8.15-1.18a6,6,0,0,1-1.83-.53c-.15-.15-.46-.13-.87,0h0c-1.41.32-3.9,1.53-4.4.56a.87.87,0,0,0-.15-.21h0c-.51-.53-1.47-.11-2.39,0a2,2,0,0,1-1.49-.17c-.79-.5-2.35.37-3.64.67-.81.19-1.52.17-1.86-.56a1.7,1.7,0,0,0-1.28-.88h0c-1.23-.28-2.93,0-3.91-.23-.39-.07-.66-.21-.76-.47-.2-.57-1.29-.82-2.46-1-1.42-.25-3-.42-3.08-1,0-.19-.17-.27-.38-.27a12.5,12.5,0,0,0-2.31.61h0c-.63.17-1.16.19-1.32-.27s-.9-.42-1.73-.21c-.67.18-1.41.46-2,.6s-.87.15-.94-.09c-.23-.84-2.94,1.12-3.6-.57s-9.55-12.72,1.38-27.52c0,0,3,.16,5.36.53a8.2,8.2,0,0,1,2.24.59h0c.81.44,2.54.31,4.09.39a5.41,5.41,0,0,1,2.28.5,1.41,1.41,0,0,1,.64.66c.37.8,1.19.95,2.08.88,1.19-.09,2.52-.57,3-.34h0c.89.36,4.2-.07,4.78.47v.05c.25.36,1.54,0,2.86-.25h0a3.21,3.21,0,0,1,2.63.37,2.89,2.89,0,0,0,2.08.57,11.7,11.7,0,0,1,2.69.05,1.1,1.1,0,0,1,.54.33c.55.66,1.84.54,3,.58a3,3,0,0,1,1.68.39,1.55,1.55,0,0,0,.62.24,17.872,17.872,0,0,0,5.09-.35Z" transform="translate(-64.52 -100.01)"/>
      <path id="Path_111" data-name="Path 111" class="cls-4" d="M107.93,501.32c-.67.18-1.41.46-2,.6-8.84-13.16-1.8-23.41,2.2-27.65a8.2,8.2,0,0,1,2.24.59C102,485,106.2,497.33,107.93,501.32Z" transform="translate(-64.52 -100.01)"/>
      <path id="Path_112" data-name="Path 112" class="cls-4" d="M113.29,501.19a12.5,12.5,0,0,0-2.31.61h0c-7.6-12.86-.22-22.72,3.53-26.54a5.41,5.41,0,0,1,2.28.5C108.73,484.91,111.38,496.05,113.29,501.19Z" transform="translate(-64.52 -100.01)"/>
      <path id="Path_113" data-name="Path 113" class="cls-4" d="M120,503.94c-.39-.07-.66-.21-.76-.47-.2-.57-1.29-.82-2.46-1-6.67-11.65-1.08-20.8,2.76-25.15,1.19-.09,2.52-.57,3-.34h0C113.66,487.35,118.3,500.18,120,503.94Z" transform="translate(-64.52 -100.01)"/>
      <path id="Path_114" data-name="Path 114" class="cls-4" d="M127,505.61c-.81.19-1.52.17-1.86-.56a1.7,1.7,0,0,0-1.28-.88h0c-7.77-13-.29-22.91,3.47-26.72v.05c.25.36,1.54,0,2.86-.25C119.78,488.24,125.54,502.46,127,505.61Z" transform="translate(-64.52 -100.01)"/>
      <path id="Path_115" data-name="Path 115" class="cls-4" d="M134.54,505.07c-.51-.53-1.47-.11-2.39,0-8.08-12.87-1.07-22.83,2.82-26.92a11.7,11.7,0,0,1,2.69.05C128.7,488.26,132.71,500.73,134.54,505.07Z" transform="translate(-64.52 -100.01)"/>
      <path id="Path_116" data-name="Path 116" class="cls-4" d="M141.79,505.3a6,6,0,0,1-1.83-.53c-.15-.15-.46-.13-.87,0h0c-7.17-11.75-1.8-21,2.1-25.58a3,3,0,0,1,1.68.39,1.55,1.55,0,0,0,.62.24C136.08,489.73,140.12,501.45,141.79,505.3Z" transform="translate(-64.52 -100.01)"/>
      <ellipse id="Ellipse_22" data-name="Ellipse 22" class="cls-6" cx="34.47" cy="50.75" rx="34.47" ry="50.75" transform="translate(247.163 370.652) rotate(-1.08)"/>
      <ellipse id="Ellipse_23" data-name="Ellipse 23" class="cls-4" cx="25.06" cy="41.13" rx="25.06" ry="41.13" transform="translate(255.607 380.854) rotate(-1.08)"/>
      <ellipse id="Ellipse_24" data-name="Ellipse 24" class="cls-5" cx="25.06" cy="41.13" rx="25.06" ry="41.13" transform="translate(256.182 379.302) rotate(-1.146)"/>
      <ellipse id="Ellipse_25" data-name="Ellipse 25" class="cls-6" cx="2.96" cy="5.08" rx="2.96" ry="5.08" transform="translate(282.386 387.531) rotate(-1.08)"/>
      <ellipse id="Ellipse_26" data-name="Ellipse 26" class="cls-6" cx="2.96" cy="5.08" rx="2.96" ry="5.08" transform="translate(295.067 431.714) rotate(-1.08)"/>
      <ellipse id="Ellipse_27" data-name="Ellipse 27" class="cls-6" cx="2.96" cy="5.08" rx="2.96" ry="5.08" transform="translate(262.736 411.167) rotate(-1.08)"/>
      <ellipse id="Ellipse_28" data-name="Ellipse 28" class="cls-6" cx="2.96" cy="5.08" rx="2.96" ry="5.08" transform="translate(271.959 440.608) rotate(-1.08)"/>
      <path id="Path_117" data-name="Path 117" class="cls-2" d="M597.6,422.09s26,65.5,24.79,69.65c0,0,10.59,6.15,13.09,4.51s-.26-30.77-.26-30.77L630,439.88l-5.68-15.12Z" transform="translate(-64.52 -100.01)"/>
      <path id="Path_118" data-name="Path 118" class="cls-8" d="M597.6,422.09s26,65.5,24.79,69.65c0,0,10.59,6.15,13.09,4.51s-.26-30.77-.26-30.77L630,439.88l-5.68-15.12Z" transform="translate(-64.52 -100.01)"/>
      <ellipse id="Ellipse_29" data-name="Ellipse 29" class="cls-6" cx="2.96" cy="5.08" rx="2.96" ry="5.08" transform="translate(298.776 404.139) rotate(-1.08)"/>
      <ellipse id="Ellipse_30" data-name="Ellipse 30" class="cls-6" cx="8.67" cy="12.05" rx="8.67" ry="12.05" transform="translate(277.096 409.844) rotate(-1.08)"/>
      <path id="Path_119" data-name="Path 119" class="cls-6" d="M626.85,509.74c.72,38.19-11.3,73.19-46.58,70-44.42-.12-48.48-30-49.2-68.24s20.19-67,46.64-67.51S626.13,471.56,626.85,509.74Z" transform="translate(-64.52 -100.01)"/>
      <path id="Path_120" data-name="Path 120" class="cls-4" d="M627.13,509.8c-.56-29.56-13.86-53-32.11-61.88-23.13,4.85-40.47,31.89-39.82,66.73.59,31.29,3.43,57,28.88,65.38C616.63,580.59,627.83,546.68,627.13,509.8Z" transform="translate(-64.52 -100.01)"/>
      <path id="Path_121" data-name="Path 121" class="cls-4" d="M645.26,493.21s-6.24,5.51-9.8,1.77c0,0-9.86-68.34-20.65-68.45l-37.11.38s-4.41,2-6.15,10.27l-22.71,68.75-131.48,4.39-10.44-20.85,108.79-1.74v-.05c.55-2.12,17.5-67.37,29.56-75.67h0a5.08,5.08,0,0,1,1.33-.68s45.24-6.89,60.22-3c0,0,15.61,3.19,19.51,7.88h0c.52.53,6.53,7,8.71,26.13Z" transform="translate(-64.52 -100.01)"/>
      <path id="Path_122" data-name="Path 122" class="cls-2" d="M645.28,494.48s-6.24,5.51-9.8,1.77c0,0-9.85-68.34-20.64-68.45l-37.12.38s-4.4,2-6.15,10.27l-22.7,68.75-131.49,4.38L407,490.73,515.74,489h0c.55-2.12,17.49-67.37,29.56-75.67h0a5.48,5.48,0,0,1,1.32-.67s45.24-6.89,60.23-3c0,0,15.6,3.2,19.5,7.89h0c.52.53,6.53,7,8.71,26.13Z" transform="translate(-64.52 -100.01)"/>
      <path id="Path_123" data-name="Path 123" class="cls-4" d="M645.28,494.48s-6.24,5.51-9.8,1.77c0,0-9.85-68.34-20.64-68.45l-37.12.38s-4.4,2-6.15,10.27l-22.7,68.75-131.49,4.38L407,490.73,515.74,489h0c.55-2.12,17.49-67.37,29.56-75.67h0a5.48,5.48,0,0,1,1.32-.67s45.24-6.89,60.23-3c0,0,15.6,3.2,19.5,7.89h0c.52.53,6.53,7,8.71,26.13Z" transform="translate(-64.52 -100.01)"/>
      <path id="Path_124" data-name="Path 124" class="cls-2" d="M563.31,421.15c-3,6.09-28.93,80.82-28.93,80.82l-18.64-13V489c.55-2.12,17.51-67.44,29.58-75.69C553.29,414.47,565.39,417,563.31,421.15Z" transform="translate(-64.52 -100.01)"/>
      <path id="Path_125" data-name="Path 125" class="cls-2" d="M527.15,387.89l-14,49.12-77.75-.75.77,7.28s61.07,7.73,86.84-4.81l13.12-44.88,122.64-1.68-23.47-5.05Z" transform="translate(-64.52 -100.01)"/>
      <path id="Path_126" data-name="Path 126" class="cls-7" d="M527.15,387.89l-14,49.12-77.75-.75.77,7.28s61.07,7.73,86.84-4.81l13.12-44.88,122.64-1.68-23.47-5.05Z" transform="translate(-64.52 -100.01)"/>
      <path id="Path_127" data-name="Path 127" class="cls-4" d="M164.3,471.73s-41.26,21.72-10,40.8l8.28,1.75s-30.64-21.21,19.5-42.88Z" transform="translate(-64.52 -100.01)"/>
      <path id="Path_128" data-name="Path 128" class="cls-3" d="M165.57,471.71s-41.26,21.72-10,40.8l8.28,1.75s-30.64-21.21,19.5-42.89Z" transform="translate(-64.52 -100.01)"/>
      <ellipse id="Ellipse_31" data-name="Ellipse 31" class="cls-6" cx="23.16" cy="39.65" rx="23.16" ry="39.65" transform="translate(509.671 375.924) rotate(-1.146)"/>
      <ellipse id="Ellipse_32" data-name="Ellipse 32" class="cls-4" cx="16.83" cy="32.13" rx="16.83" ry="32.13" transform="translate(514.727 384.762) rotate(-1.08)"/>
      <ellipse id="Ellipse_33" data-name="Ellipse 33" class="cls-5" cx="16.83" cy="32.13" rx="16.83" ry="32.13" transform="translate(514.693 383.493) rotate(-1.08)"/>
      <ellipse id="Ellipse_34" data-name="Ellipse 34" class="cls-6" cx="1.99" cy="3.97" rx="1.99" ry="3.97" transform="translate(532.714 389.762) rotate(-1.08)"/>
      <ellipse id="Ellipse_35" data-name="Ellipse 35" class="cls-6" cx="1.99" cy="3.97" rx="1.99" ry="3.97" transform="translate(541.323 424.304) rotate(-1.08)"/>
      <ellipse id="Ellipse_36" data-name="Ellipse 36" class="cls-6" cx="1.99" cy="3.97" rx="1.99" ry="3.97" transform="translate(519.563 408.177) rotate(-1.08)"/>
      <ellipse id="Ellipse_37" data-name="Ellipse 37" class="cls-6" cx="1.99" cy="3.97" rx="1.99" ry="3.97" transform="translate(525.826 431.195) rotate(-1.08)"/>
      <ellipse id="Ellipse_38" data-name="Ellipse 38" class="cls-6" cx="1.99" cy="3.97" rx="1.99" ry="3.97" transform="translate(543.757 402.772) rotate(-1.08)"/>
      <ellipse id="Ellipse_39" data-name="Ellipse 39" class="cls-6" cx="5.82" cy="9.42" rx="5.82" ry="9.42" transform="translate(529.901 406.581) rotate(-1.146)"/>
      <path id="Path_129" data-name="Path 129" class="cls-4" d="M258,345.7s70.45,1.21,162.27,24.54Z" transform="translate(-64.52 -100.01)"/>
      <path id="Path_130" data-name="Path 130" class="cls-3" d="M591.55,216.1s-3.81.68-1.73,5.69a34.5,34.5,0,0,1,2.44,7.6s3.86,1.92,3.58-4.65S591.55,216.1,591.55,216.1Z" transform="translate(-64.52 -100.01)"/>
    </g>
    <rect id="Rectangle_12" data-name="Rectangle 12" class="cls-9" width="43.46" height="129.6" transform="translate(308.28 378.95)"/>
    <rect id="Rectangle_13" data-name="Rectangle 13" class="cls-10" width="37.25" height="127.28" transform="translate(311.39 378.95)"/>
    <path id="Path_131" data-name="Path 131" class="cls-11" d="M331.18,275.03,156.17,435.61H506.18Z"/>
    <path id="Path_132" data-name="Path 132" class="cls-12" d="M331.18,279.25,163.16,431.31H499.2Z"/>
    <path id="Path_133" data-name="Path 133" class="cls-13" d="M330.79,214.9,178.68,364.98H482.9Z"/>
    <path id="Path_134" data-name="Path 134" class="cls-12" d="M330.79,218.98,184.89,362.94h291.8Z"/>
    <path id="Path_135" data-name="Path 135" class="cls-11" d="M330.01,160.36l-117.18,134H447.2Z"/>
    <path id="Path_136" data-name="Path 136" class="cls-12" d="M330.01,166.48,218.26,291.3H441.77Z"/>
    <path id="Path_137" data-name="Path 137" class="cls-11" d="M330.01,112,242.32,229.17H417.71Z"/>
    <path id="Path_138" data-name="Path 138" class="cls-12" d="M330.01,115.46,246.2,227.44H413.83Z"/>
    <path id="Path_139" data-name="Path 139" class="cls-11" d="M330.79,61.54,270.3,166.31H391.28Z"/>
    <path id="Path_140" data-name="Path 140" class="cls-12" d="M330.79,64.65l-57.8,100.11h115.6Z"/>
    <rect id="Rectangle_14" data-name="Rectangle 14" class="cls-9" width="43.46" height="129.6" transform="translate(789.08 378.95)"/>
    <rect id="Rectangle_15" data-name="Rectangle 15" class="cls-10" width="37.25" height="127.28" transform="translate(792.18 378.95)"/>
    <path id="Path_141" data-name="Path 141" class="cls-11" d="M811.97,275.03l-175,160.58h350Z"/>
    <path id="Path_142" data-name="Path 142" class="cls-12" d="M811.97,279.25,643.95,431.31H979.99Z"/>
    <path id="Path_143" data-name="Path 143" class="cls-13" d="M811.58,214.9,659.47,364.98H963.69Z"/>
    <path id="Path_144" data-name="Path 144" class="cls-12" d="M811.58,218.98,665.68,362.94h291.8Z"/>
    <path id="Path_145" data-name="Path 145" class="cls-11" d="M810.81,160.36l-117.19,134H927.99Z"/>
    <path id="Path_146" data-name="Path 146" class="cls-12" d="M810.81,166.48,699.05,291.3H922.56Z"/>
    <path id="Path_147" data-name="Path 147" class="cls-11" d="M810.81,112l-87.7,117.17H898.5Z"/>
    <path id="Path_148" data-name="Path 148" class="cls-12" d="M810.81,115.46,726.99,227.44H894.62Z"/>
    <path id="Path_149" data-name="Path 149" class="cls-11" d="M811.58,61.54,751.09,166.31H872.07Z"/>
    <path id="Path_150" data-name="Path 150" class="cls-12" d="M811.58,64.65l-57.8,100.11h115.6Z"/>
    <path id="Path_151" data-name="Path 151" class="cls-14" d="M722.32,472.66c-.47-2.25-2.13-3.84-3.67-3.55s-2.37,2.43-1.89,4.68,2.13,3.84,3.67,3.55S722.79,475,722.32,472.66Z" transform="translate(-64.52 -100.01)"/>
    <path id="Path_152" data-name="Path 152" class="cls-15" d="M723.5,470.89c-.47-2.25-2.13-3.85-3.67-3.55s-2.36,2.42-1.89,4.67,2.13,3.85,3.67,3.55S724,473.2,723.5,470.89Z" transform="translate(-64.52 -100.01)"/>
    <rect id="Rectangle_16" data-name="Rectangle 16" class="cls-11" width="43.46" height="129.6" transform="translate(644.84 323.18)"/>
    <rect id="Rectangle_17" data-name="Rectangle 17" class="cls-10" width="37.25" height="127.28" transform="translate(647.94 323.18)"/>
    <path id="Path_153" data-name="Path 153" class="cls-11" d="M667.73,219.26l-175,160.57H842.74Z"/>
    <path id="Path_154" data-name="Path 154" class="cls-12" d="M667.73,223.48,499.71,375.54H835.75Z"/>
    <path id="Path_155" data-name="Path 155" class="cls-11" d="M667.34,159.12,515.24,309.21H819.45Z"/>
    <path id="Path_156" data-name="Path 156" class="cls-12" d="M667.34,163.21,521.44,307.17H813.25Z"/>
    <path id="Path_157" data-name="Path 157" class="cls-11" d="M666.57,104.59l-117.19,134H783.75Z"/>
    <path id="Path_158" data-name="Path 158" class="cls-12" d="M666.57,110.71,554.81,235.53H778.32Z"/>
    <path id="Path_159" data-name="Path 159" class="cls-11" d="M666.57,56.23,578.87,173.4H754.26Z"/>
    <path id="Path_160" data-name="Path 160" class="cls-12" d="M666.57,59.69,582.75,171.67H750.38Z"/>
    <path id="Path_161" data-name="Path 161" class="cls-11" d="M667.34,5.77,606.86,110.54H727.83Z"/>
    <path id="Path_162" data-name="Path 162" class="cls-12" d="M667.34,8.87l-57.8,100.12h115.6Z"/>
    <path id="Path_163" data-name="Path 163" class="cls-16" d="M578.08,416.89c-.47-2.25-2.13-3.84-3.67-3.55s-2.36,2.43-1.89,4.68,2.13,3.84,3.67,3.55S578.56,419.2,578.08,416.89Z" transform="translate(-64.52 -100.01)"/>
    <path id="Path_164" data-name="Path 164" class="cls-15" d="M579.27,415.12c-.48-2.25-2.13-3.85-3.67-3.55s-2.37,2.42-1.9,4.67,2.13,3.85,3.67,3.55S579.74,417.42,579.27,415.12Z" transform="translate(-64.52 -100.01)"/>
    <rect id="Rectangle_18" data-name="Rectangle 18" class="cls-9" width="43.46" height="129.6" transform="translate(490.98 317.41)"/>
    <rect id="Rectangle_19" data-name="Rectangle 19" class="cls-10" width="37.25" height="127.28" transform="translate(494.09 317.41)"/>
    <path id="Path_165" data-name="Path 165" class="cls-11" d="M513.88,213.49l-175,160.57h350Z"/>
    <path id="Path_166" data-name="Path 166" class="cls-12" d="M513.88,217.71,345.86,369.77H681.9Z"/>
    <path id="Path_167" data-name="Path 167" class="cls-11" d="M513.49,153.35,361.38,303.44H665.6Z"/>
    <path id="Path_168" data-name="Path 168" class="cls-12" d="M513.49,157.44,367.59,301.4h291.8Z"/>
    <path id="Path_169" data-name="Path 169" class="cls-11" d="M512.72,98.82l-117.19,134H629.9Z"/>
    <path id="Path_170" data-name="Path 170" class="cls-12" d="M512.72,104.94,400.96,229.76H624.47Z"/>
    <path id="Path_171" data-name="Path 171" class="cls-11" d="M512.72,50.46l-87.7,117.17H600.41Z"/>
    <path id="Path_172" data-name="Path 172" class="cls-12" d="M512.72,53.91,428.9,165.9H596.53Z"/>
    <path id="Path_173" data-name="Path 173" class="cls-11" d="M513.49,0,453,104.77H573.98Z"/>
    <path id="Path_174" data-name="Path 174" class="cls-12" d="M513.49,3.1l-57.8,100.12h115.6Z"/>
    <path id="Path_175" data-name="Path 175" class="cls-17" d="M424.23,411.12c-.47-2.25-2.13-3.84-3.67-3.55s-2.37,2.43-1.89,4.68,2.13,3.84,3.67,3.55S424.7,413.43,424.23,411.12Z" transform="translate(-64.52 -100.01)"/>
    <rect id="Rectangle_20" data-name="Rectangle 20" class="cls-18" width="13.54" height="10.59" transform="translate(876.32 578.98) rotate(180)"/>
    <rect id="Rectangle_21" data-name="Rectangle 21" class="cls-18" width="6.47" height="16.48" transform="translate(872.2 595.46) rotate(180)"/>
    <line id="Line_1" data-name="Line 1" class="cls-19" x2="95.45" y2="143.13" transform="translate(770.28 435.85)"/>
    <rect id="Rectangle_22" data-name="Rectangle 22" class="cls-18" width="13.54" height="10.59" transform="translate(276.32 568.38)"/>
    <rect id="Rectangle_23" data-name="Rectangle 23" class="cls-18" width="6.47" height="16.48" transform="translate(280.44 578.98)"/>
    <line id="Line_2" data-name="Line 2" class="cls-19" x1="95.44" y2="143.13" transform="translate(286.91 435.85)"/>
    <path id="Path_176" data-name="Path 176" class="cls-2" d="M575.98,96.07,712.5,332.53,849.02,568.98H302.95L439.47,332.53Z"/>
    <path id="Path_177" data-name="Path 177" class="cls-20" d="M501.79,634.35H639.51l.88-218.94S505.32,455.5,501.79,634.35Z" transform="translate(-64.52 -100.01)"/>
    <path id="Path_178" data-name="Path 178" class="cls-20" d="M640.62,415.41l.89,218.94H779.23C775.7,455.5,640.62,415.41,640.62,415.41Z" transform="translate(-64.52 -100.01)"/>
    <rect id="Rectangle_24" data-name="Rectangle 24" class="cls-2" width="276.32" height="39.43" transform="translate(438.28 539.46)"/>
    <rect id="Rectangle_25" data-name="Rectangle 25" class="cls-21" width="285" height="48" transform="translate(433.73 534.36)"/>
    <rect id="Rectangle_26" data-name="Rectangle 26" class="cls-22" width="276.32" height="39.43" transform="translate(438.28 539.46)"/>
    <rect id="Rectangle_27" data-name="Rectangle 27" class="cls-23" width="8.79" height="11.9" transform="translate(208.73 589.5)"/>
    <path id="Path_179" data-name="Path 179" class="cls-11" d="M277.65,675.81c-10.57,0-19.14,7.57-19.14,18.1h38.28C296.79,683.38,288.22,675.81,277.65,675.81Z" transform="translate(-64.52 -100.01)"/>
    <rect id="Rectangle_28" data-name="Rectangle 28" class="cls-11" width="6.52" height="8.82" transform="translate(244.28 600.99)"/>
    <path id="Path_180" data-name="Path 180" class="cls-24" d="M312.07,691c-7.84,0-14.2,5-14.2,13.42h28.39C326.26,696,319.9,691,312.07,691Z" transform="translate(-64.52 -100.01)"/>
    <rect id="Rectangle_29" data-name="Rectangle 29" class="cls-25" width="4.78" height="6.46" transform="translate(211.06 630.72)"/>
    <path id="Path_181" data-name="Path 181" class="cls-26" d="M278,724.07c-5.74,0-10.4,3.52-10.4,9.83h20.8C288.37,727.59,283.71,724.07,278,724.07Z" transform="translate(-64.52 -100.01)"/>
    <rect id="Rectangle_30" data-name="Rectangle 30" class="cls-27" width="8.03" height="10.87" transform="translate(210.38 590.97)"/>
    <path id="Path_182" data-name="Path 182" class="cls-28" d="M278.92,678.46c-9.65,0-17.48,6.92-17.48,16.54h35C296.41,685.38,288.58,678.46,278.92,678.46Z" transform="translate(-64.52 -100.01)"/>
    <rect id="Rectangle_31" data-name="Rectangle 31" class="cls-27" width="5.96" height="8.06" transform="translate(242.86 601.47)"/>
    <path id="Path_183" data-name="Path 183" class="cls-28" d="M310.36,692.35c-7.16,0-13,4.57-13,12.26h25.93C323.33,696.92,317.53,692.35,310.36,692.35Z" transform="translate(-64.52 -100.01)"/>
    <rect id="Rectangle_32" data-name="Rectangle 32" class="cls-27" width="4.36" height="5.9" transform="translate(212.51 628.62)"/>
    <path id="Path_184" data-name="Path 184" class="cls-28" d="M279.21,722.55c-5.24,0-9.49,3.22-9.49,9h19C288.71,725.77,284.46,722.55,279.21,722.55Z" transform="translate(-64.52 -100.01)"/>
    <ellipse id="Ellipse_42" data-name="Ellipse 42" class="cls-29" cx="18.68" cy="3.16" rx="18.68" ry="3.16" transform="translate(271.99 620.38)"/>
    <path id="Path_222" data-name="Path 222" class="cls-30" d="M342.65,708.87s10.65-.33,13.86-2.61,16.39-5,17.19-1.35,16,18.24,4,18.33-27.95-1.87-31.15-3.82S342.65,708.87,342.65,708.87Z" transform="translate(-64.52 -100.01)"/>
    <path id="Path_223" data-name="Path 223" class="cls-22" d="M377.89,722c-12,.09-27.94-1.88-31.15-3.83-2.44-1.49-3.41-6.82-3.74-9.28h-.35s.67,8.6,3.88,10.55,19.12,3.92,31.15,3.82c3.47,0,4.67-1.26,4.6-3.09C381.8,721.26,380.48,722,377.89,722Z" transform="translate(-64.52 -100.01)"/>
    <ellipse id="Ellipse_43" data-name="Ellipse 43" class="cls-29" cx="14.37" cy="2.43" rx="14.37" ry="2.43" transform="translate(384.63 584.32)"/>
    <path id="Path_224" data-name="Path 224" class="cls-30" d="M453.87,675.47s8.19-.26,10.67-2,12.61-3.86,13.22-1,12.32,14,3.06,14.1-21.5-1.44-24-2.94S453.87,675.47,453.87,675.47Z" transform="translate(-64.52 -100.01)"/>
    <path id="Path_225" data-name="Path 225" class="cls-22" d="M481,685.54c-9.26.08-21.51-1.44-24-2.94-1.88-1.15-2.63-5.25-2.88-7.14h-.27s.52,6.61,3,8.11,14.72,3,24,2.94c2.68,0,3.6-1,3.55-2.38C484,685,483,685.53,481,685.54Z" transform="translate(-64.52 -100.01)"/>
    <ellipse id="Ellipse_44" data-name="Ellipse 44" class="cls-29" cx="34.31" cy="5.8" rx="34.31" ry="5.8" transform="translate(676.48 614.54)"/>
    <path id="Path_226" data-name="Path 226" class="cls-30" d="M752.27,693.4s19.57-.6,25.47-4.8,30.1-9.22,31.57-2.48,29.41,33.5,7.31,33.68-51.34-3.45-57.22-7S752.27,693.4,752.27,693.4Z" transform="translate(-64.52 -100.01)"/>
    <path id="Path_227" data-name="Path 227" class="cls-22" d="M817,717.45c-22.1.18-51.34-3.44-57.23-7-4.48-2.73-6.27-12.53-6.87-17h-.65s1.24,15.78,7.13,19.37,35.13,7.2,57.22,7c6.38-.06,8.58-2.32,8.46-5.69C824.2,716.15,821.76,717.41,817,717.45Z" transform="translate(-64.52 -100.01)"/>
  </g>
</svg>
